G04 #@! TF.FileFunction,Copper,L2,Bot,Signal*
%FSLAX46Y46*%
G04 Gerber Fmt 4.6, Leading zero omitted, Abs format (unit mm)*
G04 Created by KiCad (PCBNEW 4.0.1-stable) date 2019/02/22 9:20:12*
%MOMM*%
G01*
G04 APERTURE LIST*
%ADD10C,0.100000*%
%ADD11C,0.150000*%
%ADD12C,4.064000*%
%ADD13R,1.800000X1.800000*%
%ADD14C,1.800000*%
%ADD15R,1.200000X1.700000*%
%ADD16O,1.200000X1.700000*%
%ADD17R,1.700000X1.700000*%
%ADD18O,1.700000X1.700000*%
%ADD19R,2.400000X1.600000*%
%ADD20O,2.400000X1.600000*%
%ADD21C,1.600000*%
%ADD22O,1.600000X1.600000*%
%ADD23R,1.700000X1.200000*%
%ADD24O,1.700000X1.200000*%
%ADD25C,2.000000*%
%ADD26C,1.500000*%
%ADD27R,1.600000X1.600000*%
%ADD28R,1.400000X1.400000*%
%ADD29O,1.400000X1.400000*%
%ADD30C,1.000000*%
%ADD31C,0.254000*%
G04 APERTURE END LIST*
D10*
D11*
X129540000Y-179070000D02*
G75*
G03X132080000Y-181610000I2540000J0D01*
G01*
X162560000Y-181610000D02*
G75*
G03X165100000Y-179070000I0J2540000D01*
G01*
X165100000Y-107950000D02*
G75*
G03X162560000Y-105410000I-2540000J0D01*
G01*
X132080000Y-105410000D02*
G75*
G03X129540000Y-107950000I0J-2540000D01*
G01*
X129540000Y-179070000D02*
X129540000Y-107950000D01*
X162560000Y-181610000D02*
X132080000Y-181610000D01*
X165100000Y-107950000D02*
X165100000Y-179070000D01*
X132080000Y-105410000D02*
X162560000Y-105410000D01*
D12*
X162560000Y-179070000D03*
X132080000Y-179070000D03*
X162560000Y-107950000D03*
D13*
X131191000Y-151892000D03*
D14*
X133731000Y-151892000D03*
D15*
X137033000Y-174625000D03*
D16*
X139033000Y-174625000D03*
X141033000Y-174625000D03*
X143033000Y-174625000D03*
D17*
X145034000Y-114300000D03*
D18*
X145034000Y-116840000D03*
X145034000Y-119380000D03*
X145034000Y-121920000D03*
X145034000Y-124460000D03*
X145034000Y-127000000D03*
X145034000Y-129540000D03*
X145034000Y-132080000D03*
D19*
X147574000Y-114300000D03*
D20*
X155194000Y-147320000D03*
X147574000Y-116840000D03*
X155194000Y-144780000D03*
X147574000Y-119380000D03*
X155194000Y-142240000D03*
X147574000Y-121920000D03*
X155194000Y-139700000D03*
X147574000Y-124460000D03*
X155194000Y-137160000D03*
X147574000Y-127000000D03*
X155194000Y-134620000D03*
X147574000Y-129540000D03*
X155194000Y-132080000D03*
X147574000Y-132080000D03*
X155194000Y-129540000D03*
X147574000Y-134620000D03*
X155194000Y-127000000D03*
X147574000Y-137160000D03*
X155194000Y-124460000D03*
X147574000Y-139700000D03*
X155194000Y-121920000D03*
X147574000Y-142240000D03*
X155194000Y-119380000D03*
X147574000Y-144780000D03*
X155194000Y-116840000D03*
X147574000Y-147320000D03*
X155194000Y-114300000D03*
D17*
X147574000Y-157480000D03*
D18*
X147574000Y-160020000D03*
X147574000Y-162560000D03*
X147574000Y-165100000D03*
X147574000Y-167640000D03*
X147574000Y-170180000D03*
X147574000Y-172720000D03*
X147574000Y-175260000D03*
X147574000Y-177800000D03*
D21*
X133604000Y-142240000D03*
D22*
X133604000Y-134620000D03*
D21*
X142494000Y-129540000D03*
X142494000Y-132040000D03*
X136144000Y-137160000D03*
X136144000Y-134660000D03*
X136144000Y-142240000D03*
X136144000Y-139740000D03*
X137414000Y-129540000D03*
X137414000Y-132040000D03*
X142494000Y-111252000D03*
X144994000Y-111252000D03*
D13*
X137668000Y-151892000D03*
D14*
X140208000Y-151892000D03*
D23*
X133604000Y-124460000D03*
D24*
X133604000Y-126460000D03*
X133604000Y-128460000D03*
X133604000Y-130460000D03*
D17*
X139954000Y-121920000D03*
D18*
X139954000Y-124460000D03*
X139954000Y-127000000D03*
X139954000Y-129540000D03*
X139954000Y-132080000D03*
D21*
X132207000Y-164338000D03*
D22*
X132207000Y-156718000D03*
D21*
X139954000Y-118110000D03*
D22*
X139954000Y-110490000D03*
D25*
X131898000Y-114300000D03*
X136398000Y-114300000D03*
X131898000Y-120800000D03*
X136398000Y-120800000D03*
D26*
X139954000Y-137160000D03*
X139954000Y-142040000D03*
D17*
X132334000Y-167640000D03*
D18*
X132334000Y-170180000D03*
D17*
X145034000Y-139700000D03*
D18*
X145034000Y-142240000D03*
X145034000Y-144780000D03*
X145034000Y-147320000D03*
D15*
X136906000Y-159004000D03*
D16*
X138906000Y-159004000D03*
X140906000Y-159004000D03*
D15*
X148209000Y-109347000D03*
D16*
X150209000Y-109347000D03*
X152209000Y-109347000D03*
X154209000Y-109347000D03*
D21*
X156210000Y-157480000D03*
X156210000Y-159980000D03*
D27*
X161544000Y-154686000D03*
D21*
X161544000Y-152686000D03*
D27*
X157480000Y-174752000D03*
D22*
X162560000Y-164592000D03*
X160020000Y-174752000D03*
X160020000Y-164592000D03*
X162560000Y-174752000D03*
X157480000Y-164592000D03*
D28*
X159004000Y-157480000D03*
D29*
X159004000Y-159780000D03*
X159004000Y-162080000D03*
D17*
X157988000Y-109220000D03*
D18*
X157988000Y-111760000D03*
X157988000Y-114300000D03*
X157988000Y-116840000D03*
D17*
X160528000Y-114300000D03*
D18*
X160528000Y-116840000D03*
D17*
X157988000Y-129540000D03*
D18*
X157988000Y-132080000D03*
X157988000Y-134620000D03*
X157988000Y-137160000D03*
X157988000Y-139700000D03*
X157988000Y-142240000D03*
X157988000Y-144780000D03*
X157988000Y-147320000D03*
D17*
X160528000Y-127000000D03*
D18*
X160528000Y-124460000D03*
X160528000Y-121920000D03*
X160528000Y-119380000D03*
D17*
X163042600Y-111760000D03*
D18*
X163042600Y-114300000D03*
X163042600Y-116840000D03*
X163042600Y-119380000D03*
X163042600Y-121920000D03*
X163042600Y-124460000D03*
X163042600Y-127000000D03*
X163042600Y-129540000D03*
D12*
X132080000Y-107950000D03*
D30*
X157988000Y-111760000D02*
X163042600Y-111760000D01*
X133604000Y-134620000D02*
X133604000Y-133350000D01*
X133604000Y-133350000D02*
X137414000Y-129540000D01*
X133354000Y-128460000D02*
X133604000Y-128460000D01*
X133515509Y-128460000D02*
X133604000Y-128460000D01*
X159538001Y-142092931D02*
X161938021Y-144492951D01*
X161938021Y-144492951D02*
X161938021Y-149463539D01*
X161938021Y-149463539D02*
X156210000Y-155191560D01*
X156210000Y-155191560D02*
X156210000Y-156348630D01*
X156210000Y-156348630D02*
X156210000Y-157480000D01*
X157988000Y-134620000D02*
X159538001Y-136170001D01*
X159538001Y-136170001D02*
X159538001Y-142092931D01*
X155194000Y-134620000D02*
X157988000Y-134620000D01*
X150209000Y-109347000D02*
X150209000Y-127305000D01*
X150209000Y-127305000D02*
X147974000Y-129540000D01*
X147974000Y-129540000D02*
X147574000Y-129540000D01*
X150209000Y-109347000D02*
X150209000Y-109097000D01*
X150209000Y-109097000D02*
X151509010Y-107796990D01*
X156437999Y-111412080D02*
X156785919Y-111760000D01*
X151509010Y-107796990D02*
X154747481Y-107796990D01*
X154747481Y-107796990D02*
X156437999Y-109487508D01*
X156437999Y-109487508D02*
X156437999Y-111412080D01*
X156785919Y-111760000D02*
X157988000Y-111760000D01*
X150209000Y-109347000D02*
X150209000Y-109258509D01*
X156210000Y-157480000D02*
X159004000Y-157480000D01*
X158750000Y-157226000D02*
X159004000Y-157480000D01*
X159004000Y-157480000D02*
X159258000Y-157480000D01*
X143002000Y-168469919D02*
X143033000Y-168500919D01*
X143033000Y-168500919D02*
X143033000Y-174625000D01*
X147574000Y-165100000D02*
X146371919Y-165100000D01*
X146371919Y-165100000D02*
X143002000Y-168469919D01*
X143033000Y-174375000D02*
X143033000Y-174625000D01*
X143033000Y-174625000D02*
X143033000Y-174713491D01*
X143033000Y-174536509D02*
X143033000Y-174625000D01*
X147574000Y-165100000D02*
X149774000Y-162900000D01*
X149774000Y-162900000D02*
X149774000Y-131340000D01*
X149774000Y-131340000D02*
X147974000Y-129540000D01*
X147574000Y-129540000D02*
X150114000Y-129540000D01*
X150114000Y-129540000D02*
X155194000Y-134620000D01*
X133414000Y-128270000D02*
X133604000Y-128460000D01*
X139954000Y-118110000D02*
X141085370Y-118110000D01*
X141085370Y-118110000D02*
X143483999Y-120508629D01*
X143483999Y-120508629D02*
X143483999Y-126255999D01*
X143483999Y-126255999D02*
X142494000Y-127245998D01*
X142494000Y-127245998D02*
X142494000Y-129540000D01*
X133604000Y-128460000D02*
X136334000Y-128460000D01*
X136334000Y-128460000D02*
X137414000Y-129540000D01*
X139954000Y-129540000D02*
X142494000Y-129540000D01*
X142494000Y-129540000D02*
X145034000Y-129540000D01*
X137414000Y-129540000D02*
X139954000Y-129540000D01*
X137224000Y-129730000D02*
X137414000Y-129540000D01*
X145034000Y-129540000D02*
X147574000Y-129540000D01*
X157988000Y-129540000D02*
X163138031Y-134690031D01*
X163138031Y-134690031D02*
X163138031Y-151091969D01*
X163138031Y-151091969D02*
X162343999Y-151886001D01*
X162343999Y-151886001D02*
X161544000Y-152686000D01*
X155194000Y-129540000D02*
X157988000Y-129540000D01*
X161544000Y-152686000D02*
X160412630Y-152686000D01*
X160412630Y-152686000D02*
X160020000Y-153078630D01*
X160020000Y-153078630D02*
X160020000Y-155835998D01*
X160458010Y-156274008D02*
X160458010Y-158685992D01*
X160020000Y-155835998D02*
X160458010Y-156274008D01*
X160458010Y-158685992D02*
X160064001Y-159080001D01*
X160064001Y-159080001D02*
X159703999Y-159080001D01*
X159703999Y-159080001D02*
X159004000Y-159780000D01*
X142494000Y-132040000D02*
X144994000Y-132040000D01*
X144994000Y-132040000D02*
X145034000Y-132080000D01*
X136144000Y-137160000D02*
X139954000Y-137160000D01*
X142494000Y-134620000D02*
X147574000Y-134620000D01*
X139954000Y-137160000D02*
X142494000Y-134620000D01*
X139954000Y-142040000D02*
X144834000Y-137160000D01*
X144834000Y-137160000D02*
X147574000Y-137160000D01*
X136144000Y-142240000D02*
X139754000Y-142240000D01*
X139754000Y-142240000D02*
X139954000Y-142040000D01*
X147574000Y-137160000D02*
X147555334Y-137160000D01*
X136398000Y-114300000D02*
X136398000Y-114046000D01*
X136398000Y-114046000D02*
X139954000Y-110490000D01*
X136398000Y-120800000D02*
X138834000Y-120800000D01*
X138834000Y-120800000D02*
X139954000Y-121920000D01*
X139804000Y-121920000D02*
X139954000Y-121920000D01*
X139954000Y-110490000D02*
X141732000Y-110490000D01*
X141732000Y-110490000D02*
X142494000Y-111252000D01*
X142494000Y-111252000D02*
X142494000Y-111760000D01*
X142494000Y-111760000D02*
X145034000Y-114300000D01*
X142367000Y-111379000D02*
X142494000Y-111252000D01*
X139804000Y-121770000D02*
X139954000Y-121920000D01*
X145034000Y-114300000D02*
X147574000Y-114300000D01*
X140208000Y-151892000D02*
X139308001Y-152791999D01*
X139308001Y-152791999D02*
X139308001Y-153891997D01*
X139308001Y-153891997D02*
X132207000Y-160992998D01*
X132207000Y-160992998D02*
X132207000Y-163206630D01*
X132207000Y-163206630D02*
X132207000Y-164338000D01*
X145034000Y-116840000D02*
X143209510Y-116840000D01*
X143209510Y-116840000D02*
X141779499Y-115409989D01*
X141779499Y-115409989D02*
X138736938Y-115409990D01*
X132053999Y-123299999D02*
X132053999Y-126207051D01*
X138736938Y-115409990D02*
X133598001Y-120548927D01*
X133598001Y-120548927D02*
X133598001Y-121755997D01*
X132053999Y-126207051D02*
X132306948Y-126460000D01*
X133598001Y-121755997D02*
X132053999Y-123299999D01*
X132306948Y-126460000D02*
X133604000Y-126460000D01*
X133064000Y-126460000D02*
X133604000Y-126460000D01*
X139954000Y-127000000D02*
X134144000Y-127000000D01*
X134144000Y-127000000D02*
X133604000Y-126460000D01*
X139922000Y-126968000D02*
X139954000Y-127000000D01*
X145034000Y-116840000D02*
X147574000Y-116840000D01*
X139954000Y-124460000D02*
X140803999Y-123610001D01*
X140803999Y-123610001D02*
X141224001Y-123610001D01*
X141224001Y-123610001D02*
X141504001Y-123330001D01*
X139233999Y-116609999D02*
X141282439Y-116609999D01*
X141282439Y-116609999D02*
X144052440Y-119380000D01*
X141504001Y-123330001D02*
X141504001Y-120225701D01*
X140888301Y-119610001D02*
X139191071Y-119610001D01*
X141504001Y-120225701D02*
X140888301Y-119610001D01*
X139191071Y-119610001D02*
X137844001Y-118262931D01*
X137844001Y-118262931D02*
X137844001Y-117999997D01*
X137844001Y-117999997D02*
X139233999Y-116609999D01*
X144052440Y-119380000D02*
X145034000Y-119380000D01*
X139954000Y-124460000D02*
X133604000Y-124460000D01*
X145034000Y-119380000D02*
X147574000Y-119380000D01*
X133604000Y-142240000D02*
X133604000Y-151765000D01*
X133604000Y-151765000D02*
X133731000Y-151892000D01*
X155194000Y-147320000D02*
X157988000Y-147320000D01*
X149606000Y-172385070D02*
X149606000Y-175768000D01*
X149606000Y-175768000D02*
X147574000Y-177800000D01*
X153374028Y-154227974D02*
X153374027Y-168617043D01*
X153374027Y-168617043D02*
X149606000Y-172385070D01*
X157988000Y-144780000D02*
X159538001Y-146330001D01*
X159538001Y-146330001D02*
X159538001Y-148064001D01*
X159538001Y-148064001D02*
X153374028Y-154227974D01*
X155194000Y-144780000D02*
X157488002Y-144780000D01*
X155194000Y-144780000D02*
X154794000Y-144780000D01*
X155194000Y-144780000D02*
X157734000Y-144780000D01*
X154574036Y-169114104D02*
X150806010Y-172882130D01*
X150806010Y-172882130D02*
X150806010Y-176861992D01*
X150806010Y-176861992D02*
X148318001Y-179350001D01*
X148318001Y-179350001D02*
X146829999Y-179350001D01*
X146829999Y-179350001D02*
X146023999Y-178544001D01*
X146023999Y-176810001D02*
X146724001Y-176109999D01*
X146023999Y-178544001D02*
X146023999Y-176810001D01*
X146724001Y-176109999D02*
X147574000Y-175260000D01*
X160738011Y-148561061D02*
X154574037Y-154725035D01*
X154574037Y-154725035D02*
X154574036Y-169114104D01*
X157988000Y-142240000D02*
X160738011Y-144990011D01*
X160738011Y-144990011D02*
X160738011Y-148561061D01*
X155194000Y-142240000D02*
X157988000Y-142240000D01*
X155194000Y-142240000D02*
X154794000Y-142240000D01*
X145034000Y-121920000D02*
X147574000Y-121920000D01*
X155194000Y-139700000D02*
X157988000Y-139700000D01*
X155194000Y-139700000D02*
X152994000Y-139700000D01*
X152994000Y-139700000D02*
X152174018Y-140519982D01*
X152174018Y-140519982D02*
X152174018Y-168119982D01*
X152174018Y-168119982D02*
X147574000Y-172720000D01*
X154794000Y-139700000D02*
X155194000Y-139700000D01*
X145034000Y-124460000D02*
X147574000Y-124460000D01*
X155194000Y-137160000D02*
X157988000Y-137160000D01*
X155194000Y-137160000D02*
X152994000Y-137160000D01*
X152994000Y-137160000D02*
X150974010Y-139179990D01*
X150974010Y-139179990D02*
X150974010Y-166779990D01*
X154794000Y-137160000D02*
X155194000Y-137160000D01*
X148423999Y-169330001D02*
X147574000Y-170180000D01*
X150974010Y-166779990D02*
X148423999Y-169330001D01*
X145034000Y-127000000D02*
X147574000Y-127000000D01*
X155194000Y-132080000D02*
X157988000Y-132080000D01*
X158268001Y-132080000D02*
X157988000Y-132080000D01*
X160528000Y-127000000D02*
X160528000Y-129319402D01*
X160528000Y-129319402D02*
X164338041Y-133129443D01*
X164338041Y-160273959D02*
X160020000Y-164592000D01*
X164338041Y-133129443D02*
X164338041Y-160273959D01*
X155194000Y-127000000D02*
X160528000Y-127000000D01*
X160020000Y-164592000D02*
X160339998Y-164592000D01*
X155194000Y-124460000D02*
X160528000Y-124460000D01*
X155194000Y-124460000D02*
X155194000Y-124441334D01*
X145034000Y-139700000D02*
X141083980Y-143650020D01*
X137617001Y-150291999D02*
X136207999Y-150291999D01*
X141083980Y-143650020D02*
X141083980Y-146825020D01*
X141083980Y-146825020D02*
X137617001Y-150291999D01*
X135331001Y-151168997D02*
X135331001Y-153593999D01*
X136207999Y-150291999D02*
X135331001Y-151168997D01*
X135331001Y-153593999D02*
X133006999Y-155918001D01*
X133006999Y-155918001D02*
X132207000Y-156718000D01*
X145034000Y-139700000D02*
X147574000Y-139700000D01*
X155194000Y-121920000D02*
X160528000Y-121920000D01*
X152209000Y-109347000D02*
X152209000Y-113066596D01*
X152209000Y-113066596D02*
X151793991Y-113481605D01*
X151793991Y-113481605D02*
X151793991Y-118919991D01*
X151793991Y-118919991D02*
X154794000Y-121920000D01*
X154794000Y-121920000D02*
X155194000Y-121920000D01*
X152209000Y-109347000D02*
X152209000Y-109597000D01*
X137033000Y-174625000D02*
X137033000Y-167259000D01*
X142283989Y-144990011D02*
X144184001Y-143089999D01*
X137033000Y-167259000D02*
X142283989Y-162008011D01*
X142283989Y-162008011D02*
X142283989Y-144990011D01*
X144184001Y-143089999D02*
X145034000Y-142240000D01*
X137033000Y-174625000D02*
X137033000Y-174375000D01*
X145034000Y-142240000D02*
X145034000Y-142485998D01*
X147974000Y-142240000D02*
X147574000Y-142240000D01*
X145034000Y-142240000D02*
X147574000Y-142240000D01*
X155194000Y-119380000D02*
X160528000Y-119380000D01*
X154209000Y-109347000D02*
X154209000Y-112763666D01*
X154209000Y-112763666D02*
X152994000Y-113978666D01*
X152994000Y-113978666D02*
X152994000Y-117580000D01*
X152994000Y-117580000D02*
X154794000Y-119380000D01*
X154794000Y-119380000D02*
X155194000Y-119380000D01*
X154209000Y-109347000D02*
X154209000Y-109597000D01*
X139033000Y-167799000D02*
X143483999Y-163348001D01*
X143483999Y-163348001D02*
X143483999Y-146330001D01*
X143483999Y-146330001D02*
X144184001Y-145629999D01*
X144184001Y-145629999D02*
X145034000Y-144780000D01*
X139033000Y-174625000D02*
X139033000Y-167799000D01*
X139033000Y-174375000D02*
X139033000Y-174625000D01*
X139033000Y-174625000D02*
X139033000Y-174713491D01*
X147974000Y-144780000D02*
X147574000Y-144780000D01*
X145034000Y-144780000D02*
X145034000Y-145107070D01*
X147574000Y-144780000D02*
X145034000Y-144780000D01*
X160528000Y-116840000D02*
X160528000Y-116865400D01*
X160528000Y-116865400D02*
X163042600Y-119380000D01*
X157988000Y-116840000D02*
X160528000Y-116840000D01*
X155194000Y-116840000D02*
X157988000Y-116840000D01*
X155194000Y-116840000D02*
X154794000Y-116840000D01*
X141033000Y-167831000D02*
X145034000Y-163830000D01*
X145034000Y-163830000D02*
X145034000Y-147320000D01*
X141033000Y-174625000D02*
X141033000Y-167831000D01*
X141033000Y-174375000D02*
X141033000Y-174625000D01*
X141033000Y-174536509D02*
X141033000Y-174625000D01*
X145034000Y-147320000D02*
X147574000Y-147320000D01*
X160528000Y-114300000D02*
X160528000Y-114325400D01*
X160528000Y-114325400D02*
X163042600Y-116840000D01*
X157988000Y-114300000D02*
X160528000Y-114300000D01*
X155194000Y-114300000D02*
X157988000Y-114300000D01*
X132334000Y-167640000D02*
X133707001Y-166266999D01*
X133707001Y-166266999D02*
X133707001Y-162452999D01*
X133707001Y-162452999D02*
X136906000Y-159254000D01*
X136906000Y-159254000D02*
X136906000Y-159004000D01*
X136906000Y-158915509D02*
X136906000Y-159004000D01*
X132123980Y-167429980D02*
X132334000Y-167640000D01*
X132334000Y-170180000D02*
X133536081Y-170180000D01*
X133536081Y-170180000D02*
X135832990Y-167883091D01*
X135832990Y-163927010D02*
X138906000Y-160854000D01*
X138906000Y-160854000D02*
X138906000Y-159004000D01*
X135832990Y-167883091D02*
X135832990Y-163927010D01*
X138906000Y-159004000D02*
X138906000Y-159254000D01*
X157480000Y-164592000D02*
X157480000Y-163604000D01*
X157480000Y-163604000D02*
X159004000Y-162080000D01*
X161544000Y-154686000D02*
X161798000Y-154686000D01*
X161798000Y-154686000D02*
X162629990Y-155517990D01*
X162629990Y-155517990D02*
X162629990Y-159522940D01*
X162629990Y-159522940D02*
X160072930Y-162080000D01*
X160072930Y-162080000D02*
X159004000Y-162080000D01*
X157480000Y-164592000D02*
X157480000Y-164366000D01*
X161516000Y-154714000D02*
X161544000Y-154686000D01*
X157480000Y-164592000D02*
X157480000Y-164338000D01*
D31*
G36*
X160307124Y-106441831D02*
X159901462Y-107418772D01*
X159900539Y-108476587D01*
X160304495Y-109454235D01*
X161051831Y-110202876D01*
X161725708Y-110482695D01*
X161623008Y-110633000D01*
X159138132Y-110633000D01*
X159197698Y-110608327D01*
X159376327Y-110429699D01*
X159473000Y-110196310D01*
X159473000Y-109505750D01*
X159314250Y-109347000D01*
X158115000Y-109347000D01*
X158115000Y-109367000D01*
X157861000Y-109367000D01*
X157861000Y-109347000D01*
X157841000Y-109347000D01*
X157841000Y-109093000D01*
X157861000Y-109093000D01*
X157861000Y-107893750D01*
X158115000Y-107893750D01*
X158115000Y-109093000D01*
X159314250Y-109093000D01*
X159473000Y-108934250D01*
X159473000Y-108243690D01*
X159376327Y-108010301D01*
X159197698Y-107831673D01*
X158964309Y-107735000D01*
X158273750Y-107735000D01*
X158115000Y-107893750D01*
X157861000Y-107893750D01*
X157702250Y-107735000D01*
X157011691Y-107735000D01*
X156778302Y-107831673D01*
X156599673Y-108010301D01*
X156586475Y-108042165D01*
X155544390Y-107000081D01*
X155178765Y-106755778D01*
X154747481Y-106669990D01*
X151509010Y-106669990D01*
X151077726Y-106755778D01*
X150712101Y-107000080D01*
X149787220Y-107924961D01*
X149739447Y-107934464D01*
X149366523Y-108183644D01*
X149347327Y-108137301D01*
X149168698Y-107958673D01*
X148935309Y-107862000D01*
X148494750Y-107862000D01*
X148336000Y-108020750D01*
X148336000Y-109220000D01*
X148356000Y-109220000D01*
X148356000Y-109474000D01*
X148336000Y-109474000D01*
X148336000Y-110673250D01*
X148494750Y-110832000D01*
X148935309Y-110832000D01*
X149082000Y-110771239D01*
X149082000Y-112951590D01*
X149022717Y-112911083D01*
X148774000Y-112860717D01*
X146374000Y-112860717D01*
X146184395Y-112896394D01*
X146132717Y-112861083D01*
X145884000Y-112810717D01*
X145138536Y-112810717D01*
X145015427Y-112687608D01*
X145347454Y-112671778D01*
X145748005Y-112505864D01*
X145822139Y-112259745D01*
X144994000Y-111431605D01*
X144979858Y-111445748D01*
X144800252Y-111266142D01*
X144814395Y-111252000D01*
X145173605Y-111252000D01*
X146001745Y-112080139D01*
X146247864Y-112006005D01*
X146440965Y-111468777D01*
X146413778Y-110898546D01*
X146247864Y-110497995D01*
X146001745Y-110423861D01*
X145173605Y-111252000D01*
X144814395Y-111252000D01*
X143986255Y-110423861D01*
X143740136Y-110497995D01*
X143733777Y-110515685D01*
X143704457Y-110444725D01*
X143504337Y-110244255D01*
X144165861Y-110244255D01*
X144994000Y-111072395D01*
X145822139Y-110244255D01*
X145748005Y-109998136D01*
X145210777Y-109805035D01*
X144640546Y-109832222D01*
X144239995Y-109998136D01*
X144165861Y-110244255D01*
X143504337Y-110244255D01*
X143303386Y-110042953D01*
X142779093Y-109825248D01*
X142660963Y-109825145D01*
X142528909Y-109693091D01*
X142438603Y-109632750D01*
X146974000Y-109632750D01*
X146974000Y-110323310D01*
X147070673Y-110556699D01*
X147249302Y-110735327D01*
X147482691Y-110832000D01*
X147923250Y-110832000D01*
X148082000Y-110673250D01*
X148082000Y-109474000D01*
X147132750Y-109474000D01*
X146974000Y-109632750D01*
X142438603Y-109632750D01*
X142163284Y-109448788D01*
X141732000Y-109363000D01*
X140828344Y-109363000D01*
X140500089Y-109143667D01*
X139954000Y-109035043D01*
X139407911Y-109143667D01*
X138944959Y-109453002D01*
X138635624Y-109915954D01*
X138561480Y-110288701D01*
X136177375Y-112672807D01*
X136075789Y-112672718D01*
X135477582Y-112919892D01*
X135019501Y-113377175D01*
X134771283Y-113974950D01*
X134770718Y-114622211D01*
X135017892Y-115220418D01*
X135475175Y-115678499D01*
X136072950Y-115926717D01*
X136625910Y-115927200D01*
X133002565Y-119550545D01*
X132985206Y-119533186D01*
X132870926Y-119647466D01*
X132772264Y-119380613D01*
X132162539Y-119154092D01*
X131512540Y-119178144D01*
X131023736Y-119380613D01*
X130925073Y-119647468D01*
X131898000Y-120620395D01*
X131912143Y-120606253D01*
X132091748Y-120785858D01*
X132077605Y-120800000D01*
X132091748Y-120814143D01*
X131912143Y-120993748D01*
X131898000Y-120979605D01*
X130925073Y-121952532D01*
X131023736Y-122219387D01*
X131400733Y-122359447D01*
X131257090Y-122503090D01*
X131012787Y-122868715D01*
X130926999Y-123299999D01*
X130926999Y-126207051D01*
X131012787Y-126638335D01*
X131257090Y-127003960D01*
X131510039Y-127256909D01*
X131875664Y-127501212D01*
X132306948Y-127587000D01*
X132465496Y-127587000D01*
X132457444Y-127592380D01*
X132191464Y-127990447D01*
X132098064Y-128460000D01*
X132191464Y-128929553D01*
X132457444Y-129327620D01*
X132651590Y-129457344D01*
X132422067Y-129630875D01*
X132175714Y-130050624D01*
X132160538Y-130142391D01*
X132285269Y-130333000D01*
X133477000Y-130333000D01*
X133477000Y-130313000D01*
X133731000Y-130313000D01*
X133731000Y-130333000D01*
X133751000Y-130333000D01*
X133751000Y-130587000D01*
X133731000Y-130587000D01*
X133731000Y-131542547D01*
X133778304Y-131581878D01*
X132807091Y-132553091D01*
X132562788Y-132918716D01*
X132477000Y-133350000D01*
X132477000Y-133759540D01*
X132285624Y-134045954D01*
X132177000Y-134592043D01*
X132177000Y-134647957D01*
X132285624Y-135194046D01*
X132594959Y-135656998D01*
X133057911Y-135966333D01*
X133604000Y-136074957D01*
X134150089Y-135966333D01*
X134613041Y-135656998D01*
X134846230Y-135308007D01*
X134890136Y-135414005D01*
X135136255Y-135488139D01*
X135964395Y-134660000D01*
X136323605Y-134660000D01*
X137151745Y-135488139D01*
X137397864Y-135414005D01*
X137590965Y-134876777D01*
X137563778Y-134306546D01*
X137397864Y-133905995D01*
X137151745Y-133831861D01*
X136323605Y-134660000D01*
X135964395Y-134660000D01*
X135136255Y-133831861D01*
X134890136Y-133905995D01*
X134868702Y-133965626D01*
X134753942Y-133793876D01*
X134895563Y-133652255D01*
X135315861Y-133652255D01*
X136144000Y-134480395D01*
X136972139Y-133652255D01*
X136898005Y-133406136D01*
X136360777Y-133213035D01*
X135790546Y-133240222D01*
X135389995Y-133406136D01*
X135315861Y-133652255D01*
X134895563Y-133652255D01*
X135500073Y-133047745D01*
X136585861Y-133047745D01*
X136659995Y-133293864D01*
X137197223Y-133486965D01*
X137767454Y-133459778D01*
X138168005Y-133293864D01*
X138242139Y-133047745D01*
X137414000Y-132219605D01*
X136585861Y-133047745D01*
X135500073Y-133047745D01*
X136041127Y-132506692D01*
X136160136Y-132794005D01*
X136406255Y-132868139D01*
X137234395Y-132040000D01*
X137220253Y-132025858D01*
X137399858Y-131846253D01*
X137414000Y-131860395D01*
X138242139Y-131032255D01*
X138168005Y-130786136D01*
X138150315Y-130779777D01*
X138221275Y-130750457D01*
X138304878Y-130667000D01*
X139004291Y-130667000D01*
X139223939Y-130813764D01*
X139072642Y-130884817D01*
X138682355Y-131313076D01*
X138680718Y-131317028D01*
X138667864Y-131285995D01*
X138421745Y-131211861D01*
X137593605Y-132040000D01*
X138421745Y-132868139D01*
X138661260Y-132795994D01*
X138682355Y-132846924D01*
X139072642Y-133275183D01*
X139597108Y-133521486D01*
X139827000Y-133400819D01*
X139827000Y-132207000D01*
X139807000Y-132207000D01*
X139807000Y-131953000D01*
X139827000Y-131953000D01*
X139827000Y-131933000D01*
X140081000Y-131933000D01*
X140081000Y-131953000D01*
X140101000Y-131953000D01*
X140101000Y-132207000D01*
X140081000Y-132207000D01*
X140081000Y-133400819D01*
X140310892Y-133521486D01*
X140835358Y-133275183D01*
X141042629Y-133047745D01*
X141665861Y-133047745D01*
X141739995Y-133293864D01*
X142277223Y-133486965D01*
X142847454Y-133459778D01*
X143248005Y-133293864D01*
X143322139Y-133047745D01*
X142494000Y-132219605D01*
X141665861Y-133047745D01*
X141042629Y-133047745D01*
X141225645Y-132846924D01*
X141246740Y-132795994D01*
X141486255Y-132868139D01*
X142314395Y-132040000D01*
X141486255Y-131211861D01*
X141240136Y-131285995D01*
X141228192Y-131319225D01*
X141225645Y-131313076D01*
X140835358Y-130884817D01*
X140684061Y-130813764D01*
X140903709Y-130667000D01*
X141602710Y-130667000D01*
X141684614Y-130749047D01*
X141756986Y-130779098D01*
X141739995Y-130786136D01*
X141665861Y-131032255D01*
X142494000Y-131860395D01*
X143322139Y-131032255D01*
X143248005Y-130786136D01*
X143230315Y-130779777D01*
X143301275Y-130750457D01*
X143384878Y-130667000D01*
X144084291Y-130667000D01*
X144303939Y-130813764D01*
X144152642Y-130884817D01*
X143762355Y-131313076D01*
X143760718Y-131317028D01*
X143747864Y-131285995D01*
X143501745Y-131211861D01*
X142673605Y-132040000D01*
X143501745Y-132868139D01*
X143741260Y-132795994D01*
X143762355Y-132846924D01*
X144152642Y-133275183D01*
X144616451Y-133493000D01*
X142494000Y-133493000D01*
X142134270Y-133564555D01*
X142062715Y-133578788D01*
X141697090Y-133823091D01*
X139737371Y-135782811D01*
X139681299Y-135782762D01*
X139175011Y-135991956D01*
X139133895Y-136033000D01*
X137035290Y-136033000D01*
X136953386Y-135950953D01*
X136881014Y-135920902D01*
X136898005Y-135913864D01*
X136972139Y-135667745D01*
X136144000Y-134839605D01*
X135315861Y-135667745D01*
X135389995Y-135913864D01*
X135407685Y-135920223D01*
X135336725Y-135949543D01*
X134934953Y-136350614D01*
X134717248Y-136874907D01*
X134716752Y-137442603D01*
X134933543Y-137967275D01*
X135334614Y-138369047D01*
X135503435Y-138439147D01*
X135389995Y-138486136D01*
X135315861Y-138732255D01*
X136144000Y-139560395D01*
X136972139Y-138732255D01*
X136898005Y-138486136D01*
X136776773Y-138442560D01*
X136951275Y-138370457D01*
X137034878Y-138287000D01*
X139133360Y-138287000D01*
X139172974Y-138326683D01*
X139678896Y-138536760D01*
X140226701Y-138537238D01*
X140732989Y-138328044D01*
X141120683Y-137941026D01*
X141330760Y-137435104D01*
X141330811Y-137377008D01*
X142960819Y-135747000D01*
X146305704Y-135747000D01*
X146519718Y-135890000D01*
X146305704Y-136033000D01*
X144834000Y-136033000D01*
X144418728Y-136115603D01*
X144402716Y-136118788D01*
X144037091Y-136363091D01*
X139737371Y-140662811D01*
X139681299Y-140662762D01*
X139175011Y-140871956D01*
X138933546Y-141113000D01*
X137035290Y-141113000D01*
X136953386Y-141030953D01*
X136881014Y-141000902D01*
X136898005Y-140993864D01*
X136972139Y-140747745D01*
X136144000Y-139919605D01*
X135315861Y-140747745D01*
X135389995Y-140993864D01*
X135407685Y-141000223D01*
X135336725Y-141029543D01*
X134934953Y-141430614D01*
X134874119Y-141577118D01*
X134814457Y-141432725D01*
X134413386Y-141030953D01*
X133889093Y-140813248D01*
X133321397Y-140812752D01*
X132796725Y-141029543D01*
X132394953Y-141430614D01*
X132177248Y-141954907D01*
X132176752Y-142522603D01*
X132393543Y-143047275D01*
X132477000Y-143130878D01*
X132477000Y-150479975D01*
X132450698Y-150453673D01*
X132217309Y-150357000D01*
X131476750Y-150357000D01*
X131318000Y-150515750D01*
X131318000Y-151765000D01*
X131338000Y-151765000D01*
X131338000Y-152019000D01*
X131318000Y-152019000D01*
X131318000Y-153268250D01*
X131476750Y-153427000D01*
X132217309Y-153427000D01*
X132450698Y-153330327D01*
X132629327Y-153151699D01*
X132688433Y-153009004D01*
X132864894Y-153185773D01*
X133425928Y-153418735D01*
X133912023Y-153419159D01*
X132210092Y-155121090D01*
X132210089Y-155121092D01*
X132033658Y-155297523D01*
X131660911Y-155371667D01*
X131197959Y-155681002D01*
X130888624Y-156143954D01*
X130780000Y-156690043D01*
X130780000Y-156745957D01*
X130888624Y-157292046D01*
X131197959Y-157754998D01*
X131660911Y-158064333D01*
X132207000Y-158172957D01*
X132753089Y-158064333D01*
X133216041Y-157754998D01*
X133525376Y-157292046D01*
X133599520Y-156919299D01*
X133803908Y-156714911D01*
X133803910Y-156714908D01*
X136127910Y-154390908D01*
X136372213Y-154025283D01*
X136399918Y-153886000D01*
X136458001Y-153593999D01*
X136458001Y-153350913D01*
X136641691Y-153427000D01*
X137382250Y-153427000D01*
X137541000Y-153268250D01*
X137541000Y-152019000D01*
X137521000Y-152019000D01*
X137521000Y-151765000D01*
X137541000Y-151765000D01*
X137541000Y-151745000D01*
X137795000Y-151745000D01*
X137795000Y-151765000D01*
X137815000Y-151765000D01*
X137815000Y-152019000D01*
X137795000Y-152019000D01*
X137795000Y-153268250D01*
X137953750Y-153427000D01*
X138179180Y-153427000D01*
X131410091Y-160196089D01*
X131165788Y-160561714D01*
X131080000Y-160992998D01*
X131080000Y-163446710D01*
X130997953Y-163528614D01*
X130780248Y-164052907D01*
X130779752Y-164620603D01*
X130996543Y-165145275D01*
X131397614Y-165547047D01*
X131921907Y-165764752D01*
X132489603Y-165765248D01*
X132580001Y-165727896D01*
X132580001Y-165800180D01*
X132229464Y-166150717D01*
X131484000Y-166150717D01*
X131251648Y-166194437D01*
X131038247Y-166331757D01*
X130895083Y-166541283D01*
X130844717Y-166790000D01*
X130844717Y-168490000D01*
X130888437Y-168722352D01*
X131025757Y-168935753D01*
X131235283Y-169078917D01*
X131319869Y-169096046D01*
X131260667Y-169135603D01*
X130940494Y-169614777D01*
X130828064Y-170180000D01*
X130940494Y-170745223D01*
X131260667Y-171224397D01*
X131739841Y-171544570D01*
X132305064Y-171657000D01*
X132362936Y-171657000D01*
X132928159Y-171544570D01*
X133283709Y-171307000D01*
X133536081Y-171307000D01*
X133967365Y-171221212D01*
X134332990Y-170976909D01*
X135906000Y-169403899D01*
X135906000Y-173435665D01*
X135844083Y-173526283D01*
X135793717Y-173775000D01*
X135793717Y-175475000D01*
X135837437Y-175707352D01*
X135974757Y-175920753D01*
X136184283Y-176063917D01*
X136433000Y-176114283D01*
X137633000Y-176114283D01*
X137865352Y-176070563D01*
X138078753Y-175933243D01*
X138181754Y-175782497D01*
X138563447Y-176037536D01*
X139033000Y-176130936D01*
X139502553Y-176037536D01*
X139900620Y-175771556D01*
X140033000Y-175573435D01*
X140165380Y-175771556D01*
X140563447Y-176037536D01*
X141033000Y-176130936D01*
X141502553Y-176037536D01*
X141900620Y-175771556D01*
X142033000Y-175573435D01*
X142165380Y-175771556D01*
X142563447Y-176037536D01*
X143033000Y-176130936D01*
X143502553Y-176037536D01*
X143900620Y-175771556D01*
X144166600Y-175373489D01*
X144260000Y-174903936D01*
X144260000Y-174346064D01*
X144166600Y-173876511D01*
X144160000Y-173866633D01*
X144160000Y-168905737D01*
X146752842Y-166312895D01*
X146843939Y-166373764D01*
X146692642Y-166444817D01*
X146302355Y-166873076D01*
X146132524Y-167283110D01*
X146253845Y-167513000D01*
X147447000Y-167513000D01*
X147447000Y-167493000D01*
X147701000Y-167493000D01*
X147701000Y-167513000D01*
X147721000Y-167513000D01*
X147721000Y-167767000D01*
X147701000Y-167767000D01*
X147701000Y-167787000D01*
X147447000Y-167787000D01*
X147447000Y-167767000D01*
X146253845Y-167767000D01*
X146132524Y-167996890D01*
X146302355Y-168406924D01*
X146692642Y-168835183D01*
X146843939Y-168906236D01*
X146500667Y-169135603D01*
X146180494Y-169614777D01*
X146068064Y-170180000D01*
X146180494Y-170745223D01*
X146500667Y-171224397D01*
X146838307Y-171450000D01*
X146500667Y-171675603D01*
X146180494Y-172154777D01*
X146068064Y-172720000D01*
X146180494Y-173285223D01*
X146500667Y-173764397D01*
X146838307Y-173990000D01*
X146500667Y-174215603D01*
X146180494Y-174694777D01*
X146089885Y-175150297D01*
X145927094Y-175313088D01*
X145927091Y-175313090D01*
X145227090Y-176013092D01*
X144982787Y-176378717D01*
X144896999Y-176810001D01*
X144896999Y-178544001D01*
X144982787Y-178975285D01*
X145227090Y-179340910D01*
X146033090Y-180146910D01*
X146398715Y-180391213D01*
X146829999Y-180477001D01*
X148318001Y-180477001D01*
X148749285Y-180391213D01*
X149114910Y-180146910D01*
X151602919Y-177658901D01*
X151847222Y-177293276D01*
X151858858Y-177234777D01*
X151933010Y-176861992D01*
X151933010Y-173952000D01*
X156040717Y-173952000D01*
X156040717Y-175552000D01*
X156084437Y-175784352D01*
X156221757Y-175997753D01*
X156431283Y-176140917D01*
X156680000Y-176191283D01*
X158280000Y-176191283D01*
X158512352Y-176147563D01*
X158725753Y-176010243D01*
X158868917Y-175800717D01*
X158903774Y-175628585D01*
X159010959Y-175788998D01*
X159473911Y-176098333D01*
X160020000Y-176206957D01*
X160566089Y-176098333D01*
X161029041Y-175788998D01*
X161290000Y-175398446D01*
X161550959Y-175788998D01*
X162013911Y-176098333D01*
X162560000Y-176206957D01*
X163106089Y-176098333D01*
X163569041Y-175788998D01*
X163878376Y-175326046D01*
X163987000Y-174779957D01*
X163987000Y-174724043D01*
X163878376Y-174177954D01*
X163569041Y-173715002D01*
X163106089Y-173405667D01*
X162560000Y-173297043D01*
X162013911Y-173405667D01*
X161550959Y-173715002D01*
X161290000Y-174105554D01*
X161029041Y-173715002D01*
X160566089Y-173405667D01*
X160020000Y-173297043D01*
X159473911Y-173405667D01*
X159010959Y-173715002D01*
X158904631Y-173874133D01*
X158875563Y-173719648D01*
X158738243Y-173506247D01*
X158528717Y-173363083D01*
X158280000Y-173312717D01*
X156680000Y-173312717D01*
X156447648Y-173356437D01*
X156234247Y-173493757D01*
X156091083Y-173703283D01*
X156040717Y-173952000D01*
X151933010Y-173952000D01*
X151933010Y-173348948D01*
X155370945Y-169911014D01*
X155615248Y-169545389D01*
X155658091Y-169330001D01*
X155701036Y-169114104D01*
X155701037Y-161321942D01*
X155993223Y-161426965D01*
X156563454Y-161399778D01*
X156964005Y-161233864D01*
X157038139Y-160987745D01*
X156210000Y-160159605D01*
X156195858Y-160173748D01*
X156016253Y-159994143D01*
X156030395Y-159980000D01*
X156389605Y-159980000D01*
X157217745Y-160808139D01*
X157463864Y-160734005D01*
X157656965Y-160196777D01*
X157629778Y-159626546D01*
X157463864Y-159225995D01*
X157217745Y-159151861D01*
X156389605Y-159980000D01*
X156030395Y-159980000D01*
X156016253Y-159965858D01*
X156195858Y-159786252D01*
X156210000Y-159800395D01*
X157038139Y-158972255D01*
X156964005Y-158726136D01*
X156946315Y-158719777D01*
X157017275Y-158690457D01*
X157100878Y-158607000D01*
X157833690Y-158607000D01*
X157845757Y-158625753D01*
X158055283Y-158768917D01*
X158149147Y-158787925D01*
X157937236Y-158977337D01*
X157711273Y-159446669D01*
X157833794Y-159653000D01*
X158877000Y-159653000D01*
X158877000Y-159633000D01*
X159131000Y-159633000D01*
X159131000Y-159653000D01*
X160174206Y-159653000D01*
X160296727Y-159446669D01*
X160070764Y-158977337D01*
X159860905Y-158789759D01*
X159936352Y-158775563D01*
X160149753Y-158638243D01*
X160292917Y-158428717D01*
X160343283Y-158180000D01*
X160343283Y-157689725D01*
X160385000Y-157480000D01*
X160343283Y-157270275D01*
X160343283Y-156780000D01*
X160299563Y-156547648D01*
X160162243Y-156334247D01*
X159952717Y-156191083D01*
X159704000Y-156140717D01*
X158959725Y-156140717D01*
X158750000Y-156099000D01*
X158540275Y-156140717D01*
X158304000Y-156140717D01*
X158071648Y-156184437D01*
X157858247Y-156321757D01*
X157836899Y-156353000D01*
X157337000Y-156353000D01*
X157337000Y-155658378D01*
X160116563Y-152878815D01*
X160124222Y-153039454D01*
X160290039Y-153439770D01*
X160155083Y-153637283D01*
X160104717Y-153886000D01*
X160104717Y-155486000D01*
X160148437Y-155718352D01*
X160285757Y-155931753D01*
X160495283Y-156074917D01*
X160744000Y-156125283D01*
X161502990Y-156125283D01*
X161502990Y-159056122D01*
X160158333Y-160400779D01*
X160296727Y-160113331D01*
X160174206Y-159907000D01*
X159131000Y-159907000D01*
X159131000Y-159927000D01*
X158877000Y-159927000D01*
X158877000Y-159907000D01*
X157833794Y-159907000D01*
X157711273Y-160113331D01*
X157937236Y-160582663D01*
X158325604Y-160929797D01*
X158336869Y-160934463D01*
X158065669Y-161115672D01*
X157778012Y-161546182D01*
X157736797Y-161753384D01*
X156683091Y-162807091D01*
X156438788Y-163172716D01*
X156353000Y-163604000D01*
X156353000Y-163731540D01*
X156161624Y-164017954D01*
X156053000Y-164564043D01*
X156053000Y-164619957D01*
X156161624Y-165166046D01*
X156470959Y-165628998D01*
X156933911Y-165938333D01*
X157480000Y-166046957D01*
X158026089Y-165938333D01*
X158489041Y-165628998D01*
X158750000Y-165238446D01*
X159010959Y-165628998D01*
X159473911Y-165938333D01*
X160020000Y-166046957D01*
X160566089Y-165938333D01*
X161029041Y-165628998D01*
X161301030Y-165221938D01*
X161407611Y-165447134D01*
X161822577Y-165823041D01*
X162210961Y-165983904D01*
X162433000Y-165861915D01*
X162433000Y-164719000D01*
X162687000Y-164719000D01*
X162687000Y-165861915D01*
X162909039Y-165983904D01*
X163297423Y-165823041D01*
X163712389Y-165447134D01*
X163951914Y-164941041D01*
X163830629Y-164719000D01*
X162687000Y-164719000D01*
X162433000Y-164719000D01*
X162413000Y-164719000D01*
X162413000Y-164465000D01*
X162433000Y-164465000D01*
X162433000Y-164445000D01*
X162687000Y-164445000D01*
X162687000Y-164465000D01*
X163830629Y-164465000D01*
X163951914Y-164242959D01*
X163712389Y-163736866D01*
X163297423Y-163360959D01*
X162977406Y-163228412D01*
X164398000Y-161807818D01*
X164398000Y-177147531D01*
X164068169Y-176817124D01*
X163091228Y-176411462D01*
X162033413Y-176410539D01*
X161055765Y-176814495D01*
X160307124Y-177561831D01*
X159901462Y-178538772D01*
X159900539Y-179596587D01*
X160304495Y-180574235D01*
X160637678Y-180908000D01*
X134002469Y-180908000D01*
X134332876Y-180578169D01*
X134738538Y-179601228D01*
X134739461Y-178543413D01*
X134335505Y-177565765D01*
X133588169Y-176817124D01*
X132611228Y-176411462D01*
X131553413Y-176410539D01*
X130575765Y-176814495D01*
X130242000Y-177147678D01*
X130242000Y-153427000D01*
X130905250Y-153427000D01*
X131064000Y-153268250D01*
X131064000Y-152019000D01*
X131044000Y-152019000D01*
X131044000Y-151765000D01*
X131064000Y-151765000D01*
X131064000Y-150515750D01*
X130905250Y-150357000D01*
X130242000Y-150357000D01*
X130242000Y-139523223D01*
X134697035Y-139523223D01*
X134724222Y-140093454D01*
X134890136Y-140494005D01*
X135136255Y-140568139D01*
X135964395Y-139740000D01*
X136323605Y-139740000D01*
X137151745Y-140568139D01*
X137397864Y-140494005D01*
X137590965Y-139956777D01*
X137563778Y-139386546D01*
X137397864Y-138985995D01*
X137151745Y-138911861D01*
X136323605Y-139740000D01*
X135964395Y-139740000D01*
X135136255Y-138911861D01*
X134890136Y-138985995D01*
X134697035Y-139523223D01*
X130242000Y-139523223D01*
X130242000Y-130777609D01*
X132160538Y-130777609D01*
X132175714Y-130869376D01*
X132422067Y-131289125D01*
X132810299Y-131582647D01*
X133281304Y-131705256D01*
X133477000Y-131542547D01*
X133477000Y-130587000D01*
X132285269Y-130587000D01*
X132160538Y-130777609D01*
X130242000Y-130777609D01*
X130242000Y-120535461D01*
X130252092Y-120535461D01*
X130276144Y-121185460D01*
X130478613Y-121674264D01*
X130745468Y-121772927D01*
X131718395Y-120800000D01*
X130745468Y-119827073D01*
X130478613Y-119925736D01*
X130252092Y-120535461D01*
X130242000Y-120535461D01*
X130242000Y-115452532D01*
X130925073Y-115452532D01*
X131023736Y-115719387D01*
X131633461Y-115945908D01*
X132283460Y-115921856D01*
X132772264Y-115719387D01*
X132870927Y-115452532D01*
X131898000Y-114479605D01*
X130925073Y-115452532D01*
X130242000Y-115452532D01*
X130242000Y-114035461D01*
X130252092Y-114035461D01*
X130276144Y-114685460D01*
X130478613Y-115174264D01*
X130745468Y-115272927D01*
X131718395Y-114300000D01*
X132077605Y-114300000D01*
X133050532Y-115272927D01*
X133317387Y-115174264D01*
X133543908Y-114564539D01*
X133519856Y-113914540D01*
X133317387Y-113425736D01*
X133050532Y-113327073D01*
X132077605Y-114300000D01*
X131718395Y-114300000D01*
X130745468Y-113327073D01*
X130478613Y-113425736D01*
X130252092Y-114035461D01*
X130242000Y-114035461D01*
X130242000Y-113147468D01*
X130925073Y-113147468D01*
X131898000Y-114120395D01*
X132870927Y-113147468D01*
X132772264Y-112880613D01*
X132162539Y-112654092D01*
X131512540Y-112678144D01*
X131023736Y-112880613D01*
X130925073Y-113147468D01*
X130242000Y-113147468D01*
X130242000Y-109872469D01*
X130571831Y-110202876D01*
X131548772Y-110608538D01*
X132606587Y-110609461D01*
X133584235Y-110205505D01*
X134332876Y-109458169D01*
X134738538Y-108481228D01*
X134738634Y-108370690D01*
X146974000Y-108370690D01*
X146974000Y-109061250D01*
X147132750Y-109220000D01*
X148082000Y-109220000D01*
X148082000Y-108020750D01*
X147923250Y-107862000D01*
X147482691Y-107862000D01*
X147249302Y-107958673D01*
X147070673Y-108137301D01*
X146974000Y-108370690D01*
X134738634Y-108370690D01*
X134739461Y-107423413D01*
X134335505Y-106445765D01*
X134002322Y-106112000D01*
X160637531Y-106112000D01*
X160307124Y-106441831D01*
X160307124Y-106441831D01*
G37*
X160307124Y-106441831D02*
X159901462Y-107418772D01*
X159900539Y-108476587D01*
X160304495Y-109454235D01*
X161051831Y-110202876D01*
X161725708Y-110482695D01*
X161623008Y-110633000D01*
X159138132Y-110633000D01*
X159197698Y-110608327D01*
X159376327Y-110429699D01*
X159473000Y-110196310D01*
X159473000Y-109505750D01*
X159314250Y-109347000D01*
X158115000Y-109347000D01*
X158115000Y-109367000D01*
X157861000Y-109367000D01*
X157861000Y-109347000D01*
X157841000Y-109347000D01*
X157841000Y-109093000D01*
X157861000Y-109093000D01*
X157861000Y-107893750D01*
X158115000Y-107893750D01*
X158115000Y-109093000D01*
X159314250Y-109093000D01*
X159473000Y-108934250D01*
X159473000Y-108243690D01*
X159376327Y-108010301D01*
X159197698Y-107831673D01*
X158964309Y-107735000D01*
X158273750Y-107735000D01*
X158115000Y-107893750D01*
X157861000Y-107893750D01*
X157702250Y-107735000D01*
X157011691Y-107735000D01*
X156778302Y-107831673D01*
X156599673Y-108010301D01*
X156586475Y-108042165D01*
X155544390Y-107000081D01*
X155178765Y-106755778D01*
X154747481Y-106669990D01*
X151509010Y-106669990D01*
X151077726Y-106755778D01*
X150712101Y-107000080D01*
X149787220Y-107924961D01*
X149739447Y-107934464D01*
X149366523Y-108183644D01*
X149347327Y-108137301D01*
X149168698Y-107958673D01*
X148935309Y-107862000D01*
X148494750Y-107862000D01*
X148336000Y-108020750D01*
X148336000Y-109220000D01*
X148356000Y-109220000D01*
X148356000Y-109474000D01*
X148336000Y-109474000D01*
X148336000Y-110673250D01*
X148494750Y-110832000D01*
X148935309Y-110832000D01*
X149082000Y-110771239D01*
X149082000Y-112951590D01*
X149022717Y-112911083D01*
X148774000Y-112860717D01*
X146374000Y-112860717D01*
X146184395Y-112896394D01*
X146132717Y-112861083D01*
X145884000Y-112810717D01*
X145138536Y-112810717D01*
X145015427Y-112687608D01*
X145347454Y-112671778D01*
X145748005Y-112505864D01*
X145822139Y-112259745D01*
X144994000Y-111431605D01*
X144979858Y-111445748D01*
X144800252Y-111266142D01*
X144814395Y-111252000D01*
X145173605Y-111252000D01*
X146001745Y-112080139D01*
X146247864Y-112006005D01*
X146440965Y-111468777D01*
X146413778Y-110898546D01*
X146247864Y-110497995D01*
X146001745Y-110423861D01*
X145173605Y-111252000D01*
X144814395Y-111252000D01*
X143986255Y-110423861D01*
X143740136Y-110497995D01*
X143733777Y-110515685D01*
X143704457Y-110444725D01*
X143504337Y-110244255D01*
X144165861Y-110244255D01*
X144994000Y-111072395D01*
X145822139Y-110244255D01*
X145748005Y-109998136D01*
X145210777Y-109805035D01*
X144640546Y-109832222D01*
X144239995Y-109998136D01*
X144165861Y-110244255D01*
X143504337Y-110244255D01*
X143303386Y-110042953D01*
X142779093Y-109825248D01*
X142660963Y-109825145D01*
X142528909Y-109693091D01*
X142438603Y-109632750D01*
X146974000Y-109632750D01*
X146974000Y-110323310D01*
X147070673Y-110556699D01*
X147249302Y-110735327D01*
X147482691Y-110832000D01*
X147923250Y-110832000D01*
X148082000Y-110673250D01*
X148082000Y-109474000D01*
X147132750Y-109474000D01*
X146974000Y-109632750D01*
X142438603Y-109632750D01*
X142163284Y-109448788D01*
X141732000Y-109363000D01*
X140828344Y-109363000D01*
X140500089Y-109143667D01*
X139954000Y-109035043D01*
X139407911Y-109143667D01*
X138944959Y-109453002D01*
X138635624Y-109915954D01*
X138561480Y-110288701D01*
X136177375Y-112672807D01*
X136075789Y-112672718D01*
X135477582Y-112919892D01*
X135019501Y-113377175D01*
X134771283Y-113974950D01*
X134770718Y-114622211D01*
X135017892Y-115220418D01*
X135475175Y-115678499D01*
X136072950Y-115926717D01*
X136625910Y-115927200D01*
X133002565Y-119550545D01*
X132985206Y-119533186D01*
X132870926Y-119647466D01*
X132772264Y-119380613D01*
X132162539Y-119154092D01*
X131512540Y-119178144D01*
X131023736Y-119380613D01*
X130925073Y-119647468D01*
X131898000Y-120620395D01*
X131912143Y-120606253D01*
X132091748Y-120785858D01*
X132077605Y-120800000D01*
X132091748Y-120814143D01*
X131912143Y-120993748D01*
X131898000Y-120979605D01*
X130925073Y-121952532D01*
X131023736Y-122219387D01*
X131400733Y-122359447D01*
X131257090Y-122503090D01*
X131012787Y-122868715D01*
X130926999Y-123299999D01*
X130926999Y-126207051D01*
X131012787Y-126638335D01*
X131257090Y-127003960D01*
X131510039Y-127256909D01*
X131875664Y-127501212D01*
X132306948Y-127587000D01*
X132465496Y-127587000D01*
X132457444Y-127592380D01*
X132191464Y-127990447D01*
X132098064Y-128460000D01*
X132191464Y-128929553D01*
X132457444Y-129327620D01*
X132651590Y-129457344D01*
X132422067Y-129630875D01*
X132175714Y-130050624D01*
X132160538Y-130142391D01*
X132285269Y-130333000D01*
X133477000Y-130333000D01*
X133477000Y-130313000D01*
X133731000Y-130313000D01*
X133731000Y-130333000D01*
X133751000Y-130333000D01*
X133751000Y-130587000D01*
X133731000Y-130587000D01*
X133731000Y-131542547D01*
X133778304Y-131581878D01*
X132807091Y-132553091D01*
X132562788Y-132918716D01*
X132477000Y-133350000D01*
X132477000Y-133759540D01*
X132285624Y-134045954D01*
X132177000Y-134592043D01*
X132177000Y-134647957D01*
X132285624Y-135194046D01*
X132594959Y-135656998D01*
X133057911Y-135966333D01*
X133604000Y-136074957D01*
X134150089Y-135966333D01*
X134613041Y-135656998D01*
X134846230Y-135308007D01*
X134890136Y-135414005D01*
X135136255Y-135488139D01*
X135964395Y-134660000D01*
X136323605Y-134660000D01*
X137151745Y-135488139D01*
X137397864Y-135414005D01*
X137590965Y-134876777D01*
X137563778Y-134306546D01*
X137397864Y-133905995D01*
X137151745Y-133831861D01*
X136323605Y-134660000D01*
X135964395Y-134660000D01*
X135136255Y-133831861D01*
X134890136Y-133905995D01*
X134868702Y-133965626D01*
X134753942Y-133793876D01*
X134895563Y-133652255D01*
X135315861Y-133652255D01*
X136144000Y-134480395D01*
X136972139Y-133652255D01*
X136898005Y-133406136D01*
X136360777Y-133213035D01*
X135790546Y-133240222D01*
X135389995Y-133406136D01*
X135315861Y-133652255D01*
X134895563Y-133652255D01*
X135500073Y-133047745D01*
X136585861Y-133047745D01*
X136659995Y-133293864D01*
X137197223Y-133486965D01*
X137767454Y-133459778D01*
X138168005Y-133293864D01*
X138242139Y-133047745D01*
X137414000Y-132219605D01*
X136585861Y-133047745D01*
X135500073Y-133047745D01*
X136041127Y-132506692D01*
X136160136Y-132794005D01*
X136406255Y-132868139D01*
X137234395Y-132040000D01*
X137220253Y-132025858D01*
X137399858Y-131846253D01*
X137414000Y-131860395D01*
X138242139Y-131032255D01*
X138168005Y-130786136D01*
X138150315Y-130779777D01*
X138221275Y-130750457D01*
X138304878Y-130667000D01*
X139004291Y-130667000D01*
X139223939Y-130813764D01*
X139072642Y-130884817D01*
X138682355Y-131313076D01*
X138680718Y-131317028D01*
X138667864Y-131285995D01*
X138421745Y-131211861D01*
X137593605Y-132040000D01*
X138421745Y-132868139D01*
X138661260Y-132795994D01*
X138682355Y-132846924D01*
X139072642Y-133275183D01*
X139597108Y-133521486D01*
X139827000Y-133400819D01*
X139827000Y-132207000D01*
X139807000Y-132207000D01*
X139807000Y-131953000D01*
X139827000Y-131953000D01*
X139827000Y-131933000D01*
X140081000Y-131933000D01*
X140081000Y-131953000D01*
X140101000Y-131953000D01*
X140101000Y-132207000D01*
X140081000Y-132207000D01*
X140081000Y-133400819D01*
X140310892Y-133521486D01*
X140835358Y-133275183D01*
X141042629Y-133047745D01*
X141665861Y-133047745D01*
X141739995Y-133293864D01*
X142277223Y-133486965D01*
X142847454Y-133459778D01*
X143248005Y-133293864D01*
X143322139Y-133047745D01*
X142494000Y-132219605D01*
X141665861Y-133047745D01*
X141042629Y-133047745D01*
X141225645Y-132846924D01*
X141246740Y-132795994D01*
X141486255Y-132868139D01*
X142314395Y-132040000D01*
X141486255Y-131211861D01*
X141240136Y-131285995D01*
X141228192Y-131319225D01*
X141225645Y-131313076D01*
X140835358Y-130884817D01*
X140684061Y-130813764D01*
X140903709Y-130667000D01*
X141602710Y-130667000D01*
X141684614Y-130749047D01*
X141756986Y-130779098D01*
X141739995Y-130786136D01*
X141665861Y-131032255D01*
X142494000Y-131860395D01*
X143322139Y-131032255D01*
X143248005Y-130786136D01*
X143230315Y-130779777D01*
X143301275Y-130750457D01*
X143384878Y-130667000D01*
X144084291Y-130667000D01*
X144303939Y-130813764D01*
X144152642Y-130884817D01*
X143762355Y-131313076D01*
X143760718Y-131317028D01*
X143747864Y-131285995D01*
X143501745Y-131211861D01*
X142673605Y-132040000D01*
X143501745Y-132868139D01*
X143741260Y-132795994D01*
X143762355Y-132846924D01*
X144152642Y-133275183D01*
X144616451Y-133493000D01*
X142494000Y-133493000D01*
X142134270Y-133564555D01*
X142062715Y-133578788D01*
X141697090Y-133823091D01*
X139737371Y-135782811D01*
X139681299Y-135782762D01*
X139175011Y-135991956D01*
X139133895Y-136033000D01*
X137035290Y-136033000D01*
X136953386Y-135950953D01*
X136881014Y-135920902D01*
X136898005Y-135913864D01*
X136972139Y-135667745D01*
X136144000Y-134839605D01*
X135315861Y-135667745D01*
X135389995Y-135913864D01*
X135407685Y-135920223D01*
X135336725Y-135949543D01*
X134934953Y-136350614D01*
X134717248Y-136874907D01*
X134716752Y-137442603D01*
X134933543Y-137967275D01*
X135334614Y-138369047D01*
X135503435Y-138439147D01*
X135389995Y-138486136D01*
X135315861Y-138732255D01*
X136144000Y-139560395D01*
X136972139Y-138732255D01*
X136898005Y-138486136D01*
X136776773Y-138442560D01*
X136951275Y-138370457D01*
X137034878Y-138287000D01*
X139133360Y-138287000D01*
X139172974Y-138326683D01*
X139678896Y-138536760D01*
X140226701Y-138537238D01*
X140732989Y-138328044D01*
X141120683Y-137941026D01*
X141330760Y-137435104D01*
X141330811Y-137377008D01*
X142960819Y-135747000D01*
X146305704Y-135747000D01*
X146519718Y-135890000D01*
X146305704Y-136033000D01*
X144834000Y-136033000D01*
X144418728Y-136115603D01*
X144402716Y-136118788D01*
X144037091Y-136363091D01*
X139737371Y-140662811D01*
X139681299Y-140662762D01*
X139175011Y-140871956D01*
X138933546Y-141113000D01*
X137035290Y-141113000D01*
X136953386Y-141030953D01*
X136881014Y-141000902D01*
X136898005Y-140993864D01*
X136972139Y-140747745D01*
X136144000Y-139919605D01*
X135315861Y-140747745D01*
X135389995Y-140993864D01*
X135407685Y-141000223D01*
X135336725Y-141029543D01*
X134934953Y-141430614D01*
X134874119Y-141577118D01*
X134814457Y-141432725D01*
X134413386Y-141030953D01*
X133889093Y-140813248D01*
X133321397Y-140812752D01*
X132796725Y-141029543D01*
X132394953Y-141430614D01*
X132177248Y-141954907D01*
X132176752Y-142522603D01*
X132393543Y-143047275D01*
X132477000Y-143130878D01*
X132477000Y-150479975D01*
X132450698Y-150453673D01*
X132217309Y-150357000D01*
X131476750Y-150357000D01*
X131318000Y-150515750D01*
X131318000Y-151765000D01*
X131338000Y-151765000D01*
X131338000Y-152019000D01*
X131318000Y-152019000D01*
X131318000Y-153268250D01*
X131476750Y-153427000D01*
X132217309Y-153427000D01*
X132450698Y-153330327D01*
X132629327Y-153151699D01*
X132688433Y-153009004D01*
X132864894Y-153185773D01*
X133425928Y-153418735D01*
X133912023Y-153419159D01*
X132210092Y-155121090D01*
X132210089Y-155121092D01*
X132033658Y-155297523D01*
X131660911Y-155371667D01*
X131197959Y-155681002D01*
X130888624Y-156143954D01*
X130780000Y-156690043D01*
X130780000Y-156745957D01*
X130888624Y-157292046D01*
X131197959Y-157754998D01*
X131660911Y-158064333D01*
X132207000Y-158172957D01*
X132753089Y-158064333D01*
X133216041Y-157754998D01*
X133525376Y-157292046D01*
X133599520Y-156919299D01*
X133803908Y-156714911D01*
X133803910Y-156714908D01*
X136127910Y-154390908D01*
X136372213Y-154025283D01*
X136399918Y-153886000D01*
X136458001Y-153593999D01*
X136458001Y-153350913D01*
X136641691Y-153427000D01*
X137382250Y-153427000D01*
X137541000Y-153268250D01*
X137541000Y-152019000D01*
X137521000Y-152019000D01*
X137521000Y-151765000D01*
X137541000Y-151765000D01*
X137541000Y-151745000D01*
X137795000Y-151745000D01*
X137795000Y-151765000D01*
X137815000Y-151765000D01*
X137815000Y-152019000D01*
X137795000Y-152019000D01*
X137795000Y-153268250D01*
X137953750Y-153427000D01*
X138179180Y-153427000D01*
X131410091Y-160196089D01*
X131165788Y-160561714D01*
X131080000Y-160992998D01*
X131080000Y-163446710D01*
X130997953Y-163528614D01*
X130780248Y-164052907D01*
X130779752Y-164620603D01*
X130996543Y-165145275D01*
X131397614Y-165547047D01*
X131921907Y-165764752D01*
X132489603Y-165765248D01*
X132580001Y-165727896D01*
X132580001Y-165800180D01*
X132229464Y-166150717D01*
X131484000Y-166150717D01*
X131251648Y-166194437D01*
X131038247Y-166331757D01*
X130895083Y-166541283D01*
X130844717Y-166790000D01*
X130844717Y-168490000D01*
X130888437Y-168722352D01*
X131025757Y-168935753D01*
X131235283Y-169078917D01*
X131319869Y-169096046D01*
X131260667Y-169135603D01*
X130940494Y-169614777D01*
X130828064Y-170180000D01*
X130940494Y-170745223D01*
X131260667Y-171224397D01*
X131739841Y-171544570D01*
X132305064Y-171657000D01*
X132362936Y-171657000D01*
X132928159Y-171544570D01*
X133283709Y-171307000D01*
X133536081Y-171307000D01*
X133967365Y-171221212D01*
X134332990Y-170976909D01*
X135906000Y-169403899D01*
X135906000Y-173435665D01*
X135844083Y-173526283D01*
X135793717Y-173775000D01*
X135793717Y-175475000D01*
X135837437Y-175707352D01*
X135974757Y-175920753D01*
X136184283Y-176063917D01*
X136433000Y-176114283D01*
X137633000Y-176114283D01*
X137865352Y-176070563D01*
X138078753Y-175933243D01*
X138181754Y-175782497D01*
X138563447Y-176037536D01*
X139033000Y-176130936D01*
X139502553Y-176037536D01*
X139900620Y-175771556D01*
X140033000Y-175573435D01*
X140165380Y-175771556D01*
X140563447Y-176037536D01*
X141033000Y-176130936D01*
X141502553Y-176037536D01*
X141900620Y-175771556D01*
X142033000Y-175573435D01*
X142165380Y-175771556D01*
X142563447Y-176037536D01*
X143033000Y-176130936D01*
X143502553Y-176037536D01*
X143900620Y-175771556D01*
X144166600Y-175373489D01*
X144260000Y-174903936D01*
X144260000Y-174346064D01*
X144166600Y-173876511D01*
X144160000Y-173866633D01*
X144160000Y-168905737D01*
X146752842Y-166312895D01*
X146843939Y-166373764D01*
X146692642Y-166444817D01*
X146302355Y-166873076D01*
X146132524Y-167283110D01*
X146253845Y-167513000D01*
X147447000Y-167513000D01*
X147447000Y-167493000D01*
X147701000Y-167493000D01*
X147701000Y-167513000D01*
X147721000Y-167513000D01*
X147721000Y-167767000D01*
X147701000Y-167767000D01*
X147701000Y-167787000D01*
X147447000Y-167787000D01*
X147447000Y-167767000D01*
X146253845Y-167767000D01*
X146132524Y-167996890D01*
X146302355Y-168406924D01*
X146692642Y-168835183D01*
X146843939Y-168906236D01*
X146500667Y-169135603D01*
X146180494Y-169614777D01*
X146068064Y-170180000D01*
X146180494Y-170745223D01*
X146500667Y-171224397D01*
X146838307Y-171450000D01*
X146500667Y-171675603D01*
X146180494Y-172154777D01*
X146068064Y-172720000D01*
X146180494Y-173285223D01*
X146500667Y-173764397D01*
X146838307Y-173990000D01*
X146500667Y-174215603D01*
X146180494Y-174694777D01*
X146089885Y-175150297D01*
X145927094Y-175313088D01*
X145927091Y-175313090D01*
X145227090Y-176013092D01*
X144982787Y-176378717D01*
X144896999Y-176810001D01*
X144896999Y-178544001D01*
X144982787Y-178975285D01*
X145227090Y-179340910D01*
X146033090Y-180146910D01*
X146398715Y-180391213D01*
X146829999Y-180477001D01*
X148318001Y-180477001D01*
X148749285Y-180391213D01*
X149114910Y-180146910D01*
X151602919Y-177658901D01*
X151847222Y-177293276D01*
X151858858Y-177234777D01*
X151933010Y-176861992D01*
X151933010Y-173952000D01*
X156040717Y-173952000D01*
X156040717Y-175552000D01*
X156084437Y-175784352D01*
X156221757Y-175997753D01*
X156431283Y-176140917D01*
X156680000Y-176191283D01*
X158280000Y-176191283D01*
X158512352Y-176147563D01*
X158725753Y-176010243D01*
X158868917Y-175800717D01*
X158903774Y-175628585D01*
X159010959Y-175788998D01*
X159473911Y-176098333D01*
X160020000Y-176206957D01*
X160566089Y-176098333D01*
X161029041Y-175788998D01*
X161290000Y-175398446D01*
X161550959Y-175788998D01*
X162013911Y-176098333D01*
X162560000Y-176206957D01*
X163106089Y-176098333D01*
X163569041Y-175788998D01*
X163878376Y-175326046D01*
X163987000Y-174779957D01*
X163987000Y-174724043D01*
X163878376Y-174177954D01*
X163569041Y-173715002D01*
X163106089Y-173405667D01*
X162560000Y-173297043D01*
X162013911Y-173405667D01*
X161550959Y-173715002D01*
X161290000Y-174105554D01*
X161029041Y-173715002D01*
X160566089Y-173405667D01*
X160020000Y-173297043D01*
X159473911Y-173405667D01*
X159010959Y-173715002D01*
X158904631Y-173874133D01*
X158875563Y-173719648D01*
X158738243Y-173506247D01*
X158528717Y-173363083D01*
X158280000Y-173312717D01*
X156680000Y-173312717D01*
X156447648Y-173356437D01*
X156234247Y-173493757D01*
X156091083Y-173703283D01*
X156040717Y-173952000D01*
X151933010Y-173952000D01*
X151933010Y-173348948D01*
X155370945Y-169911014D01*
X155615248Y-169545389D01*
X155658091Y-169330001D01*
X155701036Y-169114104D01*
X155701037Y-161321942D01*
X155993223Y-161426965D01*
X156563454Y-161399778D01*
X156964005Y-161233864D01*
X157038139Y-160987745D01*
X156210000Y-160159605D01*
X156195858Y-160173748D01*
X156016253Y-159994143D01*
X156030395Y-159980000D01*
X156389605Y-159980000D01*
X157217745Y-160808139D01*
X157463864Y-160734005D01*
X157656965Y-160196777D01*
X157629778Y-159626546D01*
X157463864Y-159225995D01*
X157217745Y-159151861D01*
X156389605Y-159980000D01*
X156030395Y-159980000D01*
X156016253Y-159965858D01*
X156195858Y-159786252D01*
X156210000Y-159800395D01*
X157038139Y-158972255D01*
X156964005Y-158726136D01*
X156946315Y-158719777D01*
X157017275Y-158690457D01*
X157100878Y-158607000D01*
X157833690Y-158607000D01*
X157845757Y-158625753D01*
X158055283Y-158768917D01*
X158149147Y-158787925D01*
X157937236Y-158977337D01*
X157711273Y-159446669D01*
X157833794Y-159653000D01*
X158877000Y-159653000D01*
X158877000Y-159633000D01*
X159131000Y-159633000D01*
X159131000Y-159653000D01*
X160174206Y-159653000D01*
X160296727Y-159446669D01*
X160070764Y-158977337D01*
X159860905Y-158789759D01*
X159936352Y-158775563D01*
X160149753Y-158638243D01*
X160292917Y-158428717D01*
X160343283Y-158180000D01*
X160343283Y-157689725D01*
X160385000Y-157480000D01*
X160343283Y-157270275D01*
X160343283Y-156780000D01*
X160299563Y-156547648D01*
X160162243Y-156334247D01*
X159952717Y-156191083D01*
X159704000Y-156140717D01*
X158959725Y-156140717D01*
X158750000Y-156099000D01*
X158540275Y-156140717D01*
X158304000Y-156140717D01*
X158071648Y-156184437D01*
X157858247Y-156321757D01*
X157836899Y-156353000D01*
X157337000Y-156353000D01*
X157337000Y-155658378D01*
X160116563Y-152878815D01*
X160124222Y-153039454D01*
X160290039Y-153439770D01*
X160155083Y-153637283D01*
X160104717Y-153886000D01*
X160104717Y-155486000D01*
X160148437Y-155718352D01*
X160285757Y-155931753D01*
X160495283Y-156074917D01*
X160744000Y-156125283D01*
X161502990Y-156125283D01*
X161502990Y-159056122D01*
X160158333Y-160400779D01*
X160296727Y-160113331D01*
X160174206Y-159907000D01*
X159131000Y-159907000D01*
X159131000Y-159927000D01*
X158877000Y-159927000D01*
X158877000Y-159907000D01*
X157833794Y-159907000D01*
X157711273Y-160113331D01*
X157937236Y-160582663D01*
X158325604Y-160929797D01*
X158336869Y-160934463D01*
X158065669Y-161115672D01*
X157778012Y-161546182D01*
X157736797Y-161753384D01*
X156683091Y-162807091D01*
X156438788Y-163172716D01*
X156353000Y-163604000D01*
X156353000Y-163731540D01*
X156161624Y-164017954D01*
X156053000Y-164564043D01*
X156053000Y-164619957D01*
X156161624Y-165166046D01*
X156470959Y-165628998D01*
X156933911Y-165938333D01*
X157480000Y-166046957D01*
X158026089Y-165938333D01*
X158489041Y-165628998D01*
X158750000Y-165238446D01*
X159010959Y-165628998D01*
X159473911Y-165938333D01*
X160020000Y-166046957D01*
X160566089Y-165938333D01*
X161029041Y-165628998D01*
X161301030Y-165221938D01*
X161407611Y-165447134D01*
X161822577Y-165823041D01*
X162210961Y-165983904D01*
X162433000Y-165861915D01*
X162433000Y-164719000D01*
X162687000Y-164719000D01*
X162687000Y-165861915D01*
X162909039Y-165983904D01*
X163297423Y-165823041D01*
X163712389Y-165447134D01*
X163951914Y-164941041D01*
X163830629Y-164719000D01*
X162687000Y-164719000D01*
X162433000Y-164719000D01*
X162413000Y-164719000D01*
X162413000Y-164465000D01*
X162433000Y-164465000D01*
X162433000Y-164445000D01*
X162687000Y-164445000D01*
X162687000Y-164465000D01*
X163830629Y-164465000D01*
X163951914Y-164242959D01*
X163712389Y-163736866D01*
X163297423Y-163360959D01*
X162977406Y-163228412D01*
X164398000Y-161807818D01*
X164398000Y-177147531D01*
X164068169Y-176817124D01*
X163091228Y-176411462D01*
X162033413Y-176410539D01*
X161055765Y-176814495D01*
X160307124Y-177561831D01*
X159901462Y-178538772D01*
X159900539Y-179596587D01*
X160304495Y-180574235D01*
X160637678Y-180908000D01*
X134002469Y-180908000D01*
X134332876Y-180578169D01*
X134738538Y-179601228D01*
X134739461Y-178543413D01*
X134335505Y-177565765D01*
X133588169Y-176817124D01*
X132611228Y-176411462D01*
X131553413Y-176410539D01*
X130575765Y-176814495D01*
X130242000Y-177147678D01*
X130242000Y-153427000D01*
X130905250Y-153427000D01*
X131064000Y-153268250D01*
X131064000Y-152019000D01*
X131044000Y-152019000D01*
X131044000Y-151765000D01*
X131064000Y-151765000D01*
X131064000Y-150515750D01*
X130905250Y-150357000D01*
X130242000Y-150357000D01*
X130242000Y-139523223D01*
X134697035Y-139523223D01*
X134724222Y-140093454D01*
X134890136Y-140494005D01*
X135136255Y-140568139D01*
X135964395Y-139740000D01*
X136323605Y-139740000D01*
X137151745Y-140568139D01*
X137397864Y-140494005D01*
X137590965Y-139956777D01*
X137563778Y-139386546D01*
X137397864Y-138985995D01*
X137151745Y-138911861D01*
X136323605Y-139740000D01*
X135964395Y-139740000D01*
X135136255Y-138911861D01*
X134890136Y-138985995D01*
X134697035Y-139523223D01*
X130242000Y-139523223D01*
X130242000Y-130777609D01*
X132160538Y-130777609D01*
X132175714Y-130869376D01*
X132422067Y-131289125D01*
X132810299Y-131582647D01*
X133281304Y-131705256D01*
X133477000Y-131542547D01*
X133477000Y-130587000D01*
X132285269Y-130587000D01*
X132160538Y-130777609D01*
X130242000Y-130777609D01*
X130242000Y-120535461D01*
X130252092Y-120535461D01*
X130276144Y-121185460D01*
X130478613Y-121674264D01*
X130745468Y-121772927D01*
X131718395Y-120800000D01*
X130745468Y-119827073D01*
X130478613Y-119925736D01*
X130252092Y-120535461D01*
X130242000Y-120535461D01*
X130242000Y-115452532D01*
X130925073Y-115452532D01*
X131023736Y-115719387D01*
X131633461Y-115945908D01*
X132283460Y-115921856D01*
X132772264Y-115719387D01*
X132870927Y-115452532D01*
X131898000Y-114479605D01*
X130925073Y-115452532D01*
X130242000Y-115452532D01*
X130242000Y-114035461D01*
X130252092Y-114035461D01*
X130276144Y-114685460D01*
X130478613Y-115174264D01*
X130745468Y-115272927D01*
X131718395Y-114300000D01*
X132077605Y-114300000D01*
X133050532Y-115272927D01*
X133317387Y-115174264D01*
X133543908Y-114564539D01*
X133519856Y-113914540D01*
X133317387Y-113425736D01*
X133050532Y-113327073D01*
X132077605Y-114300000D01*
X131718395Y-114300000D01*
X130745468Y-113327073D01*
X130478613Y-113425736D01*
X130252092Y-114035461D01*
X130242000Y-114035461D01*
X130242000Y-113147468D01*
X130925073Y-113147468D01*
X131898000Y-114120395D01*
X132870927Y-113147468D01*
X132772264Y-112880613D01*
X132162539Y-112654092D01*
X131512540Y-112678144D01*
X131023736Y-112880613D01*
X130925073Y-113147468D01*
X130242000Y-113147468D01*
X130242000Y-109872469D01*
X130571831Y-110202876D01*
X131548772Y-110608538D01*
X132606587Y-110609461D01*
X133584235Y-110205505D01*
X134332876Y-109458169D01*
X134738538Y-108481228D01*
X134738634Y-108370690D01*
X146974000Y-108370690D01*
X146974000Y-109061250D01*
X147132750Y-109220000D01*
X148082000Y-109220000D01*
X148082000Y-108020750D01*
X147923250Y-107862000D01*
X147482691Y-107862000D01*
X147249302Y-107958673D01*
X147070673Y-108137301D01*
X146974000Y-108370690D01*
X134738634Y-108370690D01*
X134739461Y-107423413D01*
X134335505Y-106445765D01*
X134002322Y-106112000D01*
X160637531Y-106112000D01*
X160307124Y-106441831D01*
G36*
X159486788Y-129750686D02*
X159731091Y-130116311D01*
X163211041Y-133596262D01*
X163211041Y-154505222D01*
X162983283Y-154277465D01*
X162983283Y-153886000D01*
X162939563Y-153653648D01*
X162802243Y-153440247D01*
X162798658Y-153437797D01*
X162990965Y-152902777D01*
X162963778Y-152332546D01*
X162797864Y-151931995D01*
X162551745Y-151857861D01*
X161723605Y-152686000D01*
X161737748Y-152700142D01*
X161558143Y-152879748D01*
X161544000Y-152865605D01*
X161529858Y-152879748D01*
X161350252Y-152700142D01*
X161364395Y-152686000D01*
X161350252Y-152671858D01*
X161529858Y-152492252D01*
X161544000Y-152506395D01*
X162372139Y-151678255D01*
X162298005Y-151432136D01*
X161760777Y-151239035D01*
X161756121Y-151239257D01*
X162734930Y-150260448D01*
X162979233Y-149894823D01*
X163065021Y-149463539D01*
X163065021Y-144492951D01*
X162979233Y-144061667D01*
X162734930Y-143696042D01*
X160665001Y-141626113D01*
X160665001Y-136170001D01*
X160579213Y-135738717D01*
X160579213Y-135738716D01*
X160334910Y-135373091D01*
X159472114Y-134510296D01*
X159381506Y-134054777D01*
X159061333Y-133575603D01*
X158723693Y-133350000D01*
X159061333Y-133124397D01*
X159381506Y-132645223D01*
X159493936Y-132080000D01*
X159381506Y-131514777D01*
X159061333Y-131035603D01*
X159014408Y-131004248D01*
X159197698Y-130928327D01*
X159376327Y-130749699D01*
X159473000Y-130516310D01*
X159473000Y-129825750D01*
X159314252Y-129667002D01*
X159470142Y-129667002D01*
X159486788Y-129750686D01*
X159486788Y-129750686D01*
G37*
X159486788Y-129750686D02*
X159731091Y-130116311D01*
X163211041Y-133596262D01*
X163211041Y-154505222D01*
X162983283Y-154277465D01*
X162983283Y-153886000D01*
X162939563Y-153653648D01*
X162802243Y-153440247D01*
X162798658Y-153437797D01*
X162990965Y-152902777D01*
X162963778Y-152332546D01*
X162797864Y-151931995D01*
X162551745Y-151857861D01*
X161723605Y-152686000D01*
X161737748Y-152700142D01*
X161558143Y-152879748D01*
X161544000Y-152865605D01*
X161529858Y-152879748D01*
X161350252Y-152700142D01*
X161364395Y-152686000D01*
X161350252Y-152671858D01*
X161529858Y-152492252D01*
X161544000Y-152506395D01*
X162372139Y-151678255D01*
X162298005Y-151432136D01*
X161760777Y-151239035D01*
X161756121Y-151239257D01*
X162734930Y-150260448D01*
X162979233Y-149894823D01*
X163065021Y-149463539D01*
X163065021Y-144492951D01*
X162979233Y-144061667D01*
X162734930Y-143696042D01*
X160665001Y-141626113D01*
X160665001Y-136170001D01*
X160579213Y-135738717D01*
X160579213Y-135738716D01*
X160334910Y-135373091D01*
X159472114Y-134510296D01*
X159381506Y-134054777D01*
X159061333Y-133575603D01*
X158723693Y-133350000D01*
X159061333Y-133124397D01*
X159381506Y-132645223D01*
X159493936Y-132080000D01*
X159381506Y-131514777D01*
X159061333Y-131035603D01*
X159014408Y-131004248D01*
X159197698Y-130928327D01*
X159376327Y-130749699D01*
X159473000Y-130516310D01*
X159473000Y-129825750D01*
X159314252Y-129667002D01*
X159470142Y-129667002D01*
X159486788Y-129750686D01*
G36*
X145161000Y-131953000D02*
X147447000Y-131953000D01*
X147447000Y-131933000D01*
X147701000Y-131933000D01*
X147701000Y-131953000D01*
X147721000Y-131953000D01*
X147721000Y-132207000D01*
X147701000Y-132207000D01*
X147701000Y-132227000D01*
X147447000Y-132227000D01*
X147447000Y-132207000D01*
X145161000Y-132207000D01*
X145161000Y-132227000D01*
X144907000Y-132227000D01*
X144907000Y-132207000D01*
X144887000Y-132207000D01*
X144887000Y-131953000D01*
X144907000Y-131953000D01*
X144907000Y-131933000D01*
X145161000Y-131933000D01*
X145161000Y-131953000D01*
X145161000Y-131953000D01*
G37*
X145161000Y-131953000D02*
X147447000Y-131953000D01*
X147447000Y-131933000D01*
X147701000Y-131933000D01*
X147701000Y-131953000D01*
X147721000Y-131953000D01*
X147721000Y-132207000D01*
X147701000Y-132207000D01*
X147701000Y-132227000D01*
X147447000Y-132227000D01*
X147447000Y-132207000D01*
X145161000Y-132207000D01*
X145161000Y-132227000D01*
X144907000Y-132227000D01*
X144907000Y-132207000D01*
X144887000Y-132207000D01*
X144887000Y-131953000D01*
X144907000Y-131953000D01*
X144907000Y-131933000D01*
X145161000Y-131933000D01*
X145161000Y-131953000D01*
G36*
X153363741Y-122083560D02*
X153439831Y-122466089D01*
X153749166Y-122929041D01*
X154139718Y-123190000D01*
X153749166Y-123450959D01*
X153439831Y-123913911D01*
X153331207Y-124460000D01*
X153439831Y-125006089D01*
X153749166Y-125469041D01*
X154139718Y-125730000D01*
X153749166Y-125990959D01*
X153439831Y-126453911D01*
X153331207Y-127000000D01*
X153439831Y-127546089D01*
X153749166Y-128009041D01*
X154128544Y-128262534D01*
X154127517Y-128262834D01*
X153689500Y-128615104D01*
X153419633Y-129108181D01*
X153402096Y-129190961D01*
X153524085Y-129413000D01*
X155067000Y-129413000D01*
X155067000Y-129393000D01*
X155321000Y-129393000D01*
X155321000Y-129413000D01*
X157861000Y-129413000D01*
X157861000Y-129393000D01*
X158115000Y-129393000D01*
X158115000Y-129413000D01*
X158135000Y-129413000D01*
X158135000Y-129667000D01*
X158115000Y-129667000D01*
X158115000Y-129687000D01*
X157861000Y-129687000D01*
X157861000Y-129667000D01*
X155321000Y-129667000D01*
X155321000Y-129687000D01*
X155067000Y-129687000D01*
X155067000Y-129667000D01*
X153524085Y-129667000D01*
X153402096Y-129889039D01*
X153419633Y-129971819D01*
X153689500Y-130464896D01*
X154127517Y-130817166D01*
X154128544Y-130817466D01*
X153749166Y-131070959D01*
X153544733Y-131376915D01*
X150910909Y-128743091D01*
X150583497Y-128524321D01*
X151005909Y-128101910D01*
X151250212Y-127736284D01*
X151264771Y-127663091D01*
X151336000Y-127305000D01*
X151336000Y-120055818D01*
X153363741Y-122083560D01*
X153363741Y-122083560D01*
G37*
X153363741Y-122083560D02*
X153439831Y-122466089D01*
X153749166Y-122929041D01*
X154139718Y-123190000D01*
X153749166Y-123450959D01*
X153439831Y-123913911D01*
X153331207Y-124460000D01*
X153439831Y-125006089D01*
X153749166Y-125469041D01*
X154139718Y-125730000D01*
X153749166Y-125990959D01*
X153439831Y-126453911D01*
X153331207Y-127000000D01*
X153439831Y-127546089D01*
X153749166Y-128009041D01*
X154128544Y-128262534D01*
X154127517Y-128262834D01*
X153689500Y-128615104D01*
X153419633Y-129108181D01*
X153402096Y-129190961D01*
X153524085Y-129413000D01*
X155067000Y-129413000D01*
X155067000Y-129393000D01*
X155321000Y-129393000D01*
X155321000Y-129413000D01*
X157861000Y-129413000D01*
X157861000Y-129393000D01*
X158115000Y-129393000D01*
X158115000Y-129413000D01*
X158135000Y-129413000D01*
X158135000Y-129667000D01*
X158115000Y-129667000D01*
X158115000Y-129687000D01*
X157861000Y-129687000D01*
X157861000Y-129667000D01*
X155321000Y-129667000D01*
X155321000Y-129687000D01*
X155067000Y-129687000D01*
X155067000Y-129667000D01*
X153524085Y-129667000D01*
X153402096Y-129889039D01*
X153419633Y-129971819D01*
X153689500Y-130464896D01*
X154127517Y-130817166D01*
X154128544Y-130817466D01*
X153749166Y-131070959D01*
X153544733Y-131376915D01*
X150910909Y-128743091D01*
X150583497Y-128524321D01*
X151005909Y-128101910D01*
X151250212Y-127736284D01*
X151264771Y-127663091D01*
X151336000Y-127305000D01*
X151336000Y-120055818D01*
X153363741Y-122083560D01*
G36*
X163169600Y-114173000D02*
X163189600Y-114173000D01*
X163189600Y-114427000D01*
X163169600Y-114427000D01*
X163169600Y-114447000D01*
X162915600Y-114447000D01*
X162915600Y-114427000D01*
X162895600Y-114427000D01*
X162895600Y-114173000D01*
X162915600Y-114173000D01*
X162915600Y-114153000D01*
X163169600Y-114153000D01*
X163169600Y-114173000D01*
X163169600Y-114173000D01*
G37*
X163169600Y-114173000D02*
X163189600Y-114173000D01*
X163189600Y-114427000D01*
X163169600Y-114427000D01*
X163169600Y-114447000D01*
X162915600Y-114447000D01*
X162915600Y-114427000D01*
X162895600Y-114427000D01*
X162895600Y-114173000D01*
X162915600Y-114173000D01*
X162915600Y-114153000D01*
X163169600Y-114153000D01*
X163169600Y-114173000D01*
M02*
