M48
;DRILL file {KiCad 4.0.1-stable} date 2019/02/22 9:20:15
;FORMAT={-:-/ absolute / metric / decimal}
FMAT,2
METRIC,TZ
T1C0.750
T2C0.800
T3C0.900
T4C1.000
T5C1.100
T6C3.200
%
G90
G05
M71
T1
X133.604Y-124.46
X133.604Y-126.46
X133.604Y-128.46
X133.604Y-130.46
X136.906Y-159.004
X137.033Y-174.625
X138.906Y-159.004
X139.033Y-174.625
X140.906Y-159.004
X141.033Y-174.625
X143.033Y-174.625
X148.209Y-109.347
X150.209Y-109.347
X152.209Y-109.347
X154.209Y-109.347
T2
X132.207Y-156.718
X132.207Y-164.338
X133.604Y-134.62
X133.604Y-142.24
X136.144Y-134.66
X136.144Y-137.16
X136.144Y-139.74
X136.144Y-142.24
X137.414Y-129.54
X137.414Y-132.04
X139.954Y-110.49
X139.954Y-118.11
X139.954Y-137.16
X139.954Y-142.04
X142.494Y-111.252
X142.494Y-129.54
X142.494Y-132.04
X144.994Y-111.252
X147.574Y-114.3
X147.574Y-116.84
X147.574Y-119.38
X147.574Y-121.92
X147.574Y-124.46
X147.574Y-127.
X147.574Y-129.54
X147.574Y-132.08
X147.574Y-134.62
X147.574Y-137.16
X147.574Y-139.7
X147.574Y-142.24
X147.574Y-144.78
X147.574Y-147.32
X155.194Y-114.3
X155.194Y-116.84
X155.194Y-119.38
X155.194Y-121.92
X155.194Y-124.46
X155.194Y-127.
X155.194Y-129.54
X155.194Y-132.08
X155.194Y-134.62
X155.194Y-137.16
X155.194Y-139.7
X155.194Y-142.24
X155.194Y-144.78
X155.194Y-147.32
X156.21Y-157.48
X156.21Y-159.98
X157.48Y-164.592
X157.48Y-174.752
X159.004Y-157.48
X159.004Y-159.78
X159.004Y-162.08
X160.02Y-164.592
X160.02Y-174.752
X161.544Y-152.686
X161.544Y-154.686
X162.56Y-164.592
X162.56Y-174.752
T3
X131.191Y-151.892
X133.731Y-151.892
X137.668Y-151.892
X140.208Y-151.892
T4
X132.334Y-167.64
X132.334Y-170.18
X139.954Y-121.92
X139.954Y-124.46
X139.954Y-127.
X139.954Y-129.54
X139.954Y-132.08
X145.034Y-114.3
X145.034Y-116.84
X145.034Y-119.38
X145.034Y-121.92
X145.034Y-124.46
X145.034Y-127.
X145.034Y-129.54
X145.034Y-132.08
X145.034Y-139.7
X145.034Y-142.24
X145.034Y-144.78
X145.034Y-147.32
X147.574Y-157.48
X147.574Y-160.02
X147.574Y-162.56
X147.574Y-165.1
X147.574Y-167.64
X147.574Y-170.18
X147.574Y-172.72
X147.574Y-175.26
X147.574Y-177.8
X157.988Y-109.22
X157.988Y-111.76
X157.988Y-114.3
X157.988Y-116.84
X157.988Y-129.54
X157.988Y-132.08
X157.988Y-134.62
X157.988Y-137.16
X157.988Y-139.7
X157.988Y-142.24
X157.988Y-144.78
X157.988Y-147.32
X160.528Y-114.3
X160.528Y-116.84
X160.528Y-119.38
X160.528Y-121.92
X160.528Y-124.46
X160.528Y-127.
X163.043Y-111.76
X163.043Y-114.3
X163.043Y-116.84
X163.043Y-119.38
X163.043Y-121.92
X163.043Y-124.46
X163.043Y-127.
X163.043Y-129.54
T5
X131.898Y-114.3
X131.898Y-120.8
X136.398Y-114.3
X136.398Y-120.8
T6
X132.08Y-107.95
X132.08Y-179.07
X162.56Y-107.95
X162.56Y-179.07
T0
M30
