M48
;DRILL file {KiCad 4.0.1-stable} date 2019/02/22 9:19:23
;FORMAT={-:-/ absolute / metric / decimal}
FMAT,2
METRIC,TZ
T1C0.750
T2C0.800
T3C1.000
T4C3.200
%
G90
G05
M71
T1
X180.34Y-115.57
X182.34Y-115.57
X184.34Y-115.57
X189.738Y-115.57
X191.738Y-115.57
X193.738Y-115.57
X195.738Y-115.57
T2
X174.498Y-97.79
X174.498Y-105.41
X179.07Y-95.25
X179.07Y-107.95
X186.69Y-95.25
X186.69Y-107.95
X189.23Y-95.25
X189.23Y-107.95
X196.85Y-95.25
X196.85Y-107.95
X201.422Y-97.79
X201.422Y-105.41
T3
X175.006Y-108.458
X175.006Y-110.998
X178.435Y-99.06
X178.435Y-104.14
X183.515Y-99.06
X183.515Y-104.14
X193.04Y-99.06
X193.04Y-104.14
X198.12Y-99.06
X198.12Y-104.14
T4
X175.26Y-93.98
X175.26Y-115.57
X200.66Y-93.98
X200.66Y-115.57
T0
M30
