G04 #@! TF.FileFunction,Copper,L2,Bot,Signal*
%FSLAX46Y46*%
G04 Gerber Fmt 4.6, Leading zero omitted, Abs format (unit mm)*
G04 Created by KiCad (PCBNEW 4.0.1-stable) date 2018/02/16 21:14:19*
%MOMM*%
G01*
G04 APERTURE LIST*
%ADD10C,0.100000*%
%ADD11R,1.700000X1.200000*%
%ADD12O,1.700000X1.200000*%
%ADD13C,1.397000*%
%ADD14R,2.032000X1.727200*%
%ADD15O,2.032000X1.727200*%
%ADD16C,2.000000*%
%ADD17C,3.500000*%
%ADD18C,1.524000*%
%ADD19R,0.750000X1.200000*%
%ADD20R,1.200000X0.750000*%
%ADD21R,1.200000X0.900000*%
%ADD22C,1.500000*%
%ADD23C,0.800000*%
%ADD24C,0.700000*%
%ADD25C,0.400000*%
%ADD26C,0.500000*%
G04 APERTURE END LIST*
D10*
D11*
X113919000Y-97790000D03*
D12*
X113919000Y-99790000D03*
X113919000Y-101790000D03*
X113919000Y-103790000D03*
D13*
X118364000Y-92202000D03*
X113284000Y-92202000D03*
X118364000Y-84582000D03*
X113284000Y-84582000D03*
D14*
X118364000Y-94869000D03*
D15*
X118364000Y-97409000D03*
X118364000Y-99949000D03*
X118364000Y-102489000D03*
X118364000Y-105029000D03*
D16*
X122428000Y-84836000D03*
X122428000Y-87376000D03*
X122428000Y-89916000D03*
X122428000Y-92456000D03*
X122428000Y-94996000D03*
X122428000Y-97536000D03*
X122428000Y-100076000D03*
X122428000Y-102616000D03*
X122428000Y-105156000D03*
X122428000Y-107696000D03*
X122428000Y-110236000D03*
X122428000Y-112776000D03*
X122428000Y-115316000D03*
X122428000Y-82296000D03*
X130048000Y-115316000D03*
X130048000Y-112776000D03*
X130048000Y-110236000D03*
X130048000Y-107696000D03*
X130048000Y-105156000D03*
X130048000Y-102616000D03*
X130048000Y-100076000D03*
X130048000Y-97536000D03*
X130048000Y-94996000D03*
X130048000Y-92456000D03*
X130048000Y-89916000D03*
X130048000Y-87376000D03*
X130048000Y-84836000D03*
X130048000Y-82296000D03*
D17*
X111252000Y-116713000D03*
X111252000Y-81788000D03*
D18*
X135128000Y-90424000D03*
X135128000Y-92964000D03*
X135128000Y-95504000D03*
X135128000Y-98044000D03*
X135128000Y-100584000D03*
X135128000Y-103124000D03*
X135128000Y-105664000D03*
X135128000Y-108204000D03*
D17*
X146177000Y-81788000D03*
D19*
X112141000Y-101793000D03*
X112141000Y-103693000D03*
X118745000Y-109916000D03*
X118745000Y-108016000D03*
X118745000Y-113604000D03*
X118745000Y-115504000D03*
X116078000Y-101793000D03*
X116078000Y-103693000D03*
X127635000Y-101026000D03*
X127635000Y-99126000D03*
D20*
X135067000Y-88519000D03*
X136967000Y-88519000D03*
X125034000Y-82296000D03*
X126934000Y-82296000D03*
D21*
X117391000Y-82423000D03*
X119591000Y-82423000D03*
D22*
X116459000Y-109982000D03*
X116459000Y-114862000D03*
D17*
X146177000Y-116713000D03*
D23*
X114808000Y-89535000D02*
X114808000Y-92837000D01*
X112141000Y-95504000D02*
X112141000Y-101793000D01*
X114808000Y-92837000D02*
X112141000Y-95504000D01*
X113919000Y-101790000D02*
X112271000Y-101790000D01*
X112271000Y-101790000D02*
X112268000Y-101793000D01*
X114909600Y-101790000D02*
X113795000Y-101790000D01*
X114909600Y-101790000D02*
X115821000Y-101790000D01*
X115821000Y-101790000D02*
X116586000Y-102555000D01*
X118364000Y-102489000D02*
X118364000Y-102362000D01*
X118364000Y-102362000D02*
X120523000Y-100203000D01*
X120523000Y-99441000D02*
X122428000Y-97536000D01*
X120523000Y-100203000D02*
X120523000Y-99441000D01*
X122428000Y-97536000D02*
X123063000Y-97536000D01*
X123063000Y-97536000D02*
X126553000Y-101026000D01*
X126553000Y-101026000D02*
X127635000Y-101026000D01*
X117391000Y-82423000D02*
X117391000Y-82380000D01*
X117391000Y-82380000D02*
X119253000Y-80518000D01*
X133792002Y-87244002D02*
X135067000Y-88519000D01*
X133792002Y-83119002D02*
X133792002Y-87244002D01*
X131191000Y-80518000D02*
X133792002Y-83119002D01*
X119253000Y-80518000D02*
X131191000Y-80518000D01*
X114808000Y-89535000D02*
X114808000Y-85006000D01*
X114808000Y-85006000D02*
X117391000Y-82423000D01*
X114808000Y-89535000D02*
X114808000Y-89492000D01*
X135067000Y-88519000D02*
X134808002Y-88519000D01*
X135128000Y-90424000D02*
X135128000Y-88580000D01*
X135128000Y-88580000D02*
X135067000Y-88519000D01*
X116586000Y-102555000D02*
X116652000Y-102489000D01*
X116652000Y-102489000D02*
X118364000Y-102489000D01*
D24*
X118364000Y-102489000D02*
X116652000Y-102489000D01*
X116652000Y-102489000D02*
X116586000Y-102555000D01*
D23*
X127635000Y-101026000D02*
X128458000Y-101026000D01*
X128458000Y-101026000D02*
X130048000Y-102616000D01*
X112141000Y-103693000D02*
X111567000Y-103693000D01*
X111125000Y-95105784D02*
X113338892Y-92891892D01*
X111125000Y-103251000D02*
X111125000Y-95105784D01*
X111567000Y-103693000D02*
X111125000Y-103251000D01*
X113338892Y-92891892D02*
X113338892Y-92256892D01*
X113338892Y-92256892D02*
X113284000Y-92202000D01*
X113284000Y-84582000D02*
X113284000Y-92202000D01*
X118364000Y-105029000D02*
X116906000Y-105029000D01*
X116906000Y-105029000D02*
X115570000Y-103693000D01*
X115570000Y-103693000D02*
X112268000Y-103693000D01*
X122301000Y-100076000D02*
X120142000Y-102235000D01*
X120142000Y-103251000D02*
X118364000Y-105029000D01*
X120142000Y-102235000D02*
X120142000Y-103251000D01*
X122428000Y-100076000D02*
X122301000Y-100076000D01*
X126934000Y-82296000D02*
X126934000Y-94422000D01*
X126934000Y-94422000D02*
X130048000Y-97536000D01*
X135128000Y-92964000D02*
X135255000Y-92964000D01*
X118745000Y-108016000D02*
X116266000Y-108016000D01*
X117790000Y-116459000D02*
X118745000Y-115504000D01*
X115951000Y-116459000D02*
X117790000Y-116459000D01*
X114935000Y-115443000D02*
X115951000Y-116459000D01*
X114935000Y-109347000D02*
X114935000Y-115443000D01*
X116266000Y-108016000D02*
X114935000Y-109347000D01*
X118745000Y-115504000D02*
X119060000Y-115504000D01*
X136967000Y-88519000D02*
X136967000Y-91125000D01*
X136967000Y-91125000D02*
X135128000Y-92964000D01*
X127635000Y-99126000D02*
X128458000Y-99126000D01*
X128458000Y-99126000D02*
X130048000Y-97536000D01*
X118745000Y-109916000D02*
X118876998Y-109916000D01*
X118876998Y-109916000D02*
X119761000Y-109031998D01*
X120650000Y-104394000D02*
X122428000Y-102616000D01*
X120650000Y-105410000D02*
X120650000Y-104394000D01*
X119761000Y-106299000D02*
X120650000Y-105410000D01*
X119761000Y-109031998D02*
X119761000Y-106299000D01*
D24*
X118745000Y-109916000D02*
X119065000Y-109916000D01*
X116459000Y-109982000D02*
X118679000Y-109982000D01*
X118745000Y-113604000D02*
X119060000Y-113604000D01*
X119060000Y-113604000D02*
X120777000Y-111887000D01*
X120777000Y-111887000D02*
X120777000Y-106807000D01*
X120777000Y-106807000D02*
X122428000Y-105156000D01*
X116459000Y-114862000D02*
X116532000Y-114862000D01*
X116532000Y-114862000D02*
X117790000Y-113604000D01*
X117790000Y-113604000D02*
X118933000Y-113604000D01*
D23*
X118364000Y-84582000D02*
X118364000Y-83650000D01*
X118364000Y-83650000D02*
X119591000Y-82423000D01*
X119591000Y-82423000D02*
X122301000Y-82423000D01*
X122301000Y-82423000D02*
X122428000Y-82296000D01*
X122428000Y-82296000D02*
X125034000Y-82296000D01*
D24*
X118364000Y-94869000D02*
X118364000Y-92202000D01*
X118364000Y-92202000D02*
X118364000Y-91948000D01*
D23*
X114078000Y-99949000D02*
X113919000Y-99790000D01*
X118364000Y-97409000D02*
X114300000Y-97409000D01*
X114300000Y-97409000D02*
X113919000Y-97790000D01*
X118364000Y-97409000D02*
X118872000Y-97409000D01*
X118872000Y-97409000D02*
X120523000Y-95758000D01*
X120523000Y-89281000D02*
X122428000Y-87376000D01*
X120523000Y-95758000D02*
X120523000Y-89281000D01*
D24*
X122428000Y-87376000D02*
X122682000Y-87376000D01*
D23*
X135128000Y-108204000D02*
X130556000Y-108204000D01*
X130556000Y-108204000D02*
X130048000Y-107696000D01*
D24*
X130048000Y-84836000D02*
X130429000Y-84836000D01*
X130429000Y-84836000D02*
X131826000Y-86233000D01*
X131826000Y-94742000D02*
X135128000Y-98044000D01*
X131826000Y-86233000D02*
X131826000Y-94742000D01*
X130048000Y-84836000D02*
X130683000Y-84836000D01*
D25*
X130048000Y-84836000D02*
X130556000Y-84836000D01*
D24*
X130048000Y-82296000D02*
X130302000Y-82296000D01*
X130302000Y-82296000D02*
X132842000Y-84836000D01*
X132842000Y-84836000D02*
X132842000Y-93218000D01*
X132842000Y-93218000D02*
X135128000Y-95504000D01*
X130048000Y-115316000D02*
X130556000Y-115316000D01*
D26*
G36*
X116986689Y-81370097D02*
X116791000Y-81370097D01*
X116695452Y-81377716D01*
X116533393Y-81427903D01*
X116391731Y-81521252D01*
X116281685Y-81650370D01*
X116211966Y-81805035D01*
X116188097Y-81973000D01*
X116188097Y-82211689D01*
X114548198Y-83851588D01*
X114529786Y-83813889D01*
X114470382Y-83724987D01*
X114187711Y-83683945D01*
X113289657Y-84582000D01*
X113303799Y-84596142D01*
X113298142Y-84601799D01*
X113284000Y-84587657D01*
X112385945Y-85485711D01*
X112426987Y-85768382D01*
X112674907Y-85912781D01*
X112946233Y-86006039D01*
X113230539Y-86044572D01*
X113516900Y-86026898D01*
X113794311Y-85953699D01*
X113808000Y-85947013D01*
X113808000Y-90841972D01*
X113621767Y-90777961D01*
X113337461Y-90739428D01*
X113051100Y-90757102D01*
X112773689Y-90830301D01*
X112515889Y-90956214D01*
X112426987Y-91015618D01*
X112385945Y-91298289D01*
X113284000Y-92196343D01*
X113298142Y-92182201D01*
X113303799Y-92187858D01*
X113289657Y-92202000D01*
X113303799Y-92216142D01*
X113298142Y-92221799D01*
X113284000Y-92207657D01*
X112385945Y-93105711D01*
X112426987Y-93388382D01*
X112674907Y-93532781D01*
X112692097Y-93538689D01*
X111433893Y-94796893D01*
X111375242Y-94868297D01*
X111315887Y-94939033D01*
X111313354Y-94943640D01*
X111310016Y-94947704D01*
X111266353Y-95029136D01*
X111221865Y-95110058D01*
X111220276Y-95115068D01*
X111217790Y-95119704D01*
X111190790Y-95208018D01*
X111162852Y-95296088D01*
X111162265Y-95301318D01*
X111160729Y-95306343D01*
X111151399Y-95398195D01*
X111141097Y-95490038D01*
X111141026Y-95500316D01*
X111141006Y-95500509D01*
X111141023Y-95500689D01*
X111141000Y-95504000D01*
X111141000Y-101793000D01*
X111160045Y-101987234D01*
X111163097Y-101997343D01*
X111163097Y-102393000D01*
X111170716Y-102488548D01*
X111200926Y-102586100D01*
X111177223Y-102609803D01*
X111094269Y-102733952D01*
X111037130Y-102871899D01*
X111008000Y-103018343D01*
X111008000Y-103499500D01*
X111197500Y-103689000D01*
X112137000Y-103689000D01*
X112137000Y-103669000D01*
X112145000Y-103669000D01*
X112145000Y-103689000D01*
X112165000Y-103689000D01*
X112165000Y-103697000D01*
X112145000Y-103697000D01*
X112145000Y-104861500D01*
X112334500Y-105051000D01*
X112590656Y-105051000D01*
X112737100Y-105021871D01*
X112875047Y-104964731D01*
X112930815Y-104927468D01*
X113145620Y-105043098D01*
X113400144Y-105121126D01*
X113665000Y-105148000D01*
X113915000Y-105148000D01*
X113915000Y-103794000D01*
X113895000Y-103794000D01*
X113895000Y-103786000D01*
X113915000Y-103786000D01*
X113915000Y-103766000D01*
X113923000Y-103766000D01*
X113923000Y-103786000D01*
X113943000Y-103786000D01*
X113943000Y-103794000D01*
X113923000Y-103794000D01*
X113923000Y-105148000D01*
X114173000Y-105148000D01*
X114437856Y-105121126D01*
X114692380Y-105043098D01*
X114926791Y-104916914D01*
X115108181Y-104767155D01*
X115114223Y-104776197D01*
X115219804Y-104881777D01*
X115343953Y-104964731D01*
X115481900Y-105021871D01*
X115628344Y-105051000D01*
X115884500Y-105051000D01*
X116074000Y-104861500D01*
X116074000Y-103697000D01*
X116054000Y-103697000D01*
X116054000Y-103689000D01*
X116074000Y-103689000D01*
X116074000Y-103669000D01*
X116082000Y-103669000D01*
X116082000Y-103689000D01*
X117021500Y-103689000D01*
X117179499Y-103531001D01*
X117339771Y-103665485D01*
X117307361Y-103682911D01*
X117142988Y-103818488D01*
X117021500Y-103697000D01*
X116082000Y-103697000D01*
X116082000Y-104861500D01*
X116271500Y-105051000D01*
X116527656Y-105051000D01*
X116618140Y-105033002D01*
X116779505Y-105033002D01*
X116610595Y-105286624D01*
X116620378Y-105341435D01*
X116711906Y-105645864D01*
X116861066Y-105926587D01*
X117062127Y-106172816D01*
X117307361Y-106375089D01*
X117587345Y-106525632D01*
X117891318Y-106618661D01*
X118207600Y-106650600D01*
X118360000Y-106650600D01*
X118360000Y-105033000D01*
X118340000Y-105033000D01*
X118340000Y-105025000D01*
X118360000Y-105025000D01*
X118360000Y-105005000D01*
X118368000Y-105005000D01*
X118368000Y-105025000D01*
X118388000Y-105025000D01*
X118388000Y-105033000D01*
X118368000Y-105033000D01*
X118368000Y-106650600D01*
X118520400Y-106650600D01*
X118761000Y-106626304D01*
X118761000Y-106835500D01*
X118749000Y-106847500D01*
X118749000Y-108012000D01*
X118761000Y-108012000D01*
X118761000Y-108020000D01*
X118749000Y-108020000D01*
X118749000Y-108040000D01*
X118741000Y-108040000D01*
X118741000Y-108020000D01*
X117801500Y-108020000D01*
X117612000Y-108209500D01*
X117612000Y-108690657D01*
X117641130Y-108837101D01*
X117698269Y-108975048D01*
X117736323Y-109032000D01*
X117418249Y-109032000D01*
X117323686Y-108936774D01*
X117104199Y-108788729D01*
X116860137Y-108686134D01*
X116600796Y-108632899D01*
X116336054Y-108631051D01*
X116075995Y-108680660D01*
X115830524Y-108779836D01*
X115608992Y-108924803D01*
X115419836Y-109110038D01*
X115270262Y-109328486D01*
X115165966Y-109571826D01*
X115110922Y-109830789D01*
X115107226Y-110095512D01*
X115155018Y-110355911D01*
X115252478Y-110602068D01*
X115395895Y-110824607D01*
X115579805Y-111015051D01*
X115797203Y-111166147D01*
X116039809Y-111272139D01*
X116298381Y-111328989D01*
X116563072Y-111334534D01*
X116823798Y-111288561D01*
X117070630Y-111192821D01*
X117294164Y-111050962D01*
X117419087Y-110932000D01*
X117937883Y-110932000D01*
X118047370Y-111025315D01*
X118202035Y-111095034D01*
X118370000Y-111118903D01*
X119120000Y-111118903D01*
X119215548Y-111111284D01*
X119377607Y-111061097D01*
X119519269Y-110967748D01*
X119629315Y-110838630D01*
X119699034Y-110683965D01*
X119709486Y-110610413D01*
X119734402Y-110590092D01*
X119827000Y-110478161D01*
X119827000Y-111493497D01*
X118919401Y-112401097D01*
X118370000Y-112401097D01*
X118274452Y-112408716D01*
X118112393Y-112458903D01*
X117970731Y-112552252D01*
X117884012Y-112654000D01*
X117790000Y-112654000D01*
X117702700Y-112662560D01*
X117615247Y-112670211D01*
X117610446Y-112671606D01*
X117605477Y-112672093D01*
X117521493Y-112697449D01*
X117437201Y-112721938D01*
X117432766Y-112724237D01*
X117427983Y-112725681D01*
X117350499Y-112766880D01*
X117272593Y-112807263D01*
X117268689Y-112810380D01*
X117264278Y-112812725D01*
X117196270Y-112868192D01*
X117127694Y-112922935D01*
X117120738Y-112929794D01*
X117120598Y-112929908D01*
X117120491Y-112930037D01*
X117118249Y-112932248D01*
X116538037Y-113512461D01*
X116336054Y-113511051D01*
X116075995Y-113560660D01*
X115830524Y-113659836D01*
X115608992Y-113804803D01*
X115419836Y-113990038D01*
X115270262Y-114208486D01*
X115165966Y-114451826D01*
X115110922Y-114710789D01*
X115107226Y-114975512D01*
X115155018Y-115235911D01*
X115252478Y-115482068D01*
X115395895Y-115704607D01*
X115579805Y-115895051D01*
X115797203Y-116046147D01*
X116039809Y-116152139D01*
X116298381Y-116208989D01*
X116563072Y-116214534D01*
X116823798Y-116168561D01*
X117070630Y-116072821D01*
X117294164Y-115930962D01*
X117485888Y-115748386D01*
X117638498Y-115532048D01*
X117649204Y-115508002D01*
X117801498Y-115508002D01*
X117612000Y-115697500D01*
X117612000Y-116178657D01*
X117641130Y-116325101D01*
X117698269Y-116463048D01*
X117781223Y-116587197D01*
X117886804Y-116692777D01*
X118010953Y-116775731D01*
X118148900Y-116832871D01*
X118295344Y-116862000D01*
X118551500Y-116862000D01*
X118741000Y-116672500D01*
X118741000Y-115508000D01*
X118749000Y-115508000D01*
X118749000Y-116672500D01*
X118938500Y-116862000D01*
X119194656Y-116862000D01*
X119341100Y-116832871D01*
X119479047Y-116775731D01*
X119603196Y-116692777D01*
X119708777Y-116587197D01*
X119791731Y-116463048D01*
X119848870Y-116325101D01*
X119878000Y-116178657D01*
X119878000Y-115697500D01*
X119688500Y-115508000D01*
X118749000Y-115508000D01*
X118741000Y-115508000D01*
X118721000Y-115508000D01*
X118721000Y-115500000D01*
X118741000Y-115500000D01*
X118741000Y-115480000D01*
X118749000Y-115480000D01*
X118749000Y-115500000D01*
X119688500Y-115500000D01*
X119878000Y-115310500D01*
X119878000Y-114829343D01*
X119848870Y-114682899D01*
X119791731Y-114544952D01*
X119708777Y-114420803D01*
X119686887Y-114398913D01*
X119699034Y-114371965D01*
X119709985Y-114294901D01*
X119722307Y-114285065D01*
X119729259Y-114278208D01*
X119729402Y-114278092D01*
X119729511Y-114277960D01*
X119731751Y-114275751D01*
X120867933Y-113139570D01*
X120882539Y-113219154D01*
X120998048Y-113510896D01*
X121168023Y-113774645D01*
X121385990Y-114000357D01*
X121449208Y-114044294D01*
X121420583Y-114063026D01*
X121196398Y-114282563D01*
X121019125Y-114541464D01*
X120895515Y-114829867D01*
X120830278Y-115136787D01*
X120825897Y-115450532D01*
X120882539Y-115759154D01*
X120998048Y-116050896D01*
X121168023Y-116314645D01*
X121385990Y-116540357D01*
X121643648Y-116719433D01*
X121931180Y-116845054D01*
X122237637Y-116912432D01*
X122551344Y-116919004D01*
X122860354Y-116864517D01*
X123152895Y-116751048D01*
X123417825Y-116582918D01*
X123645053Y-116366532D01*
X123825924Y-116110131D01*
X123953548Y-115823482D01*
X124023064Y-115517504D01*
X124028069Y-115159112D01*
X123967123Y-114851311D01*
X123847552Y-114561211D01*
X123673911Y-114299860D01*
X123452813Y-114077213D01*
X123409655Y-114048103D01*
X123417825Y-114042918D01*
X123645053Y-113826532D01*
X123825924Y-113570131D01*
X123953548Y-113283482D01*
X124023064Y-112977504D01*
X124028069Y-112619112D01*
X123967123Y-112311311D01*
X123847552Y-112021211D01*
X123673911Y-111759860D01*
X123452813Y-111537213D01*
X123409655Y-111508103D01*
X123417825Y-111502918D01*
X123645053Y-111286532D01*
X123825924Y-111030131D01*
X123953548Y-110743482D01*
X124023064Y-110437504D01*
X124028069Y-110079112D01*
X123967123Y-109771311D01*
X123847552Y-109481211D01*
X123673911Y-109219860D01*
X123452813Y-108997213D01*
X123409655Y-108968103D01*
X123417825Y-108962918D01*
X123645053Y-108746532D01*
X123825924Y-108490131D01*
X123953548Y-108203482D01*
X124023064Y-107897504D01*
X124028069Y-107539112D01*
X123967123Y-107231311D01*
X123847552Y-106941211D01*
X123673911Y-106679860D01*
X123452813Y-106457213D01*
X123409655Y-106428103D01*
X123417825Y-106422918D01*
X123645053Y-106206532D01*
X123825924Y-105950131D01*
X123953548Y-105663482D01*
X124023064Y-105357504D01*
X124028069Y-104999112D01*
X123967123Y-104691311D01*
X123847552Y-104401211D01*
X123673911Y-104139860D01*
X123452813Y-103917213D01*
X123409655Y-103888103D01*
X123417825Y-103882918D01*
X123645053Y-103666532D01*
X123825924Y-103410131D01*
X123953548Y-103123482D01*
X124023064Y-102817504D01*
X124028069Y-102459112D01*
X123967123Y-102151311D01*
X123847552Y-101861211D01*
X123673911Y-101599860D01*
X123486746Y-101411384D01*
X123540280Y-101193937D01*
X122428000Y-100081657D01*
X121315720Y-101193937D01*
X121369632Y-101412921D01*
X121196398Y-101582563D01*
X121019125Y-101841464D01*
X120895515Y-102129867D01*
X120830278Y-102436787D01*
X120825897Y-102750532D01*
X120834171Y-102795615D01*
X119942893Y-103686893D01*
X119884242Y-103758297D01*
X119824887Y-103829033D01*
X119822354Y-103833640D01*
X119819016Y-103837704D01*
X119775353Y-103919136D01*
X119742457Y-103978972D01*
X119665873Y-103885184D01*
X119420639Y-103682911D01*
X119387109Y-103664882D01*
X119555522Y-103527528D01*
X119737598Y-103307435D01*
X119873458Y-103056168D01*
X119957925Y-102783298D01*
X119987783Y-102499218D01*
X119961895Y-102214749D01*
X119953611Y-102186603D01*
X121022684Y-101117530D01*
X121310063Y-101188280D01*
X122422343Y-100076000D01*
X122408201Y-100061858D01*
X122413858Y-100056201D01*
X122428000Y-100070343D01*
X122442142Y-100056201D01*
X122447799Y-100061858D01*
X122433657Y-100076000D01*
X123545937Y-101188280D01*
X123859480Y-101111088D01*
X124033911Y-100811931D01*
X124146627Y-100484492D01*
X124193296Y-100141355D01*
X124189326Y-100076540D01*
X125845893Y-101733107D01*
X125917297Y-101791758D01*
X125988033Y-101851113D01*
X125992640Y-101853646D01*
X125996704Y-101856984D01*
X126078136Y-101900647D01*
X126159058Y-101945135D01*
X126164068Y-101946724D01*
X126168704Y-101949210D01*
X126257018Y-101976210D01*
X126345088Y-102004148D01*
X126350318Y-102004735D01*
X126355343Y-102006271D01*
X126447195Y-102015601D01*
X126539038Y-102025903D01*
X126549316Y-102025974D01*
X126549509Y-102025994D01*
X126549689Y-102025977D01*
X126553000Y-102026000D01*
X126809110Y-102026000D01*
X126937370Y-102135315D01*
X127092035Y-102205034D01*
X127260000Y-102228903D01*
X128010000Y-102228903D01*
X128105548Y-102221284D01*
X128207498Y-102189712D01*
X128451031Y-102433245D01*
X128450278Y-102436787D01*
X128445897Y-102750532D01*
X128502539Y-103059154D01*
X128618048Y-103350896D01*
X128788023Y-103614645D01*
X129005990Y-103840357D01*
X129069208Y-103884294D01*
X129040583Y-103903026D01*
X128816398Y-104122563D01*
X128639125Y-104381464D01*
X128515515Y-104669867D01*
X128450278Y-104976787D01*
X128445897Y-105290532D01*
X128502539Y-105599154D01*
X128618048Y-105890896D01*
X128788023Y-106154645D01*
X129005990Y-106380357D01*
X129069208Y-106424294D01*
X129040583Y-106443026D01*
X128816398Y-106662563D01*
X128639125Y-106921464D01*
X128515515Y-107209867D01*
X128450278Y-107516787D01*
X128445897Y-107830532D01*
X128502539Y-108139154D01*
X128618048Y-108430896D01*
X128788023Y-108694645D01*
X129005990Y-108920357D01*
X129069208Y-108964294D01*
X129040583Y-108983026D01*
X128816398Y-109202563D01*
X128639125Y-109461464D01*
X128515515Y-109749867D01*
X128450278Y-110056787D01*
X128445897Y-110370532D01*
X128502539Y-110679154D01*
X128618048Y-110970896D01*
X128788023Y-111234645D01*
X129005990Y-111460357D01*
X129069208Y-111504294D01*
X129040583Y-111523026D01*
X128816398Y-111742563D01*
X128639125Y-112001464D01*
X128515515Y-112289867D01*
X128450278Y-112596787D01*
X128445897Y-112910532D01*
X128502539Y-113219154D01*
X128618048Y-113510896D01*
X128788023Y-113774645D01*
X129005990Y-114000357D01*
X129069208Y-114044294D01*
X129040583Y-114063026D01*
X128816398Y-114282563D01*
X128639125Y-114541464D01*
X128515515Y-114829867D01*
X128450278Y-115136787D01*
X128445897Y-115450532D01*
X128502539Y-115759154D01*
X128618048Y-116050896D01*
X128788023Y-116314645D01*
X129005990Y-116540357D01*
X129263648Y-116719433D01*
X129551180Y-116845054D01*
X129857637Y-116912432D01*
X130171344Y-116919004D01*
X130480354Y-116864517D01*
X130772895Y-116751048D01*
X131037825Y-116582918D01*
X131265053Y-116366532D01*
X131445924Y-116110131D01*
X131573548Y-115823482D01*
X131643064Y-115517504D01*
X131648069Y-115159112D01*
X131587123Y-114851311D01*
X131467552Y-114561211D01*
X131293911Y-114299860D01*
X131072813Y-114077213D01*
X131029655Y-114048103D01*
X131037825Y-114042918D01*
X131265053Y-113826532D01*
X131445924Y-113570131D01*
X131573548Y-113283482D01*
X131643064Y-112977504D01*
X131648069Y-112619112D01*
X131587123Y-112311311D01*
X131467552Y-112021211D01*
X131293911Y-111759860D01*
X131072813Y-111537213D01*
X131029655Y-111508103D01*
X131037825Y-111502918D01*
X131265053Y-111286532D01*
X131445924Y-111030131D01*
X131573548Y-110743482D01*
X131643064Y-110437504D01*
X131648069Y-110079112D01*
X131587123Y-109771311D01*
X131467552Y-109481211D01*
X131293911Y-109219860D01*
X131278161Y-109204000D01*
X134200205Y-109204000D01*
X134240990Y-109246234D01*
X134460320Y-109398672D01*
X134705082Y-109505606D01*
X134965954Y-109562963D01*
X135232997Y-109568556D01*
X135496041Y-109522175D01*
X135745066Y-109425584D01*
X135970588Y-109282464D01*
X136164016Y-109098265D01*
X136317982Y-108880004D01*
X136426622Y-108635994D01*
X136485798Y-108375530D01*
X136490058Y-108070449D01*
X136438178Y-107808434D01*
X136336393Y-107561486D01*
X136188581Y-107339011D01*
X136000372Y-107149483D01*
X135778935Y-107000122D01*
X135620968Y-106933719D01*
X135745066Y-106885584D01*
X135970588Y-106742464D01*
X136164016Y-106558265D01*
X136317982Y-106340004D01*
X136426622Y-106095994D01*
X136485798Y-105835530D01*
X136490058Y-105530449D01*
X136438178Y-105268434D01*
X136336393Y-105021486D01*
X136188581Y-104799011D01*
X136000372Y-104609483D01*
X135778935Y-104460122D01*
X135620968Y-104393719D01*
X135745066Y-104345584D01*
X135970588Y-104202464D01*
X136164016Y-104018265D01*
X136317982Y-103800004D01*
X136426622Y-103555994D01*
X136485798Y-103295530D01*
X136490058Y-102990449D01*
X136438178Y-102728434D01*
X136336393Y-102481486D01*
X136188581Y-102259011D01*
X136000372Y-102069483D01*
X135778935Y-101920122D01*
X135620968Y-101853719D01*
X135745066Y-101805584D01*
X135970588Y-101662464D01*
X136164016Y-101478265D01*
X136317982Y-101260004D01*
X136426622Y-101015994D01*
X136485798Y-100755530D01*
X136490058Y-100450449D01*
X136438178Y-100188434D01*
X136336393Y-99941486D01*
X136188581Y-99719011D01*
X136000372Y-99529483D01*
X135778935Y-99380122D01*
X135620968Y-99313719D01*
X135745066Y-99265584D01*
X135970588Y-99122464D01*
X136164016Y-98938265D01*
X136317982Y-98720004D01*
X136426622Y-98475994D01*
X136485798Y-98215530D01*
X136490058Y-97910449D01*
X136438178Y-97648434D01*
X136336393Y-97401486D01*
X136188581Y-97179011D01*
X136000372Y-96989483D01*
X135778935Y-96840122D01*
X135620968Y-96773719D01*
X135745066Y-96725584D01*
X135970588Y-96582464D01*
X136164016Y-96398265D01*
X136317982Y-96180004D01*
X136426622Y-95935994D01*
X136485798Y-95675530D01*
X136490058Y-95370449D01*
X136438178Y-95108434D01*
X136336393Y-94861486D01*
X136188581Y-94639011D01*
X136000372Y-94449483D01*
X135811237Y-94321910D01*
X135929450Y-94264190D01*
X136022518Y-94202003D01*
X136071174Y-93912831D01*
X135128000Y-92969657D01*
X135113858Y-92983799D01*
X135108201Y-92978142D01*
X135122343Y-92964000D01*
X135133657Y-92964000D01*
X136076831Y-93907174D01*
X136366003Y-93858518D01*
X136516727Y-93599807D01*
X136614083Y-93316663D01*
X136654330Y-93019966D01*
X136635920Y-92721118D01*
X136559562Y-92431604D01*
X136428190Y-92162550D01*
X136366003Y-92069482D01*
X136076831Y-92020826D01*
X135133657Y-92964000D01*
X135122343Y-92964000D01*
X134179169Y-92020826D01*
X133889997Y-92069482D01*
X133792000Y-92237689D01*
X133792000Y-90689937D01*
X133812427Y-90801235D01*
X133910754Y-91049580D01*
X134055445Y-91274097D01*
X134240990Y-91466234D01*
X134443267Y-91606820D01*
X134326550Y-91663810D01*
X134233482Y-91725997D01*
X134184826Y-92015169D01*
X135128000Y-92958343D01*
X136071174Y-92015169D01*
X136022518Y-91725997D01*
X135811800Y-91603234D01*
X135970588Y-91502464D01*
X136164016Y-91318265D01*
X136317982Y-91100004D01*
X136426622Y-90855994D01*
X136485798Y-90595530D01*
X136490058Y-90290449D01*
X136438178Y-90028434D01*
X136336393Y-89781486D01*
X136243970Y-89642378D01*
X136292343Y-89652000D01*
X136773500Y-89652000D01*
X136963000Y-89462500D01*
X136963000Y-88523000D01*
X136971000Y-88523000D01*
X136971000Y-89462500D01*
X137160500Y-89652000D01*
X137641657Y-89652000D01*
X137788101Y-89622870D01*
X137926048Y-89565731D01*
X138050197Y-89482777D01*
X138155777Y-89377196D01*
X138238731Y-89253047D01*
X138295871Y-89115100D01*
X138325000Y-88968656D01*
X138325000Y-88712500D01*
X138135500Y-88523000D01*
X136971000Y-88523000D01*
X136963000Y-88523000D01*
X136943000Y-88523000D01*
X136943000Y-88515000D01*
X136963000Y-88515000D01*
X136963000Y-87575500D01*
X136971000Y-87575500D01*
X136971000Y-88515000D01*
X138135500Y-88515000D01*
X138325000Y-88325500D01*
X138325000Y-88069344D01*
X138295871Y-87922900D01*
X138238731Y-87784953D01*
X138155777Y-87660804D01*
X138050197Y-87555223D01*
X137926048Y-87472269D01*
X137788101Y-87415130D01*
X137641657Y-87386000D01*
X137160500Y-87386000D01*
X136971000Y-87575500D01*
X136963000Y-87575500D01*
X136773500Y-87386000D01*
X136292343Y-87386000D01*
X136145899Y-87415130D01*
X136007952Y-87472269D01*
X135883803Y-87555223D01*
X135861913Y-87577113D01*
X135834965Y-87564966D01*
X135667000Y-87541097D01*
X135503310Y-87541097D01*
X134792002Y-86829788D01*
X134792002Y-83119002D01*
X134782986Y-83027052D01*
X134774937Y-82935051D01*
X134773470Y-82930002D01*
X134772957Y-82924768D01*
X134746248Y-82836302D01*
X134720487Y-82747634D01*
X134718069Y-82742968D01*
X134716548Y-82737932D01*
X134673182Y-82656371D01*
X134630673Y-82574363D01*
X134627391Y-82570252D01*
X134624923Y-82565610D01*
X134566573Y-82494066D01*
X134508913Y-82421836D01*
X134501693Y-82414515D01*
X134501573Y-82414368D01*
X134501437Y-82414255D01*
X134499109Y-82411895D01*
X132010214Y-79923000D01*
X144735092Y-79923000D01*
X144697356Y-79947694D01*
X144368085Y-80270140D01*
X144107715Y-80650401D01*
X143926163Y-81073993D01*
X143830345Y-81524780D01*
X143823911Y-81985594D01*
X143907105Y-82438882D01*
X144076758Y-82867378D01*
X144326409Y-83254760D01*
X144646548Y-83586274D01*
X145024982Y-83849293D01*
X145447296Y-84033797D01*
X145897404Y-84132760D01*
X146358162Y-84142411D01*
X146812019Y-84062384D01*
X147241689Y-83895726D01*
X147630805Y-83648786D01*
X147964546Y-83330968D01*
X148042000Y-83221170D01*
X148042000Y-89408000D01*
X148048082Y-89470031D01*
X148053518Y-89532167D01*
X148054509Y-89535577D01*
X148054855Y-89539108D01*
X148072879Y-89598808D01*
X148090272Y-89658673D01*
X148091904Y-89661822D01*
X148092931Y-89665223D01*
X148106158Y-89690099D01*
X147780139Y-89525415D01*
X147342906Y-89403337D01*
X146890288Y-89368510D01*
X146439526Y-89422260D01*
X146007788Y-89562540D01*
X145611520Y-89784007D01*
X145265816Y-90078225D01*
X144983842Y-90433987D01*
X144776340Y-90837742D01*
X144651213Y-91274112D01*
X144613227Y-91726476D01*
X144663829Y-92177603D01*
X144801091Y-92610309D01*
X145019786Y-93008113D01*
X145311583Y-93355863D01*
X145665368Y-93640314D01*
X146067665Y-93850630D01*
X146503151Y-93978800D01*
X146955238Y-94019943D01*
X147406707Y-93972492D01*
X147840361Y-93838254D01*
X148239683Y-93622341D01*
X148589462Y-93332979D01*
X148804000Y-93069929D01*
X148804000Y-93319406D01*
X148239703Y-93883703D01*
X148200130Y-93931879D01*
X148160048Y-93979647D01*
X148158339Y-93982757D01*
X148156085Y-93985500D01*
X148126593Y-94040502D01*
X148096584Y-94095089D01*
X148095512Y-94098467D01*
X148093832Y-94101601D01*
X148075588Y-94161275D01*
X148056750Y-94220660D01*
X148056354Y-94224188D01*
X148055317Y-94227581D01*
X148049016Y-94289615D01*
X148042066Y-94351576D01*
X148042017Y-94358512D01*
X148042004Y-94358644D01*
X148042016Y-94358767D01*
X148042000Y-94361000D01*
X148042000Y-104648000D01*
X148048082Y-104710031D01*
X148053518Y-104772167D01*
X148054509Y-104775577D01*
X148054855Y-104779108D01*
X148072879Y-104838808D01*
X148090272Y-104898673D01*
X148091904Y-104901822D01*
X148092931Y-104905223D01*
X148106158Y-104930099D01*
X147780139Y-104765415D01*
X147342906Y-104643337D01*
X146890288Y-104608510D01*
X146439526Y-104662260D01*
X146007788Y-104802540D01*
X145611520Y-105024007D01*
X145265816Y-105318225D01*
X144983842Y-105673987D01*
X144776340Y-106077742D01*
X144651213Y-106514112D01*
X144613227Y-106966476D01*
X144663829Y-107417603D01*
X144801091Y-107850309D01*
X145019786Y-108248113D01*
X145311583Y-108595863D01*
X145665368Y-108880314D01*
X146067665Y-109090630D01*
X146503151Y-109218800D01*
X146955238Y-109259943D01*
X147406707Y-109212492D01*
X147840361Y-109078254D01*
X148239683Y-108862341D01*
X148589462Y-108572979D01*
X148804000Y-108309929D01*
X148804000Y-108432406D01*
X148239703Y-108996703D01*
X148200130Y-109044879D01*
X148160048Y-109092647D01*
X148158339Y-109095757D01*
X148156085Y-109098500D01*
X148126593Y-109153502D01*
X148096584Y-109208089D01*
X148095512Y-109211467D01*
X148093832Y-109214601D01*
X148075588Y-109274275D01*
X148056750Y-109333660D01*
X148056354Y-109337188D01*
X148055317Y-109340581D01*
X148049016Y-109402615D01*
X148042066Y-109464576D01*
X148042017Y-109471512D01*
X148042004Y-109471644D01*
X148042016Y-109471767D01*
X148042000Y-109474000D01*
X148042000Y-115273327D01*
X148006931Y-115220544D01*
X147682195Y-114893532D01*
X147300125Y-114635823D01*
X146875276Y-114457233D01*
X146423830Y-114364565D01*
X145962983Y-114361347D01*
X145510287Y-114447704D01*
X145082986Y-114620345D01*
X144697356Y-114872694D01*
X144368085Y-115195140D01*
X144107715Y-115575401D01*
X143926163Y-115998993D01*
X143830345Y-116449780D01*
X143823911Y-116910594D01*
X143907105Y-117363882D01*
X144076758Y-117792378D01*
X144326409Y-118179760D01*
X144646548Y-118511274D01*
X144742554Y-118578000D01*
X112699165Y-118578000D01*
X112705805Y-118573786D01*
X113039546Y-118255968D01*
X113305200Y-117879380D01*
X113492648Y-117458364D01*
X113594751Y-117008958D01*
X113602101Y-116482571D01*
X113512586Y-116030489D01*
X113336967Y-115604403D01*
X113081931Y-115220544D01*
X112757195Y-114893532D01*
X112375125Y-114635823D01*
X111950276Y-114457233D01*
X111498830Y-114364565D01*
X111037983Y-114361347D01*
X110585287Y-114447704D01*
X110157986Y-114620345D01*
X109772356Y-114872694D01*
X109443085Y-115195140D01*
X109387000Y-115277050D01*
X109387000Y-107341343D01*
X117612000Y-107341343D01*
X117612000Y-107822500D01*
X117801500Y-108012000D01*
X118741000Y-108012000D01*
X118741000Y-106847500D01*
X118551500Y-106658000D01*
X118295344Y-106658000D01*
X118148900Y-106687129D01*
X118010953Y-106744269D01*
X117886804Y-106827223D01*
X117781223Y-106932803D01*
X117698269Y-107056952D01*
X117641130Y-107194899D01*
X117612000Y-107341343D01*
X109387000Y-107341343D01*
X109387000Y-103886500D01*
X111008000Y-103886500D01*
X111008000Y-104367657D01*
X111037130Y-104514101D01*
X111094269Y-104652048D01*
X111177223Y-104776197D01*
X111282804Y-104881777D01*
X111406953Y-104964731D01*
X111544900Y-105021871D01*
X111691344Y-105051000D01*
X111947500Y-105051000D01*
X112137000Y-104861500D01*
X112137000Y-103697000D01*
X111197500Y-103697000D01*
X111008000Y-103886500D01*
X109387000Y-103886500D01*
X109387000Y-92148539D01*
X111821428Y-92148539D01*
X111839102Y-92434900D01*
X111912301Y-92712311D01*
X112038214Y-92970111D01*
X112097618Y-93059013D01*
X112380289Y-93100055D01*
X113278343Y-92202000D01*
X112380289Y-91303945D01*
X112097618Y-91344987D01*
X111953219Y-91592907D01*
X111859961Y-91864233D01*
X111821428Y-92148539D01*
X109387000Y-92148539D01*
X109387000Y-83232402D01*
X109401409Y-83254760D01*
X109721548Y-83586274D01*
X110099982Y-83849293D01*
X110522296Y-84033797D01*
X110972404Y-84132760D01*
X111433162Y-84142411D01*
X111887019Y-84062384D01*
X111927917Y-84046521D01*
X111859961Y-84244233D01*
X111821428Y-84528539D01*
X111839102Y-84814900D01*
X111912301Y-85092311D01*
X112038214Y-85350111D01*
X112097618Y-85439013D01*
X112380289Y-85480055D01*
X113278343Y-84582000D01*
X113264201Y-84567858D01*
X113269858Y-84562201D01*
X113284000Y-84576343D01*
X114182055Y-83678289D01*
X114141013Y-83395618D01*
X113893093Y-83251219D01*
X113621767Y-83157961D01*
X113337461Y-83119428D01*
X113182003Y-83129023D01*
X113305200Y-82954380D01*
X113492648Y-82533364D01*
X113594751Y-82083958D01*
X113602101Y-81557571D01*
X113512586Y-81105489D01*
X113336967Y-80679403D01*
X113081931Y-80295544D01*
X112757195Y-79968532D01*
X112689691Y-79923000D01*
X118433786Y-79923000D01*
X116986689Y-81370097D01*
X116986689Y-81370097D01*
G37*
X116986689Y-81370097D02*
X116791000Y-81370097D01*
X116695452Y-81377716D01*
X116533393Y-81427903D01*
X116391731Y-81521252D01*
X116281685Y-81650370D01*
X116211966Y-81805035D01*
X116188097Y-81973000D01*
X116188097Y-82211689D01*
X114548198Y-83851588D01*
X114529786Y-83813889D01*
X114470382Y-83724987D01*
X114187711Y-83683945D01*
X113289657Y-84582000D01*
X113303799Y-84596142D01*
X113298142Y-84601799D01*
X113284000Y-84587657D01*
X112385945Y-85485711D01*
X112426987Y-85768382D01*
X112674907Y-85912781D01*
X112946233Y-86006039D01*
X113230539Y-86044572D01*
X113516900Y-86026898D01*
X113794311Y-85953699D01*
X113808000Y-85947013D01*
X113808000Y-90841972D01*
X113621767Y-90777961D01*
X113337461Y-90739428D01*
X113051100Y-90757102D01*
X112773689Y-90830301D01*
X112515889Y-90956214D01*
X112426987Y-91015618D01*
X112385945Y-91298289D01*
X113284000Y-92196343D01*
X113298142Y-92182201D01*
X113303799Y-92187858D01*
X113289657Y-92202000D01*
X113303799Y-92216142D01*
X113298142Y-92221799D01*
X113284000Y-92207657D01*
X112385945Y-93105711D01*
X112426987Y-93388382D01*
X112674907Y-93532781D01*
X112692097Y-93538689D01*
X111433893Y-94796893D01*
X111375242Y-94868297D01*
X111315887Y-94939033D01*
X111313354Y-94943640D01*
X111310016Y-94947704D01*
X111266353Y-95029136D01*
X111221865Y-95110058D01*
X111220276Y-95115068D01*
X111217790Y-95119704D01*
X111190790Y-95208018D01*
X111162852Y-95296088D01*
X111162265Y-95301318D01*
X111160729Y-95306343D01*
X111151399Y-95398195D01*
X111141097Y-95490038D01*
X111141026Y-95500316D01*
X111141006Y-95500509D01*
X111141023Y-95500689D01*
X111141000Y-95504000D01*
X111141000Y-101793000D01*
X111160045Y-101987234D01*
X111163097Y-101997343D01*
X111163097Y-102393000D01*
X111170716Y-102488548D01*
X111200926Y-102586100D01*
X111177223Y-102609803D01*
X111094269Y-102733952D01*
X111037130Y-102871899D01*
X111008000Y-103018343D01*
X111008000Y-103499500D01*
X111197500Y-103689000D01*
X112137000Y-103689000D01*
X112137000Y-103669000D01*
X112145000Y-103669000D01*
X112145000Y-103689000D01*
X112165000Y-103689000D01*
X112165000Y-103697000D01*
X112145000Y-103697000D01*
X112145000Y-104861500D01*
X112334500Y-105051000D01*
X112590656Y-105051000D01*
X112737100Y-105021871D01*
X112875047Y-104964731D01*
X112930815Y-104927468D01*
X113145620Y-105043098D01*
X113400144Y-105121126D01*
X113665000Y-105148000D01*
X113915000Y-105148000D01*
X113915000Y-103794000D01*
X113895000Y-103794000D01*
X113895000Y-103786000D01*
X113915000Y-103786000D01*
X113915000Y-103766000D01*
X113923000Y-103766000D01*
X113923000Y-103786000D01*
X113943000Y-103786000D01*
X113943000Y-103794000D01*
X113923000Y-103794000D01*
X113923000Y-105148000D01*
X114173000Y-105148000D01*
X114437856Y-105121126D01*
X114692380Y-105043098D01*
X114926791Y-104916914D01*
X115108181Y-104767155D01*
X115114223Y-104776197D01*
X115219804Y-104881777D01*
X115343953Y-104964731D01*
X115481900Y-105021871D01*
X115628344Y-105051000D01*
X115884500Y-105051000D01*
X116074000Y-104861500D01*
X116074000Y-103697000D01*
X116054000Y-103697000D01*
X116054000Y-103689000D01*
X116074000Y-103689000D01*
X116074000Y-103669000D01*
X116082000Y-103669000D01*
X116082000Y-103689000D01*
X117021500Y-103689000D01*
X117179499Y-103531001D01*
X117339771Y-103665485D01*
X117307361Y-103682911D01*
X117142988Y-103818488D01*
X117021500Y-103697000D01*
X116082000Y-103697000D01*
X116082000Y-104861500D01*
X116271500Y-105051000D01*
X116527656Y-105051000D01*
X116618140Y-105033002D01*
X116779505Y-105033002D01*
X116610595Y-105286624D01*
X116620378Y-105341435D01*
X116711906Y-105645864D01*
X116861066Y-105926587D01*
X117062127Y-106172816D01*
X117307361Y-106375089D01*
X117587345Y-106525632D01*
X117891318Y-106618661D01*
X118207600Y-106650600D01*
X118360000Y-106650600D01*
X118360000Y-105033000D01*
X118340000Y-105033000D01*
X118340000Y-105025000D01*
X118360000Y-105025000D01*
X118360000Y-105005000D01*
X118368000Y-105005000D01*
X118368000Y-105025000D01*
X118388000Y-105025000D01*
X118388000Y-105033000D01*
X118368000Y-105033000D01*
X118368000Y-106650600D01*
X118520400Y-106650600D01*
X118761000Y-106626304D01*
X118761000Y-106835500D01*
X118749000Y-106847500D01*
X118749000Y-108012000D01*
X118761000Y-108012000D01*
X118761000Y-108020000D01*
X118749000Y-108020000D01*
X118749000Y-108040000D01*
X118741000Y-108040000D01*
X118741000Y-108020000D01*
X117801500Y-108020000D01*
X117612000Y-108209500D01*
X117612000Y-108690657D01*
X117641130Y-108837101D01*
X117698269Y-108975048D01*
X117736323Y-109032000D01*
X117418249Y-109032000D01*
X117323686Y-108936774D01*
X117104199Y-108788729D01*
X116860137Y-108686134D01*
X116600796Y-108632899D01*
X116336054Y-108631051D01*
X116075995Y-108680660D01*
X115830524Y-108779836D01*
X115608992Y-108924803D01*
X115419836Y-109110038D01*
X115270262Y-109328486D01*
X115165966Y-109571826D01*
X115110922Y-109830789D01*
X115107226Y-110095512D01*
X115155018Y-110355911D01*
X115252478Y-110602068D01*
X115395895Y-110824607D01*
X115579805Y-111015051D01*
X115797203Y-111166147D01*
X116039809Y-111272139D01*
X116298381Y-111328989D01*
X116563072Y-111334534D01*
X116823798Y-111288561D01*
X117070630Y-111192821D01*
X117294164Y-111050962D01*
X117419087Y-110932000D01*
X117937883Y-110932000D01*
X118047370Y-111025315D01*
X118202035Y-111095034D01*
X118370000Y-111118903D01*
X119120000Y-111118903D01*
X119215548Y-111111284D01*
X119377607Y-111061097D01*
X119519269Y-110967748D01*
X119629315Y-110838630D01*
X119699034Y-110683965D01*
X119709486Y-110610413D01*
X119734402Y-110590092D01*
X119827000Y-110478161D01*
X119827000Y-111493497D01*
X118919401Y-112401097D01*
X118370000Y-112401097D01*
X118274452Y-112408716D01*
X118112393Y-112458903D01*
X117970731Y-112552252D01*
X117884012Y-112654000D01*
X117790000Y-112654000D01*
X117702700Y-112662560D01*
X117615247Y-112670211D01*
X117610446Y-112671606D01*
X117605477Y-112672093D01*
X117521493Y-112697449D01*
X117437201Y-112721938D01*
X117432766Y-112724237D01*
X117427983Y-112725681D01*
X117350499Y-112766880D01*
X117272593Y-112807263D01*
X117268689Y-112810380D01*
X117264278Y-112812725D01*
X117196270Y-112868192D01*
X117127694Y-112922935D01*
X117120738Y-112929794D01*
X117120598Y-112929908D01*
X117120491Y-112930037D01*
X117118249Y-112932248D01*
X116538037Y-113512461D01*
X116336054Y-113511051D01*
X116075995Y-113560660D01*
X115830524Y-113659836D01*
X115608992Y-113804803D01*
X115419836Y-113990038D01*
X115270262Y-114208486D01*
X115165966Y-114451826D01*
X115110922Y-114710789D01*
X115107226Y-114975512D01*
X115155018Y-115235911D01*
X115252478Y-115482068D01*
X115395895Y-115704607D01*
X115579805Y-115895051D01*
X115797203Y-116046147D01*
X116039809Y-116152139D01*
X116298381Y-116208989D01*
X116563072Y-116214534D01*
X116823798Y-116168561D01*
X117070630Y-116072821D01*
X117294164Y-115930962D01*
X117485888Y-115748386D01*
X117638498Y-115532048D01*
X117649204Y-115508002D01*
X117801498Y-115508002D01*
X117612000Y-115697500D01*
X117612000Y-116178657D01*
X117641130Y-116325101D01*
X117698269Y-116463048D01*
X117781223Y-116587197D01*
X117886804Y-116692777D01*
X118010953Y-116775731D01*
X118148900Y-116832871D01*
X118295344Y-116862000D01*
X118551500Y-116862000D01*
X118741000Y-116672500D01*
X118741000Y-115508000D01*
X118749000Y-115508000D01*
X118749000Y-116672500D01*
X118938500Y-116862000D01*
X119194656Y-116862000D01*
X119341100Y-116832871D01*
X119479047Y-116775731D01*
X119603196Y-116692777D01*
X119708777Y-116587197D01*
X119791731Y-116463048D01*
X119848870Y-116325101D01*
X119878000Y-116178657D01*
X119878000Y-115697500D01*
X119688500Y-115508000D01*
X118749000Y-115508000D01*
X118741000Y-115508000D01*
X118721000Y-115508000D01*
X118721000Y-115500000D01*
X118741000Y-115500000D01*
X118741000Y-115480000D01*
X118749000Y-115480000D01*
X118749000Y-115500000D01*
X119688500Y-115500000D01*
X119878000Y-115310500D01*
X119878000Y-114829343D01*
X119848870Y-114682899D01*
X119791731Y-114544952D01*
X119708777Y-114420803D01*
X119686887Y-114398913D01*
X119699034Y-114371965D01*
X119709985Y-114294901D01*
X119722307Y-114285065D01*
X119729259Y-114278208D01*
X119729402Y-114278092D01*
X119729511Y-114277960D01*
X119731751Y-114275751D01*
X120867933Y-113139570D01*
X120882539Y-113219154D01*
X120998048Y-113510896D01*
X121168023Y-113774645D01*
X121385990Y-114000357D01*
X121449208Y-114044294D01*
X121420583Y-114063026D01*
X121196398Y-114282563D01*
X121019125Y-114541464D01*
X120895515Y-114829867D01*
X120830278Y-115136787D01*
X120825897Y-115450532D01*
X120882539Y-115759154D01*
X120998048Y-116050896D01*
X121168023Y-116314645D01*
X121385990Y-116540357D01*
X121643648Y-116719433D01*
X121931180Y-116845054D01*
X122237637Y-116912432D01*
X122551344Y-116919004D01*
X122860354Y-116864517D01*
X123152895Y-116751048D01*
X123417825Y-116582918D01*
X123645053Y-116366532D01*
X123825924Y-116110131D01*
X123953548Y-115823482D01*
X124023064Y-115517504D01*
X124028069Y-115159112D01*
X123967123Y-114851311D01*
X123847552Y-114561211D01*
X123673911Y-114299860D01*
X123452813Y-114077213D01*
X123409655Y-114048103D01*
X123417825Y-114042918D01*
X123645053Y-113826532D01*
X123825924Y-113570131D01*
X123953548Y-113283482D01*
X124023064Y-112977504D01*
X124028069Y-112619112D01*
X123967123Y-112311311D01*
X123847552Y-112021211D01*
X123673911Y-111759860D01*
X123452813Y-111537213D01*
X123409655Y-111508103D01*
X123417825Y-111502918D01*
X123645053Y-111286532D01*
X123825924Y-111030131D01*
X123953548Y-110743482D01*
X124023064Y-110437504D01*
X124028069Y-110079112D01*
X123967123Y-109771311D01*
X123847552Y-109481211D01*
X123673911Y-109219860D01*
X123452813Y-108997213D01*
X123409655Y-108968103D01*
X123417825Y-108962918D01*
X123645053Y-108746532D01*
X123825924Y-108490131D01*
X123953548Y-108203482D01*
X124023064Y-107897504D01*
X124028069Y-107539112D01*
X123967123Y-107231311D01*
X123847552Y-106941211D01*
X123673911Y-106679860D01*
X123452813Y-106457213D01*
X123409655Y-106428103D01*
X123417825Y-106422918D01*
X123645053Y-106206532D01*
X123825924Y-105950131D01*
X123953548Y-105663482D01*
X124023064Y-105357504D01*
X124028069Y-104999112D01*
X123967123Y-104691311D01*
X123847552Y-104401211D01*
X123673911Y-104139860D01*
X123452813Y-103917213D01*
X123409655Y-103888103D01*
X123417825Y-103882918D01*
X123645053Y-103666532D01*
X123825924Y-103410131D01*
X123953548Y-103123482D01*
X124023064Y-102817504D01*
X124028069Y-102459112D01*
X123967123Y-102151311D01*
X123847552Y-101861211D01*
X123673911Y-101599860D01*
X123486746Y-101411384D01*
X123540280Y-101193937D01*
X122428000Y-100081657D01*
X121315720Y-101193937D01*
X121369632Y-101412921D01*
X121196398Y-101582563D01*
X121019125Y-101841464D01*
X120895515Y-102129867D01*
X120830278Y-102436787D01*
X120825897Y-102750532D01*
X120834171Y-102795615D01*
X119942893Y-103686893D01*
X119884242Y-103758297D01*
X119824887Y-103829033D01*
X119822354Y-103833640D01*
X119819016Y-103837704D01*
X119775353Y-103919136D01*
X119742457Y-103978972D01*
X119665873Y-103885184D01*
X119420639Y-103682911D01*
X119387109Y-103664882D01*
X119555522Y-103527528D01*
X119737598Y-103307435D01*
X119873458Y-103056168D01*
X119957925Y-102783298D01*
X119987783Y-102499218D01*
X119961895Y-102214749D01*
X119953611Y-102186603D01*
X121022684Y-101117530D01*
X121310063Y-101188280D01*
X122422343Y-100076000D01*
X122408201Y-100061858D01*
X122413858Y-100056201D01*
X122428000Y-100070343D01*
X122442142Y-100056201D01*
X122447799Y-100061858D01*
X122433657Y-100076000D01*
X123545937Y-101188280D01*
X123859480Y-101111088D01*
X124033911Y-100811931D01*
X124146627Y-100484492D01*
X124193296Y-100141355D01*
X124189326Y-100076540D01*
X125845893Y-101733107D01*
X125917297Y-101791758D01*
X125988033Y-101851113D01*
X125992640Y-101853646D01*
X125996704Y-101856984D01*
X126078136Y-101900647D01*
X126159058Y-101945135D01*
X126164068Y-101946724D01*
X126168704Y-101949210D01*
X126257018Y-101976210D01*
X126345088Y-102004148D01*
X126350318Y-102004735D01*
X126355343Y-102006271D01*
X126447195Y-102015601D01*
X126539038Y-102025903D01*
X126549316Y-102025974D01*
X126549509Y-102025994D01*
X126549689Y-102025977D01*
X126553000Y-102026000D01*
X126809110Y-102026000D01*
X126937370Y-102135315D01*
X127092035Y-102205034D01*
X127260000Y-102228903D01*
X128010000Y-102228903D01*
X128105548Y-102221284D01*
X128207498Y-102189712D01*
X128451031Y-102433245D01*
X128450278Y-102436787D01*
X128445897Y-102750532D01*
X128502539Y-103059154D01*
X128618048Y-103350896D01*
X128788023Y-103614645D01*
X129005990Y-103840357D01*
X129069208Y-103884294D01*
X129040583Y-103903026D01*
X128816398Y-104122563D01*
X128639125Y-104381464D01*
X128515515Y-104669867D01*
X128450278Y-104976787D01*
X128445897Y-105290532D01*
X128502539Y-105599154D01*
X128618048Y-105890896D01*
X128788023Y-106154645D01*
X129005990Y-106380357D01*
X129069208Y-106424294D01*
X129040583Y-106443026D01*
X128816398Y-106662563D01*
X128639125Y-106921464D01*
X128515515Y-107209867D01*
X128450278Y-107516787D01*
X128445897Y-107830532D01*
X128502539Y-108139154D01*
X128618048Y-108430896D01*
X128788023Y-108694645D01*
X129005990Y-108920357D01*
X129069208Y-108964294D01*
X129040583Y-108983026D01*
X128816398Y-109202563D01*
X128639125Y-109461464D01*
X128515515Y-109749867D01*
X128450278Y-110056787D01*
X128445897Y-110370532D01*
X128502539Y-110679154D01*
X128618048Y-110970896D01*
X128788023Y-111234645D01*
X129005990Y-111460357D01*
X129069208Y-111504294D01*
X129040583Y-111523026D01*
X128816398Y-111742563D01*
X128639125Y-112001464D01*
X128515515Y-112289867D01*
X128450278Y-112596787D01*
X128445897Y-112910532D01*
X128502539Y-113219154D01*
X128618048Y-113510896D01*
X128788023Y-113774645D01*
X129005990Y-114000357D01*
X129069208Y-114044294D01*
X129040583Y-114063026D01*
X128816398Y-114282563D01*
X128639125Y-114541464D01*
X128515515Y-114829867D01*
X128450278Y-115136787D01*
X128445897Y-115450532D01*
X128502539Y-115759154D01*
X128618048Y-116050896D01*
X128788023Y-116314645D01*
X129005990Y-116540357D01*
X129263648Y-116719433D01*
X129551180Y-116845054D01*
X129857637Y-116912432D01*
X130171344Y-116919004D01*
X130480354Y-116864517D01*
X130772895Y-116751048D01*
X131037825Y-116582918D01*
X131265053Y-116366532D01*
X131445924Y-116110131D01*
X131573548Y-115823482D01*
X131643064Y-115517504D01*
X131648069Y-115159112D01*
X131587123Y-114851311D01*
X131467552Y-114561211D01*
X131293911Y-114299860D01*
X131072813Y-114077213D01*
X131029655Y-114048103D01*
X131037825Y-114042918D01*
X131265053Y-113826532D01*
X131445924Y-113570131D01*
X131573548Y-113283482D01*
X131643064Y-112977504D01*
X131648069Y-112619112D01*
X131587123Y-112311311D01*
X131467552Y-112021211D01*
X131293911Y-111759860D01*
X131072813Y-111537213D01*
X131029655Y-111508103D01*
X131037825Y-111502918D01*
X131265053Y-111286532D01*
X131445924Y-111030131D01*
X131573548Y-110743482D01*
X131643064Y-110437504D01*
X131648069Y-110079112D01*
X131587123Y-109771311D01*
X131467552Y-109481211D01*
X131293911Y-109219860D01*
X131278161Y-109204000D01*
X134200205Y-109204000D01*
X134240990Y-109246234D01*
X134460320Y-109398672D01*
X134705082Y-109505606D01*
X134965954Y-109562963D01*
X135232997Y-109568556D01*
X135496041Y-109522175D01*
X135745066Y-109425584D01*
X135970588Y-109282464D01*
X136164016Y-109098265D01*
X136317982Y-108880004D01*
X136426622Y-108635994D01*
X136485798Y-108375530D01*
X136490058Y-108070449D01*
X136438178Y-107808434D01*
X136336393Y-107561486D01*
X136188581Y-107339011D01*
X136000372Y-107149483D01*
X135778935Y-107000122D01*
X135620968Y-106933719D01*
X135745066Y-106885584D01*
X135970588Y-106742464D01*
X136164016Y-106558265D01*
X136317982Y-106340004D01*
X136426622Y-106095994D01*
X136485798Y-105835530D01*
X136490058Y-105530449D01*
X136438178Y-105268434D01*
X136336393Y-105021486D01*
X136188581Y-104799011D01*
X136000372Y-104609483D01*
X135778935Y-104460122D01*
X135620968Y-104393719D01*
X135745066Y-104345584D01*
X135970588Y-104202464D01*
X136164016Y-104018265D01*
X136317982Y-103800004D01*
X136426622Y-103555994D01*
X136485798Y-103295530D01*
X136490058Y-102990449D01*
X136438178Y-102728434D01*
X136336393Y-102481486D01*
X136188581Y-102259011D01*
X136000372Y-102069483D01*
X135778935Y-101920122D01*
X135620968Y-101853719D01*
X135745066Y-101805584D01*
X135970588Y-101662464D01*
X136164016Y-101478265D01*
X136317982Y-101260004D01*
X136426622Y-101015994D01*
X136485798Y-100755530D01*
X136490058Y-100450449D01*
X136438178Y-100188434D01*
X136336393Y-99941486D01*
X136188581Y-99719011D01*
X136000372Y-99529483D01*
X135778935Y-99380122D01*
X135620968Y-99313719D01*
X135745066Y-99265584D01*
X135970588Y-99122464D01*
X136164016Y-98938265D01*
X136317982Y-98720004D01*
X136426622Y-98475994D01*
X136485798Y-98215530D01*
X136490058Y-97910449D01*
X136438178Y-97648434D01*
X136336393Y-97401486D01*
X136188581Y-97179011D01*
X136000372Y-96989483D01*
X135778935Y-96840122D01*
X135620968Y-96773719D01*
X135745066Y-96725584D01*
X135970588Y-96582464D01*
X136164016Y-96398265D01*
X136317982Y-96180004D01*
X136426622Y-95935994D01*
X136485798Y-95675530D01*
X136490058Y-95370449D01*
X136438178Y-95108434D01*
X136336393Y-94861486D01*
X136188581Y-94639011D01*
X136000372Y-94449483D01*
X135811237Y-94321910D01*
X135929450Y-94264190D01*
X136022518Y-94202003D01*
X136071174Y-93912831D01*
X135128000Y-92969657D01*
X135113858Y-92983799D01*
X135108201Y-92978142D01*
X135122343Y-92964000D01*
X135133657Y-92964000D01*
X136076831Y-93907174D01*
X136366003Y-93858518D01*
X136516727Y-93599807D01*
X136614083Y-93316663D01*
X136654330Y-93019966D01*
X136635920Y-92721118D01*
X136559562Y-92431604D01*
X136428190Y-92162550D01*
X136366003Y-92069482D01*
X136076831Y-92020826D01*
X135133657Y-92964000D01*
X135122343Y-92964000D01*
X134179169Y-92020826D01*
X133889997Y-92069482D01*
X133792000Y-92237689D01*
X133792000Y-90689937D01*
X133812427Y-90801235D01*
X133910754Y-91049580D01*
X134055445Y-91274097D01*
X134240990Y-91466234D01*
X134443267Y-91606820D01*
X134326550Y-91663810D01*
X134233482Y-91725997D01*
X134184826Y-92015169D01*
X135128000Y-92958343D01*
X136071174Y-92015169D01*
X136022518Y-91725997D01*
X135811800Y-91603234D01*
X135970588Y-91502464D01*
X136164016Y-91318265D01*
X136317982Y-91100004D01*
X136426622Y-90855994D01*
X136485798Y-90595530D01*
X136490058Y-90290449D01*
X136438178Y-90028434D01*
X136336393Y-89781486D01*
X136243970Y-89642378D01*
X136292343Y-89652000D01*
X136773500Y-89652000D01*
X136963000Y-89462500D01*
X136963000Y-88523000D01*
X136971000Y-88523000D01*
X136971000Y-89462500D01*
X137160500Y-89652000D01*
X137641657Y-89652000D01*
X137788101Y-89622870D01*
X137926048Y-89565731D01*
X138050197Y-89482777D01*
X138155777Y-89377196D01*
X138238731Y-89253047D01*
X138295871Y-89115100D01*
X138325000Y-88968656D01*
X138325000Y-88712500D01*
X138135500Y-88523000D01*
X136971000Y-88523000D01*
X136963000Y-88523000D01*
X136943000Y-88523000D01*
X136943000Y-88515000D01*
X136963000Y-88515000D01*
X136963000Y-87575500D01*
X136971000Y-87575500D01*
X136971000Y-88515000D01*
X138135500Y-88515000D01*
X138325000Y-88325500D01*
X138325000Y-88069344D01*
X138295871Y-87922900D01*
X138238731Y-87784953D01*
X138155777Y-87660804D01*
X138050197Y-87555223D01*
X137926048Y-87472269D01*
X137788101Y-87415130D01*
X137641657Y-87386000D01*
X137160500Y-87386000D01*
X136971000Y-87575500D01*
X136963000Y-87575500D01*
X136773500Y-87386000D01*
X136292343Y-87386000D01*
X136145899Y-87415130D01*
X136007952Y-87472269D01*
X135883803Y-87555223D01*
X135861913Y-87577113D01*
X135834965Y-87564966D01*
X135667000Y-87541097D01*
X135503310Y-87541097D01*
X134792002Y-86829788D01*
X134792002Y-83119002D01*
X134782986Y-83027052D01*
X134774937Y-82935051D01*
X134773470Y-82930002D01*
X134772957Y-82924768D01*
X134746248Y-82836302D01*
X134720487Y-82747634D01*
X134718069Y-82742968D01*
X134716548Y-82737932D01*
X134673182Y-82656371D01*
X134630673Y-82574363D01*
X134627391Y-82570252D01*
X134624923Y-82565610D01*
X134566573Y-82494066D01*
X134508913Y-82421836D01*
X134501693Y-82414515D01*
X134501573Y-82414368D01*
X134501437Y-82414255D01*
X134499109Y-82411895D01*
X132010214Y-79923000D01*
X144735092Y-79923000D01*
X144697356Y-79947694D01*
X144368085Y-80270140D01*
X144107715Y-80650401D01*
X143926163Y-81073993D01*
X143830345Y-81524780D01*
X143823911Y-81985594D01*
X143907105Y-82438882D01*
X144076758Y-82867378D01*
X144326409Y-83254760D01*
X144646548Y-83586274D01*
X145024982Y-83849293D01*
X145447296Y-84033797D01*
X145897404Y-84132760D01*
X146358162Y-84142411D01*
X146812019Y-84062384D01*
X147241689Y-83895726D01*
X147630805Y-83648786D01*
X147964546Y-83330968D01*
X148042000Y-83221170D01*
X148042000Y-89408000D01*
X148048082Y-89470031D01*
X148053518Y-89532167D01*
X148054509Y-89535577D01*
X148054855Y-89539108D01*
X148072879Y-89598808D01*
X148090272Y-89658673D01*
X148091904Y-89661822D01*
X148092931Y-89665223D01*
X148106158Y-89690099D01*
X147780139Y-89525415D01*
X147342906Y-89403337D01*
X146890288Y-89368510D01*
X146439526Y-89422260D01*
X146007788Y-89562540D01*
X145611520Y-89784007D01*
X145265816Y-90078225D01*
X144983842Y-90433987D01*
X144776340Y-90837742D01*
X144651213Y-91274112D01*
X144613227Y-91726476D01*
X144663829Y-92177603D01*
X144801091Y-92610309D01*
X145019786Y-93008113D01*
X145311583Y-93355863D01*
X145665368Y-93640314D01*
X146067665Y-93850630D01*
X146503151Y-93978800D01*
X146955238Y-94019943D01*
X147406707Y-93972492D01*
X147840361Y-93838254D01*
X148239683Y-93622341D01*
X148589462Y-93332979D01*
X148804000Y-93069929D01*
X148804000Y-93319406D01*
X148239703Y-93883703D01*
X148200130Y-93931879D01*
X148160048Y-93979647D01*
X148158339Y-93982757D01*
X148156085Y-93985500D01*
X148126593Y-94040502D01*
X148096584Y-94095089D01*
X148095512Y-94098467D01*
X148093832Y-94101601D01*
X148075588Y-94161275D01*
X148056750Y-94220660D01*
X148056354Y-94224188D01*
X148055317Y-94227581D01*
X148049016Y-94289615D01*
X148042066Y-94351576D01*
X148042017Y-94358512D01*
X148042004Y-94358644D01*
X148042016Y-94358767D01*
X148042000Y-94361000D01*
X148042000Y-104648000D01*
X148048082Y-104710031D01*
X148053518Y-104772167D01*
X148054509Y-104775577D01*
X148054855Y-104779108D01*
X148072879Y-104838808D01*
X148090272Y-104898673D01*
X148091904Y-104901822D01*
X148092931Y-104905223D01*
X148106158Y-104930099D01*
X147780139Y-104765415D01*
X147342906Y-104643337D01*
X146890288Y-104608510D01*
X146439526Y-104662260D01*
X146007788Y-104802540D01*
X145611520Y-105024007D01*
X145265816Y-105318225D01*
X144983842Y-105673987D01*
X144776340Y-106077742D01*
X144651213Y-106514112D01*
X144613227Y-106966476D01*
X144663829Y-107417603D01*
X144801091Y-107850309D01*
X145019786Y-108248113D01*
X145311583Y-108595863D01*
X145665368Y-108880314D01*
X146067665Y-109090630D01*
X146503151Y-109218800D01*
X146955238Y-109259943D01*
X147406707Y-109212492D01*
X147840361Y-109078254D01*
X148239683Y-108862341D01*
X148589462Y-108572979D01*
X148804000Y-108309929D01*
X148804000Y-108432406D01*
X148239703Y-108996703D01*
X148200130Y-109044879D01*
X148160048Y-109092647D01*
X148158339Y-109095757D01*
X148156085Y-109098500D01*
X148126593Y-109153502D01*
X148096584Y-109208089D01*
X148095512Y-109211467D01*
X148093832Y-109214601D01*
X148075588Y-109274275D01*
X148056750Y-109333660D01*
X148056354Y-109337188D01*
X148055317Y-109340581D01*
X148049016Y-109402615D01*
X148042066Y-109464576D01*
X148042017Y-109471512D01*
X148042004Y-109471644D01*
X148042016Y-109471767D01*
X148042000Y-109474000D01*
X148042000Y-115273327D01*
X148006931Y-115220544D01*
X147682195Y-114893532D01*
X147300125Y-114635823D01*
X146875276Y-114457233D01*
X146423830Y-114364565D01*
X145962983Y-114361347D01*
X145510287Y-114447704D01*
X145082986Y-114620345D01*
X144697356Y-114872694D01*
X144368085Y-115195140D01*
X144107715Y-115575401D01*
X143926163Y-115998993D01*
X143830345Y-116449780D01*
X143823911Y-116910594D01*
X143907105Y-117363882D01*
X144076758Y-117792378D01*
X144326409Y-118179760D01*
X144646548Y-118511274D01*
X144742554Y-118578000D01*
X112699165Y-118578000D01*
X112705805Y-118573786D01*
X113039546Y-118255968D01*
X113305200Y-117879380D01*
X113492648Y-117458364D01*
X113594751Y-117008958D01*
X113602101Y-116482571D01*
X113512586Y-116030489D01*
X113336967Y-115604403D01*
X113081931Y-115220544D01*
X112757195Y-114893532D01*
X112375125Y-114635823D01*
X111950276Y-114457233D01*
X111498830Y-114364565D01*
X111037983Y-114361347D01*
X110585287Y-114447704D01*
X110157986Y-114620345D01*
X109772356Y-114872694D01*
X109443085Y-115195140D01*
X109387000Y-115277050D01*
X109387000Y-107341343D01*
X117612000Y-107341343D01*
X117612000Y-107822500D01*
X117801500Y-108012000D01*
X118741000Y-108012000D01*
X118741000Y-106847500D01*
X118551500Y-106658000D01*
X118295344Y-106658000D01*
X118148900Y-106687129D01*
X118010953Y-106744269D01*
X117886804Y-106827223D01*
X117781223Y-106932803D01*
X117698269Y-107056952D01*
X117641130Y-107194899D01*
X117612000Y-107341343D01*
X109387000Y-107341343D01*
X109387000Y-103886500D01*
X111008000Y-103886500D01*
X111008000Y-104367657D01*
X111037130Y-104514101D01*
X111094269Y-104652048D01*
X111177223Y-104776197D01*
X111282804Y-104881777D01*
X111406953Y-104964731D01*
X111544900Y-105021871D01*
X111691344Y-105051000D01*
X111947500Y-105051000D01*
X112137000Y-104861500D01*
X112137000Y-103697000D01*
X111197500Y-103697000D01*
X111008000Y-103886500D01*
X109387000Y-103886500D01*
X109387000Y-92148539D01*
X111821428Y-92148539D01*
X111839102Y-92434900D01*
X111912301Y-92712311D01*
X112038214Y-92970111D01*
X112097618Y-93059013D01*
X112380289Y-93100055D01*
X113278343Y-92202000D01*
X112380289Y-91303945D01*
X112097618Y-91344987D01*
X111953219Y-91592907D01*
X111859961Y-91864233D01*
X111821428Y-92148539D01*
X109387000Y-92148539D01*
X109387000Y-83232402D01*
X109401409Y-83254760D01*
X109721548Y-83586274D01*
X110099982Y-83849293D01*
X110522296Y-84033797D01*
X110972404Y-84132760D01*
X111433162Y-84142411D01*
X111887019Y-84062384D01*
X111927917Y-84046521D01*
X111859961Y-84244233D01*
X111821428Y-84528539D01*
X111839102Y-84814900D01*
X111912301Y-85092311D01*
X112038214Y-85350111D01*
X112097618Y-85439013D01*
X112380289Y-85480055D01*
X113278343Y-84582000D01*
X113264201Y-84567858D01*
X113269858Y-84562201D01*
X113284000Y-84576343D01*
X114182055Y-83678289D01*
X114141013Y-83395618D01*
X113893093Y-83251219D01*
X113621767Y-83157961D01*
X113337461Y-83119428D01*
X113182003Y-83129023D01*
X113305200Y-82954380D01*
X113492648Y-82533364D01*
X113594751Y-82083958D01*
X113602101Y-81557571D01*
X113512586Y-81105489D01*
X113336967Y-80679403D01*
X113081931Y-80295544D01*
X112757195Y-79968532D01*
X112689691Y-79923000D01*
X118433786Y-79923000D01*
X116986689Y-81370097D01*
G36*
X128639125Y-81521464D02*
X128515515Y-81809867D01*
X128450278Y-82116787D01*
X128445897Y-82430532D01*
X128502539Y-82739154D01*
X128618048Y-83030896D01*
X128788023Y-83294645D01*
X129005990Y-83520357D01*
X129069208Y-83564294D01*
X129040583Y-83583026D01*
X128816398Y-83802563D01*
X128639125Y-84061464D01*
X128515515Y-84349867D01*
X128450278Y-84656787D01*
X128445897Y-84970532D01*
X128502539Y-85279154D01*
X128618048Y-85570896D01*
X128788023Y-85834645D01*
X129005990Y-86060357D01*
X129069208Y-86104294D01*
X129040583Y-86123026D01*
X128816398Y-86342563D01*
X128639125Y-86601464D01*
X128515515Y-86889867D01*
X128450278Y-87196787D01*
X128445897Y-87510532D01*
X128502539Y-87819154D01*
X128618048Y-88110896D01*
X128788023Y-88374645D01*
X129005990Y-88600357D01*
X129069208Y-88644294D01*
X129040583Y-88663026D01*
X128816398Y-88882563D01*
X128639125Y-89141464D01*
X128515515Y-89429867D01*
X128450278Y-89736787D01*
X128445897Y-90050532D01*
X128502539Y-90359154D01*
X128618048Y-90650896D01*
X128788023Y-90914645D01*
X129005990Y-91140357D01*
X129069208Y-91184294D01*
X129040583Y-91203026D01*
X128816398Y-91422563D01*
X128639125Y-91681464D01*
X128515515Y-91969867D01*
X128450278Y-92276787D01*
X128445897Y-92590532D01*
X128502539Y-92899154D01*
X128618048Y-93190896D01*
X128788023Y-93454645D01*
X129005990Y-93680357D01*
X129069208Y-93724294D01*
X129040583Y-93743026D01*
X128816398Y-93962563D01*
X128639125Y-94221464D01*
X128515515Y-94509867D01*
X128450278Y-94816787D01*
X128445897Y-95130532D01*
X128502539Y-95439154D01*
X128618048Y-95730896D01*
X128788023Y-95994645D01*
X128988781Y-96202537D01*
X128935720Y-96418063D01*
X130048000Y-97530343D01*
X131160280Y-96418063D01*
X131106082Y-96197918D01*
X131265053Y-96046532D01*
X131445924Y-95790131D01*
X131472019Y-95731521D01*
X133766066Y-98025569D01*
X133764210Y-98158521D01*
X133812427Y-98421235D01*
X133910754Y-98669580D01*
X134055445Y-98894097D01*
X134240990Y-99086234D01*
X134460320Y-99238672D01*
X134634013Y-99314557D01*
X134493938Y-99371151D01*
X134270436Y-99517406D01*
X134079599Y-99704287D01*
X133928695Y-99924677D01*
X133823473Y-100170180D01*
X133767939Y-100431445D01*
X133764210Y-100698521D01*
X133812427Y-100961235D01*
X133910754Y-101209580D01*
X134055445Y-101434097D01*
X134240990Y-101626234D01*
X134460320Y-101778672D01*
X134634013Y-101854557D01*
X134493938Y-101911151D01*
X134270436Y-102057406D01*
X134079599Y-102244287D01*
X133928695Y-102464677D01*
X133823473Y-102710180D01*
X133767939Y-102971445D01*
X133764210Y-103238521D01*
X133812427Y-103501235D01*
X133910754Y-103749580D01*
X134055445Y-103974097D01*
X134240990Y-104166234D01*
X134460320Y-104318672D01*
X134634013Y-104394557D01*
X134493938Y-104451151D01*
X134270436Y-104597406D01*
X134079599Y-104784287D01*
X133928695Y-105004677D01*
X133823473Y-105250180D01*
X133767939Y-105511445D01*
X133764210Y-105778521D01*
X133812427Y-106041235D01*
X133910754Y-106289580D01*
X134055445Y-106514097D01*
X134240990Y-106706234D01*
X134460320Y-106858672D01*
X134634013Y-106934557D01*
X134493938Y-106991151D01*
X134270436Y-107137406D01*
X134202432Y-107204000D01*
X131575866Y-107204000D01*
X131467552Y-106941211D01*
X131293911Y-106679860D01*
X131072813Y-106457213D01*
X131029655Y-106428103D01*
X131037825Y-106422918D01*
X131265053Y-106206532D01*
X131445924Y-105950131D01*
X131573548Y-105663482D01*
X131643064Y-105357504D01*
X131648069Y-104999112D01*
X131587123Y-104691311D01*
X131467552Y-104401211D01*
X131293911Y-104139860D01*
X131072813Y-103917213D01*
X131029655Y-103888103D01*
X131037825Y-103882918D01*
X131265053Y-103666532D01*
X131445924Y-103410131D01*
X131573548Y-103123482D01*
X131643064Y-102817504D01*
X131648069Y-102459112D01*
X131587123Y-102151311D01*
X131467552Y-101861211D01*
X131293911Y-101599860D01*
X131072813Y-101377213D01*
X131029655Y-101348103D01*
X131037825Y-101342918D01*
X131265053Y-101126532D01*
X131445924Y-100870131D01*
X131573548Y-100583482D01*
X131643064Y-100277504D01*
X131648069Y-99919112D01*
X131587123Y-99611311D01*
X131467552Y-99321211D01*
X131293911Y-99059860D01*
X131106746Y-98871384D01*
X131160280Y-98653937D01*
X130048000Y-97541657D01*
X128935720Y-98653937D01*
X128989632Y-98872921D01*
X128816398Y-99042563D01*
X128762008Y-99121998D01*
X128578502Y-99121998D01*
X128768000Y-98932500D01*
X128768000Y-98608381D01*
X128930063Y-98648280D01*
X130042343Y-97536000D01*
X130053657Y-97536000D01*
X131165937Y-98648280D01*
X131479480Y-98571088D01*
X131653911Y-98271931D01*
X131766627Y-97944492D01*
X131813296Y-97601355D01*
X131792127Y-97255707D01*
X131703932Y-96920831D01*
X131552100Y-96609595D01*
X131479480Y-96500912D01*
X131165937Y-96423720D01*
X130053657Y-97536000D01*
X130042343Y-97536000D01*
X128930063Y-96423720D01*
X128616520Y-96500912D01*
X128442089Y-96800069D01*
X128329373Y-97127508D01*
X128282704Y-97470645D01*
X128303873Y-97816293D01*
X128307119Y-97828617D01*
X128231100Y-97797129D01*
X128084656Y-97768000D01*
X127828500Y-97768000D01*
X127639000Y-97957500D01*
X127639000Y-99122000D01*
X127659000Y-99122000D01*
X127659000Y-99130000D01*
X127639000Y-99130000D01*
X127639000Y-99150000D01*
X127631000Y-99150000D01*
X127631000Y-99130000D01*
X126691500Y-99130000D01*
X126502000Y-99319500D01*
X126502000Y-99560786D01*
X125392557Y-98451343D01*
X126502000Y-98451343D01*
X126502000Y-98932500D01*
X126691500Y-99122000D01*
X127631000Y-99122000D01*
X127631000Y-97957500D01*
X127441500Y-97768000D01*
X127185344Y-97768000D01*
X127038900Y-97797129D01*
X126900953Y-97854269D01*
X126776804Y-97937223D01*
X126671223Y-98042803D01*
X126588269Y-98166952D01*
X126531130Y-98304899D01*
X126502000Y-98451343D01*
X125392557Y-98451343D01*
X123935288Y-96994074D01*
X123847552Y-96781211D01*
X123673911Y-96519860D01*
X123452813Y-96297213D01*
X123409655Y-96268103D01*
X123417825Y-96262918D01*
X123645053Y-96046532D01*
X123825924Y-95790131D01*
X123953548Y-95503482D01*
X124023064Y-95197504D01*
X124028069Y-94839112D01*
X123967123Y-94531311D01*
X123847552Y-94241211D01*
X123673911Y-93979860D01*
X123452813Y-93757213D01*
X123409655Y-93728103D01*
X123417825Y-93722918D01*
X123645053Y-93506532D01*
X123825924Y-93250131D01*
X123953548Y-92963482D01*
X124023064Y-92657504D01*
X124028069Y-92299112D01*
X123967123Y-91991311D01*
X123847552Y-91701211D01*
X123673911Y-91439860D01*
X123452813Y-91217213D01*
X123409655Y-91188103D01*
X123417825Y-91182918D01*
X123645053Y-90966532D01*
X123825924Y-90710131D01*
X123953548Y-90423482D01*
X124023064Y-90117504D01*
X124028069Y-89759112D01*
X123967123Y-89451311D01*
X123847552Y-89161211D01*
X123673911Y-88899860D01*
X123452813Y-88677213D01*
X123409655Y-88648103D01*
X123417825Y-88642918D01*
X123645053Y-88426532D01*
X123825924Y-88170131D01*
X123953548Y-87883482D01*
X124023064Y-87577504D01*
X124028069Y-87219112D01*
X123967123Y-86911311D01*
X123847552Y-86621211D01*
X123673911Y-86359860D01*
X123452813Y-86137213D01*
X123409655Y-86108103D01*
X123417825Y-86102918D01*
X123645053Y-85886532D01*
X123825924Y-85630131D01*
X123953548Y-85343482D01*
X124023064Y-85037504D01*
X124028069Y-84679112D01*
X123967123Y-84371311D01*
X123847552Y-84081211D01*
X123673911Y-83819860D01*
X123452813Y-83597213D01*
X123409655Y-83568103D01*
X123417825Y-83562918D01*
X123645053Y-83346532D01*
X123680699Y-83296000D01*
X125034000Y-83296000D01*
X125228234Y-83276955D01*
X125238343Y-83273903D01*
X125634000Y-83273903D01*
X125729548Y-83266284D01*
X125827100Y-83236074D01*
X125850803Y-83259777D01*
X125974952Y-83342731D01*
X126112899Y-83399870D01*
X126259343Y-83429000D01*
X126740500Y-83429000D01*
X126930000Y-83239500D01*
X126930000Y-82300000D01*
X126938000Y-82300000D01*
X126938000Y-83239500D01*
X127127500Y-83429000D01*
X127608657Y-83429000D01*
X127755101Y-83399870D01*
X127893048Y-83342731D01*
X128017197Y-83259777D01*
X128122777Y-83154196D01*
X128205731Y-83030047D01*
X128262871Y-82892100D01*
X128292000Y-82745656D01*
X128292000Y-82489500D01*
X128102500Y-82300000D01*
X126938000Y-82300000D01*
X126930000Y-82300000D01*
X126910000Y-82300000D01*
X126910000Y-82292000D01*
X126930000Y-82292000D01*
X126930000Y-82272000D01*
X126938000Y-82272000D01*
X126938000Y-82292000D01*
X128102500Y-82292000D01*
X128292000Y-82102500D01*
X128292000Y-81846344D01*
X128262871Y-81699900D01*
X128205731Y-81561953D01*
X128176362Y-81518000D01*
X128641497Y-81518000D01*
X128639125Y-81521464D01*
X128639125Y-81521464D01*
G37*
X128639125Y-81521464D02*
X128515515Y-81809867D01*
X128450278Y-82116787D01*
X128445897Y-82430532D01*
X128502539Y-82739154D01*
X128618048Y-83030896D01*
X128788023Y-83294645D01*
X129005990Y-83520357D01*
X129069208Y-83564294D01*
X129040583Y-83583026D01*
X128816398Y-83802563D01*
X128639125Y-84061464D01*
X128515515Y-84349867D01*
X128450278Y-84656787D01*
X128445897Y-84970532D01*
X128502539Y-85279154D01*
X128618048Y-85570896D01*
X128788023Y-85834645D01*
X129005990Y-86060357D01*
X129069208Y-86104294D01*
X129040583Y-86123026D01*
X128816398Y-86342563D01*
X128639125Y-86601464D01*
X128515515Y-86889867D01*
X128450278Y-87196787D01*
X128445897Y-87510532D01*
X128502539Y-87819154D01*
X128618048Y-88110896D01*
X128788023Y-88374645D01*
X129005990Y-88600357D01*
X129069208Y-88644294D01*
X129040583Y-88663026D01*
X128816398Y-88882563D01*
X128639125Y-89141464D01*
X128515515Y-89429867D01*
X128450278Y-89736787D01*
X128445897Y-90050532D01*
X128502539Y-90359154D01*
X128618048Y-90650896D01*
X128788023Y-90914645D01*
X129005990Y-91140357D01*
X129069208Y-91184294D01*
X129040583Y-91203026D01*
X128816398Y-91422563D01*
X128639125Y-91681464D01*
X128515515Y-91969867D01*
X128450278Y-92276787D01*
X128445897Y-92590532D01*
X128502539Y-92899154D01*
X128618048Y-93190896D01*
X128788023Y-93454645D01*
X129005990Y-93680357D01*
X129069208Y-93724294D01*
X129040583Y-93743026D01*
X128816398Y-93962563D01*
X128639125Y-94221464D01*
X128515515Y-94509867D01*
X128450278Y-94816787D01*
X128445897Y-95130532D01*
X128502539Y-95439154D01*
X128618048Y-95730896D01*
X128788023Y-95994645D01*
X128988781Y-96202537D01*
X128935720Y-96418063D01*
X130048000Y-97530343D01*
X131160280Y-96418063D01*
X131106082Y-96197918D01*
X131265053Y-96046532D01*
X131445924Y-95790131D01*
X131472019Y-95731521D01*
X133766066Y-98025569D01*
X133764210Y-98158521D01*
X133812427Y-98421235D01*
X133910754Y-98669580D01*
X134055445Y-98894097D01*
X134240990Y-99086234D01*
X134460320Y-99238672D01*
X134634013Y-99314557D01*
X134493938Y-99371151D01*
X134270436Y-99517406D01*
X134079599Y-99704287D01*
X133928695Y-99924677D01*
X133823473Y-100170180D01*
X133767939Y-100431445D01*
X133764210Y-100698521D01*
X133812427Y-100961235D01*
X133910754Y-101209580D01*
X134055445Y-101434097D01*
X134240990Y-101626234D01*
X134460320Y-101778672D01*
X134634013Y-101854557D01*
X134493938Y-101911151D01*
X134270436Y-102057406D01*
X134079599Y-102244287D01*
X133928695Y-102464677D01*
X133823473Y-102710180D01*
X133767939Y-102971445D01*
X133764210Y-103238521D01*
X133812427Y-103501235D01*
X133910754Y-103749580D01*
X134055445Y-103974097D01*
X134240990Y-104166234D01*
X134460320Y-104318672D01*
X134634013Y-104394557D01*
X134493938Y-104451151D01*
X134270436Y-104597406D01*
X134079599Y-104784287D01*
X133928695Y-105004677D01*
X133823473Y-105250180D01*
X133767939Y-105511445D01*
X133764210Y-105778521D01*
X133812427Y-106041235D01*
X133910754Y-106289580D01*
X134055445Y-106514097D01*
X134240990Y-106706234D01*
X134460320Y-106858672D01*
X134634013Y-106934557D01*
X134493938Y-106991151D01*
X134270436Y-107137406D01*
X134202432Y-107204000D01*
X131575866Y-107204000D01*
X131467552Y-106941211D01*
X131293911Y-106679860D01*
X131072813Y-106457213D01*
X131029655Y-106428103D01*
X131037825Y-106422918D01*
X131265053Y-106206532D01*
X131445924Y-105950131D01*
X131573548Y-105663482D01*
X131643064Y-105357504D01*
X131648069Y-104999112D01*
X131587123Y-104691311D01*
X131467552Y-104401211D01*
X131293911Y-104139860D01*
X131072813Y-103917213D01*
X131029655Y-103888103D01*
X131037825Y-103882918D01*
X131265053Y-103666532D01*
X131445924Y-103410131D01*
X131573548Y-103123482D01*
X131643064Y-102817504D01*
X131648069Y-102459112D01*
X131587123Y-102151311D01*
X131467552Y-101861211D01*
X131293911Y-101599860D01*
X131072813Y-101377213D01*
X131029655Y-101348103D01*
X131037825Y-101342918D01*
X131265053Y-101126532D01*
X131445924Y-100870131D01*
X131573548Y-100583482D01*
X131643064Y-100277504D01*
X131648069Y-99919112D01*
X131587123Y-99611311D01*
X131467552Y-99321211D01*
X131293911Y-99059860D01*
X131106746Y-98871384D01*
X131160280Y-98653937D01*
X130048000Y-97541657D01*
X128935720Y-98653937D01*
X128989632Y-98872921D01*
X128816398Y-99042563D01*
X128762008Y-99121998D01*
X128578502Y-99121998D01*
X128768000Y-98932500D01*
X128768000Y-98608381D01*
X128930063Y-98648280D01*
X130042343Y-97536000D01*
X130053657Y-97536000D01*
X131165937Y-98648280D01*
X131479480Y-98571088D01*
X131653911Y-98271931D01*
X131766627Y-97944492D01*
X131813296Y-97601355D01*
X131792127Y-97255707D01*
X131703932Y-96920831D01*
X131552100Y-96609595D01*
X131479480Y-96500912D01*
X131165937Y-96423720D01*
X130053657Y-97536000D01*
X130042343Y-97536000D01*
X128930063Y-96423720D01*
X128616520Y-96500912D01*
X128442089Y-96800069D01*
X128329373Y-97127508D01*
X128282704Y-97470645D01*
X128303873Y-97816293D01*
X128307119Y-97828617D01*
X128231100Y-97797129D01*
X128084656Y-97768000D01*
X127828500Y-97768000D01*
X127639000Y-97957500D01*
X127639000Y-99122000D01*
X127659000Y-99122000D01*
X127659000Y-99130000D01*
X127639000Y-99130000D01*
X127639000Y-99150000D01*
X127631000Y-99150000D01*
X127631000Y-99130000D01*
X126691500Y-99130000D01*
X126502000Y-99319500D01*
X126502000Y-99560786D01*
X125392557Y-98451343D01*
X126502000Y-98451343D01*
X126502000Y-98932500D01*
X126691500Y-99122000D01*
X127631000Y-99122000D01*
X127631000Y-97957500D01*
X127441500Y-97768000D01*
X127185344Y-97768000D01*
X127038900Y-97797129D01*
X126900953Y-97854269D01*
X126776804Y-97937223D01*
X126671223Y-98042803D01*
X126588269Y-98166952D01*
X126531130Y-98304899D01*
X126502000Y-98451343D01*
X125392557Y-98451343D01*
X123935288Y-96994074D01*
X123847552Y-96781211D01*
X123673911Y-96519860D01*
X123452813Y-96297213D01*
X123409655Y-96268103D01*
X123417825Y-96262918D01*
X123645053Y-96046532D01*
X123825924Y-95790131D01*
X123953548Y-95503482D01*
X124023064Y-95197504D01*
X124028069Y-94839112D01*
X123967123Y-94531311D01*
X123847552Y-94241211D01*
X123673911Y-93979860D01*
X123452813Y-93757213D01*
X123409655Y-93728103D01*
X123417825Y-93722918D01*
X123645053Y-93506532D01*
X123825924Y-93250131D01*
X123953548Y-92963482D01*
X124023064Y-92657504D01*
X124028069Y-92299112D01*
X123967123Y-91991311D01*
X123847552Y-91701211D01*
X123673911Y-91439860D01*
X123452813Y-91217213D01*
X123409655Y-91188103D01*
X123417825Y-91182918D01*
X123645053Y-90966532D01*
X123825924Y-90710131D01*
X123953548Y-90423482D01*
X124023064Y-90117504D01*
X124028069Y-89759112D01*
X123967123Y-89451311D01*
X123847552Y-89161211D01*
X123673911Y-88899860D01*
X123452813Y-88677213D01*
X123409655Y-88648103D01*
X123417825Y-88642918D01*
X123645053Y-88426532D01*
X123825924Y-88170131D01*
X123953548Y-87883482D01*
X124023064Y-87577504D01*
X124028069Y-87219112D01*
X123967123Y-86911311D01*
X123847552Y-86621211D01*
X123673911Y-86359860D01*
X123452813Y-86137213D01*
X123409655Y-86108103D01*
X123417825Y-86102918D01*
X123645053Y-85886532D01*
X123825924Y-85630131D01*
X123953548Y-85343482D01*
X124023064Y-85037504D01*
X124028069Y-84679112D01*
X123967123Y-84371311D01*
X123847552Y-84081211D01*
X123673911Y-83819860D01*
X123452813Y-83597213D01*
X123409655Y-83568103D01*
X123417825Y-83562918D01*
X123645053Y-83346532D01*
X123680699Y-83296000D01*
X125034000Y-83296000D01*
X125228234Y-83276955D01*
X125238343Y-83273903D01*
X125634000Y-83273903D01*
X125729548Y-83266284D01*
X125827100Y-83236074D01*
X125850803Y-83259777D01*
X125974952Y-83342731D01*
X126112899Y-83399870D01*
X126259343Y-83429000D01*
X126740500Y-83429000D01*
X126930000Y-83239500D01*
X126930000Y-82300000D01*
X126938000Y-82300000D01*
X126938000Y-83239500D01*
X127127500Y-83429000D01*
X127608657Y-83429000D01*
X127755101Y-83399870D01*
X127893048Y-83342731D01*
X128017197Y-83259777D01*
X128122777Y-83154196D01*
X128205731Y-83030047D01*
X128262871Y-82892100D01*
X128292000Y-82745656D01*
X128292000Y-82489500D01*
X128102500Y-82300000D01*
X126938000Y-82300000D01*
X126930000Y-82300000D01*
X126910000Y-82300000D01*
X126910000Y-82292000D01*
X126930000Y-82292000D01*
X126930000Y-82272000D01*
X126938000Y-82272000D01*
X126938000Y-82292000D01*
X128102500Y-82292000D01*
X128292000Y-82102500D01*
X128292000Y-81846344D01*
X128262871Y-81699900D01*
X128205731Y-81561953D01*
X128176362Y-81518000D01*
X128641497Y-81518000D01*
X128639125Y-81521464D01*
M02*
