G04 #@! TF.FileFunction,Soldermask,Bot*
%FSLAX46Y46*%
G04 Gerber Fmt 4.6, Leading zero omitted, Abs format (unit mm)*
G04 Created by KiCad (PCBNEW 4.0.1-stable) date 2018/02/16 21:14:19*
%MOMM*%
G01*
G04 APERTURE LIST*
%ADD10C,0.100000*%
%ADD11C,0.010000*%
%ADD12R,2.100000X1.600000*%
%ADD13O,2.100000X1.600000*%
%ADD14C,1.797000*%
%ADD15R,2.432000X2.127200*%
%ADD16O,2.432000X2.127200*%
%ADD17C,2.400000*%
%ADD18C,3.900000*%
%ADD19C,1.924000*%
%ADD20R,1.150000X1.600000*%
%ADD21R,1.600000X1.150000*%
%ADD22R,1.600000X1.300000*%
%ADD23C,1.900000*%
G04 APERTURE END LIST*
D10*
D11*
G36*
X137919789Y-105521857D02*
X137900038Y-105451139D01*
X137866193Y-105399742D01*
X137817466Y-105366278D01*
X137779125Y-105353856D01*
X137758137Y-105350484D01*
X137747880Y-105356652D01*
X137744514Y-105378177D01*
X137744200Y-105406747D01*
X137746261Y-105445684D01*
X137754494Y-105467369D01*
X137771980Y-105479760D01*
X137772550Y-105480014D01*
X137805238Y-105505141D01*
X137824264Y-105546965D01*
X137830531Y-105607977D01*
X137829717Y-105637426D01*
X137826031Y-105683382D01*
X137818807Y-105712762D01*
X137804463Y-105734390D01*
X137782051Y-105754901D01*
X137737931Y-105782532D01*
X137690384Y-105790994D01*
X137688739Y-105791000D01*
X137643673Y-105781102D01*
X137601027Y-105750513D01*
X137559606Y-105697895D01*
X137518216Y-105621908D01*
X137498334Y-105577505D01*
X137452959Y-105483253D01*
X137406017Y-105412464D01*
X137355391Y-105363207D01*
X137298966Y-105333551D01*
X137234626Y-105321563D01*
X137217420Y-105321100D01*
X137140151Y-105332868D01*
X137071653Y-105366011D01*
X137016249Y-105417289D01*
X136978265Y-105483460D01*
X136970874Y-105505871D01*
X136961711Y-105559512D01*
X136958313Y-105626434D01*
X136960446Y-105696627D01*
X136967878Y-105760084D01*
X136977729Y-105799979D01*
X137007767Y-105854787D01*
X137052623Y-105900760D01*
X137104963Y-105931192D01*
X137128571Y-105937949D01*
X137160014Y-105941933D01*
X137179029Y-105940787D01*
X137180362Y-105939972D01*
X137185581Y-105924334D01*
X137190706Y-105893202D01*
X137191997Y-105881659D01*
X137193897Y-105848360D01*
X137186571Y-105831172D01*
X137163730Y-105820977D01*
X137146912Y-105816296D01*
X137102586Y-105794866D01*
X137073133Y-105757130D01*
X137057285Y-105700760D01*
X137053565Y-105644950D01*
X137061665Y-105568578D01*
X137086727Y-105510187D01*
X137128084Y-105470574D01*
X137185072Y-105450534D01*
X137218195Y-105448100D01*
X137256901Y-105455503D01*
X137292865Y-105479196D01*
X137327990Y-105521410D01*
X137364181Y-105584375D01*
X137398886Y-105659809D01*
X137445740Y-105755609D01*
X137494663Y-105827448D01*
X137546872Y-105876752D01*
X137603583Y-105904946D01*
X137609580Y-105906668D01*
X137688221Y-105916286D01*
X137761839Y-105903343D01*
X137826335Y-105869596D01*
X137877609Y-105816801D01*
X137897208Y-105783395D01*
X137912743Y-105745551D01*
X137921722Y-105705907D01*
X137925660Y-105655592D01*
X137926234Y-105613287D01*
X137919789Y-105521857D01*
X137919789Y-105521857D01*
G37*
X137919789Y-105521857D02*
X137900038Y-105451139D01*
X137866193Y-105399742D01*
X137817466Y-105366278D01*
X137779125Y-105353856D01*
X137758137Y-105350484D01*
X137747880Y-105356652D01*
X137744514Y-105378177D01*
X137744200Y-105406747D01*
X137746261Y-105445684D01*
X137754494Y-105467369D01*
X137771980Y-105479760D01*
X137772550Y-105480014D01*
X137805238Y-105505141D01*
X137824264Y-105546965D01*
X137830531Y-105607977D01*
X137829717Y-105637426D01*
X137826031Y-105683382D01*
X137818807Y-105712762D01*
X137804463Y-105734390D01*
X137782051Y-105754901D01*
X137737931Y-105782532D01*
X137690384Y-105790994D01*
X137688739Y-105791000D01*
X137643673Y-105781102D01*
X137601027Y-105750513D01*
X137559606Y-105697895D01*
X137518216Y-105621908D01*
X137498334Y-105577505D01*
X137452959Y-105483253D01*
X137406017Y-105412464D01*
X137355391Y-105363207D01*
X137298966Y-105333551D01*
X137234626Y-105321563D01*
X137217420Y-105321100D01*
X137140151Y-105332868D01*
X137071653Y-105366011D01*
X137016249Y-105417289D01*
X136978265Y-105483460D01*
X136970874Y-105505871D01*
X136961711Y-105559512D01*
X136958313Y-105626434D01*
X136960446Y-105696627D01*
X136967878Y-105760084D01*
X136977729Y-105799979D01*
X137007767Y-105854787D01*
X137052623Y-105900760D01*
X137104963Y-105931192D01*
X137128571Y-105937949D01*
X137160014Y-105941933D01*
X137179029Y-105940787D01*
X137180362Y-105939972D01*
X137185581Y-105924334D01*
X137190706Y-105893202D01*
X137191997Y-105881659D01*
X137193897Y-105848360D01*
X137186571Y-105831172D01*
X137163730Y-105820977D01*
X137146912Y-105816296D01*
X137102586Y-105794866D01*
X137073133Y-105757130D01*
X137057285Y-105700760D01*
X137053565Y-105644950D01*
X137061665Y-105568578D01*
X137086727Y-105510187D01*
X137128084Y-105470574D01*
X137185072Y-105450534D01*
X137218195Y-105448100D01*
X137256901Y-105455503D01*
X137292865Y-105479196D01*
X137327990Y-105521410D01*
X137364181Y-105584375D01*
X137398886Y-105659809D01*
X137445740Y-105755609D01*
X137494663Y-105827448D01*
X137546872Y-105876752D01*
X137603583Y-105904946D01*
X137609580Y-105906668D01*
X137688221Y-105916286D01*
X137761839Y-105903343D01*
X137826335Y-105869596D01*
X137877609Y-105816801D01*
X137897208Y-105783395D01*
X137912743Y-105745551D01*
X137921722Y-105705907D01*
X137925660Y-105655592D01*
X137926234Y-105613287D01*
X137919789Y-105521857D01*
G36*
X137899497Y-102741228D02*
X137898970Y-102736298D01*
X137893700Y-102691156D01*
X137568125Y-102693328D01*
X137447539Y-102694559D01*
X137349383Y-102696788D01*
X137270693Y-102700475D01*
X137208505Y-102706082D01*
X137159854Y-102714072D01*
X137121776Y-102724904D01*
X137091306Y-102739042D01*
X137065481Y-102756945D01*
X137045813Y-102774641D01*
X137011761Y-102815557D01*
X136984078Y-102862083D01*
X136976323Y-102880728D01*
X136962104Y-102947052D01*
X136957826Y-103025856D01*
X136963328Y-103106316D01*
X136978451Y-103177608D01*
X136980811Y-103184762D01*
X136999452Y-103228986D01*
X137021419Y-103267713D01*
X137033110Y-103282867D01*
X137052650Y-103301719D01*
X137074063Y-103316888D01*
X137100259Y-103328801D01*
X137134151Y-103337884D01*
X137178648Y-103344563D01*
X137236662Y-103349265D01*
X137311104Y-103352417D01*
X137404885Y-103354443D01*
X137520916Y-103355772D01*
X137531483Y-103355863D01*
X137896616Y-103358950D01*
X137896608Y-103299351D01*
X137896600Y-103239751D01*
X137537825Y-103235851D01*
X137423686Y-103234422D01*
X137332105Y-103232490D01*
X137260242Y-103229468D01*
X137205256Y-103224768D01*
X137164307Y-103217803D01*
X137134553Y-103207985D01*
X137113154Y-103194727D01*
X137097268Y-103177441D01*
X137084055Y-103155539D01*
X137076470Y-103140435D01*
X137058895Y-103085097D01*
X137052503Y-103020948D01*
X137057267Y-102957951D01*
X137073159Y-102906070D01*
X137077140Y-102898781D01*
X137092463Y-102875331D01*
X137109251Y-102856568D01*
X137130411Y-102841927D01*
X137158849Y-102830842D01*
X137197471Y-102822750D01*
X137249184Y-102817083D01*
X137316894Y-102813279D01*
X137403507Y-102810772D01*
X137511930Y-102808997D01*
X137540941Y-102808624D01*
X137632590Y-102807085D01*
X137715755Y-102804930D01*
X137787104Y-102802306D01*
X137843307Y-102799361D01*
X137881035Y-102796243D01*
X137896956Y-102793099D01*
X137897185Y-102792854D01*
X137900544Y-102773536D01*
X137899497Y-102741228D01*
X137899497Y-102741228D01*
G37*
X137899497Y-102741228D02*
X137898970Y-102736298D01*
X137893700Y-102691156D01*
X137568125Y-102693328D01*
X137447539Y-102694559D01*
X137349383Y-102696788D01*
X137270693Y-102700475D01*
X137208505Y-102706082D01*
X137159854Y-102714072D01*
X137121776Y-102724904D01*
X137091306Y-102739042D01*
X137065481Y-102756945D01*
X137045813Y-102774641D01*
X137011761Y-102815557D01*
X136984078Y-102862083D01*
X136976323Y-102880728D01*
X136962104Y-102947052D01*
X136957826Y-103025856D01*
X136963328Y-103106316D01*
X136978451Y-103177608D01*
X136980811Y-103184762D01*
X136999452Y-103228986D01*
X137021419Y-103267713D01*
X137033110Y-103282867D01*
X137052650Y-103301719D01*
X137074063Y-103316888D01*
X137100259Y-103328801D01*
X137134151Y-103337884D01*
X137178648Y-103344563D01*
X137236662Y-103349265D01*
X137311104Y-103352417D01*
X137404885Y-103354443D01*
X137520916Y-103355772D01*
X137531483Y-103355863D01*
X137896616Y-103358950D01*
X137896608Y-103299351D01*
X137896600Y-103239751D01*
X137537825Y-103235851D01*
X137423686Y-103234422D01*
X137332105Y-103232490D01*
X137260242Y-103229468D01*
X137205256Y-103224768D01*
X137164307Y-103217803D01*
X137134553Y-103207985D01*
X137113154Y-103194727D01*
X137097268Y-103177441D01*
X137084055Y-103155539D01*
X137076470Y-103140435D01*
X137058895Y-103085097D01*
X137052503Y-103020948D01*
X137057267Y-102957951D01*
X137073159Y-102906070D01*
X137077140Y-102898781D01*
X137092463Y-102875331D01*
X137109251Y-102856568D01*
X137130411Y-102841927D01*
X137158849Y-102830842D01*
X137197471Y-102822750D01*
X137249184Y-102817083D01*
X137316894Y-102813279D01*
X137403507Y-102810772D01*
X137511930Y-102808997D01*
X137540941Y-102808624D01*
X137632590Y-102807085D01*
X137715755Y-102804930D01*
X137787104Y-102802306D01*
X137843307Y-102799361D01*
X137881035Y-102796243D01*
X137896956Y-102793099D01*
X137897185Y-102792854D01*
X137900544Y-102773536D01*
X137899497Y-102741228D01*
G36*
X137912774Y-100258738D02*
X137880895Y-100176733D01*
X137827906Y-100107308D01*
X137788425Y-100072989D01*
X137723396Y-100031486D01*
X137651807Y-100002916D01*
X137567304Y-99985273D01*
X137486621Y-99977705D01*
X137359800Y-99979375D01*
X137247565Y-99999526D01*
X137151031Y-100037664D01*
X137071315Y-100093296D01*
X137009534Y-100165928D01*
X136991632Y-100196650D01*
X136970956Y-100255282D01*
X136960183Y-100326858D01*
X136959605Y-100401632D01*
X136969511Y-100469857D01*
X136982342Y-100507439D01*
X137029806Y-100589303D01*
X137088335Y-100652880D01*
X137160300Y-100699429D01*
X137248073Y-100730213D01*
X137354026Y-100746492D01*
X137438495Y-100749924D01*
X137444307Y-100749693D01*
X137444307Y-100625792D01*
X137337264Y-100619277D01*
X137248956Y-100599700D01*
X137175713Y-100565969D01*
X137130003Y-100532090D01*
X137079353Y-100475349D01*
X137053121Y-100414229D01*
X137050354Y-100345552D01*
X137059876Y-100298250D01*
X137089980Y-100235368D01*
X137141195Y-100183430D01*
X137211229Y-100143508D01*
X137297789Y-100116670D01*
X137398584Y-100103988D01*
X137475635Y-100104070D01*
X137584555Y-100117149D01*
X137674881Y-100144519D01*
X137745737Y-100185532D01*
X137796247Y-100239539D01*
X137825535Y-100305890D01*
X137833100Y-100368948D01*
X137821543Y-100441028D01*
X137787923Y-100502779D01*
X137733821Y-100553155D01*
X137660815Y-100591115D01*
X137570485Y-100615615D01*
X137464411Y-100625612D01*
X137444307Y-100625792D01*
X137444307Y-100749693D01*
X137547947Y-100745560D01*
X137638326Y-100730373D01*
X137714121Y-100703035D01*
X137779820Y-100662216D01*
X137804748Y-100641393D01*
X137865380Y-100574646D01*
X137903928Y-100501329D01*
X137922366Y-100416728D01*
X137924543Y-100355400D01*
X137912774Y-100258738D01*
X137912774Y-100258738D01*
G37*
X137912774Y-100258738D02*
X137880895Y-100176733D01*
X137827906Y-100107308D01*
X137788425Y-100072989D01*
X137723396Y-100031486D01*
X137651807Y-100002916D01*
X137567304Y-99985273D01*
X137486621Y-99977705D01*
X137359800Y-99979375D01*
X137247565Y-99999526D01*
X137151031Y-100037664D01*
X137071315Y-100093296D01*
X137009534Y-100165928D01*
X136991632Y-100196650D01*
X136970956Y-100255282D01*
X136960183Y-100326858D01*
X136959605Y-100401632D01*
X136969511Y-100469857D01*
X136982342Y-100507439D01*
X137029806Y-100589303D01*
X137088335Y-100652880D01*
X137160300Y-100699429D01*
X137248073Y-100730213D01*
X137354026Y-100746492D01*
X137438495Y-100749924D01*
X137444307Y-100749693D01*
X137444307Y-100625792D01*
X137337264Y-100619277D01*
X137248956Y-100599700D01*
X137175713Y-100565969D01*
X137130003Y-100532090D01*
X137079353Y-100475349D01*
X137053121Y-100414229D01*
X137050354Y-100345552D01*
X137059876Y-100298250D01*
X137089980Y-100235368D01*
X137141195Y-100183430D01*
X137211229Y-100143508D01*
X137297789Y-100116670D01*
X137398584Y-100103988D01*
X137475635Y-100104070D01*
X137584555Y-100117149D01*
X137674881Y-100144519D01*
X137745737Y-100185532D01*
X137796247Y-100239539D01*
X137825535Y-100305890D01*
X137833100Y-100368948D01*
X137821543Y-100441028D01*
X137787923Y-100502779D01*
X137733821Y-100553155D01*
X137660815Y-100591115D01*
X137570485Y-100615615D01*
X137464411Y-100625612D01*
X137444307Y-100625792D01*
X137444307Y-100749693D01*
X137547947Y-100745560D01*
X137638326Y-100730373D01*
X137714121Y-100703035D01*
X137779820Y-100662216D01*
X137804748Y-100641393D01*
X137865380Y-100574646D01*
X137903928Y-100501329D01*
X137922366Y-100416728D01*
X137924543Y-100355400D01*
X137912774Y-100258738D01*
G36*
X137919760Y-96906595D02*
X137906678Y-96844599D01*
X137896696Y-96818647D01*
X137865542Y-96772217D01*
X137823502Y-96732876D01*
X137777854Y-96706249D01*
X137740343Y-96697800D01*
X137718141Y-96700308D01*
X137708410Y-96712690D01*
X137706115Y-96742233D01*
X137706100Y-96747358D01*
X137708663Y-96781006D01*
X137720196Y-96799023D01*
X137743928Y-96810102D01*
X137789312Y-96838441D01*
X137818155Y-96885946D01*
X137830370Y-96952432D01*
X137830287Y-96991302D01*
X137825518Y-97043643D01*
X137815425Y-97080900D01*
X137796906Y-97113293D01*
X137790723Y-97121662D01*
X137736230Y-97173468D01*
X137664099Y-97213070D01*
X137579249Y-97239941D01*
X137486599Y-97253554D01*
X137391068Y-97253385D01*
X137297574Y-97238906D01*
X137211035Y-97209591D01*
X137170030Y-97188075D01*
X137109519Y-97140317D01*
X137071531Y-97082474D01*
X137054360Y-97011473D01*
X137052944Y-96977200D01*
X137061545Y-96903976D01*
X137086380Y-96850283D01*
X137127453Y-96816115D01*
X137140829Y-96810415D01*
X137170590Y-96796718D01*
X137182997Y-96778204D01*
X137185400Y-96746799D01*
X137183082Y-96714439D01*
X137177355Y-96694925D01*
X137175842Y-96693392D01*
X137158901Y-96693488D01*
X137127965Y-96700832D01*
X137115517Y-96704813D01*
X137059301Y-96735682D01*
X137010408Y-96783682D01*
X136976637Y-96840543D01*
X136970499Y-96858526D01*
X136960059Y-96922912D01*
X136958861Y-96998805D01*
X136966591Y-97074182D01*
X136977397Y-97121029D01*
X137007657Y-97183671D01*
X137056537Y-97244762D01*
X137117708Y-97297998D01*
X137184838Y-97337077D01*
X137200867Y-97343552D01*
X137287014Y-97366444D01*
X137386708Y-97378683D01*
X137490099Y-97379501D01*
X137565501Y-97371949D01*
X137668338Y-97346004D01*
X137757340Y-97303364D01*
X137829936Y-97245972D01*
X137883554Y-97175771D01*
X137911397Y-97110550D01*
X137922610Y-97049313D01*
X137925234Y-96978081D01*
X137919760Y-96906595D01*
X137919760Y-96906595D01*
G37*
X137919760Y-96906595D02*
X137906678Y-96844599D01*
X137896696Y-96818647D01*
X137865542Y-96772217D01*
X137823502Y-96732876D01*
X137777854Y-96706249D01*
X137740343Y-96697800D01*
X137718141Y-96700308D01*
X137708410Y-96712690D01*
X137706115Y-96742233D01*
X137706100Y-96747358D01*
X137708663Y-96781006D01*
X137720196Y-96799023D01*
X137743928Y-96810102D01*
X137789312Y-96838441D01*
X137818155Y-96885946D01*
X137830370Y-96952432D01*
X137830287Y-96991302D01*
X137825518Y-97043643D01*
X137815425Y-97080900D01*
X137796906Y-97113293D01*
X137790723Y-97121662D01*
X137736230Y-97173468D01*
X137664099Y-97213070D01*
X137579249Y-97239941D01*
X137486599Y-97253554D01*
X137391068Y-97253385D01*
X137297574Y-97238906D01*
X137211035Y-97209591D01*
X137170030Y-97188075D01*
X137109519Y-97140317D01*
X137071531Y-97082474D01*
X137054360Y-97011473D01*
X137052944Y-96977200D01*
X137061545Y-96903976D01*
X137086380Y-96850283D01*
X137127453Y-96816115D01*
X137140829Y-96810415D01*
X137170590Y-96796718D01*
X137182997Y-96778204D01*
X137185400Y-96746799D01*
X137183082Y-96714439D01*
X137177355Y-96694925D01*
X137175842Y-96693392D01*
X137158901Y-96693488D01*
X137127965Y-96700832D01*
X137115517Y-96704813D01*
X137059301Y-96735682D01*
X137010408Y-96783682D01*
X136976637Y-96840543D01*
X136970499Y-96858526D01*
X136960059Y-96922912D01*
X136958861Y-96998805D01*
X136966591Y-97074182D01*
X136977397Y-97121029D01*
X137007657Y-97183671D01*
X137056537Y-97244762D01*
X137117708Y-97297998D01*
X137184838Y-97337077D01*
X137200867Y-97343552D01*
X137287014Y-97366444D01*
X137386708Y-97378683D01*
X137490099Y-97379501D01*
X137565501Y-97371949D01*
X137668338Y-97346004D01*
X137757340Y-97303364D01*
X137829936Y-97245972D01*
X137883554Y-97175771D01*
X137911397Y-97110550D01*
X137922610Y-97049313D01*
X137925234Y-96978081D01*
X137919760Y-96906595D01*
G36*
X137919593Y-94433322D02*
X137889894Y-94345535D01*
X137839767Y-94268088D01*
X137770796Y-94204088D01*
X137684565Y-94156643D01*
X137668000Y-94150338D01*
X137614626Y-94137044D01*
X137544691Y-94127627D01*
X137466796Y-94122498D01*
X137389545Y-94122073D01*
X137321537Y-94126762D01*
X137288988Y-94132149D01*
X137187502Y-94165408D01*
X137100748Y-94215919D01*
X137031529Y-94281702D01*
X136991720Y-94341950D01*
X136973764Y-94393692D01*
X136963048Y-94460217D01*
X136960142Y-94531799D01*
X136965616Y-94598712D01*
X136974447Y-94636677D01*
X137012940Y-94714684D01*
X137072731Y-94782434D01*
X137150904Y-94837341D01*
X137244543Y-94876821D01*
X137245852Y-94877223D01*
X137316318Y-94891397D01*
X137401676Y-94897461D01*
X137439873Y-94896685D01*
X137439873Y-94770707D01*
X137331028Y-94763952D01*
X137240318Y-94742088D01*
X137164839Y-94704242D01*
X137130003Y-94677390D01*
X137078793Y-94618231D01*
X137052030Y-94553114D01*
X137050008Y-94483327D01*
X137070408Y-94415759D01*
X137111372Y-94355558D01*
X137172737Y-94307833D01*
X137252298Y-94273479D01*
X137347849Y-94253391D01*
X137457186Y-94248463D01*
X137480359Y-94249368D01*
X137587918Y-94262903D01*
X137677261Y-94290843D01*
X137747392Y-94332439D01*
X137797318Y-94386947D01*
X137826047Y-94453620D01*
X137833100Y-94514248D01*
X137821568Y-94586161D01*
X137787900Y-94647600D01*
X137733495Y-94697654D01*
X137659748Y-94735413D01*
X137568055Y-94759966D01*
X137459813Y-94770402D01*
X137439873Y-94770707D01*
X137439873Y-94896685D01*
X137492813Y-94895609D01*
X137580618Y-94886037D01*
X137655978Y-94868937D01*
X137657555Y-94868437D01*
X137713278Y-94848129D01*
X137755944Y-94824828D01*
X137796764Y-94791657D01*
X137821083Y-94768124D01*
X137863420Y-94722006D01*
X137890636Y-94681367D01*
X137908494Y-94637229D01*
X137911365Y-94627490D01*
X137927278Y-94528342D01*
X137919593Y-94433322D01*
X137919593Y-94433322D01*
G37*
X137919593Y-94433322D02*
X137889894Y-94345535D01*
X137839767Y-94268088D01*
X137770796Y-94204088D01*
X137684565Y-94156643D01*
X137668000Y-94150338D01*
X137614626Y-94137044D01*
X137544691Y-94127627D01*
X137466796Y-94122498D01*
X137389545Y-94122073D01*
X137321537Y-94126762D01*
X137288988Y-94132149D01*
X137187502Y-94165408D01*
X137100748Y-94215919D01*
X137031529Y-94281702D01*
X136991720Y-94341950D01*
X136973764Y-94393692D01*
X136963048Y-94460217D01*
X136960142Y-94531799D01*
X136965616Y-94598712D01*
X136974447Y-94636677D01*
X137012940Y-94714684D01*
X137072731Y-94782434D01*
X137150904Y-94837341D01*
X137244543Y-94876821D01*
X137245852Y-94877223D01*
X137316318Y-94891397D01*
X137401676Y-94897461D01*
X137439873Y-94896685D01*
X137439873Y-94770707D01*
X137331028Y-94763952D01*
X137240318Y-94742088D01*
X137164839Y-94704242D01*
X137130003Y-94677390D01*
X137078793Y-94618231D01*
X137052030Y-94553114D01*
X137050008Y-94483327D01*
X137070408Y-94415759D01*
X137111372Y-94355558D01*
X137172737Y-94307833D01*
X137252298Y-94273479D01*
X137347849Y-94253391D01*
X137457186Y-94248463D01*
X137480359Y-94249368D01*
X137587918Y-94262903D01*
X137677261Y-94290843D01*
X137747392Y-94332439D01*
X137797318Y-94386947D01*
X137826047Y-94453620D01*
X137833100Y-94514248D01*
X137821568Y-94586161D01*
X137787900Y-94647600D01*
X137733495Y-94697654D01*
X137659748Y-94735413D01*
X137568055Y-94759966D01*
X137459813Y-94770402D01*
X137439873Y-94770707D01*
X137439873Y-94896685D01*
X137492813Y-94895609D01*
X137580618Y-94886037D01*
X137655978Y-94868937D01*
X137657555Y-94868437D01*
X137713278Y-94848129D01*
X137755944Y-94824828D01*
X137796764Y-94791657D01*
X137821083Y-94768124D01*
X137863420Y-94722006D01*
X137890636Y-94681367D01*
X137908494Y-94637229D01*
X137911365Y-94627490D01*
X137927278Y-94528342D01*
X137919593Y-94433322D01*
G36*
X137913278Y-92870895D02*
X137879879Y-92785938D01*
X137826575Y-92714650D01*
X137754655Y-92657952D01*
X137665404Y-92616762D01*
X137560109Y-92592001D01*
X137440055Y-92584588D01*
X137390905Y-92586506D01*
X137277696Y-92601834D01*
X137182438Y-92632561D01*
X137102095Y-92679783D01*
X137078226Y-92699271D01*
X137022458Y-92757131D01*
X136986581Y-92817944D01*
X136967169Y-92889105D01*
X136961448Y-92951300D01*
X136961283Y-93004701D01*
X136964518Y-93053980D01*
X136970458Y-93088662D01*
X136970628Y-93089229D01*
X137008589Y-93172081D01*
X137066595Y-93241492D01*
X137142535Y-93296441D01*
X137234297Y-93335907D01*
X137339769Y-93358866D01*
X137455964Y-93364256D01*
X137455964Y-93238674D01*
X137357971Y-93233426D01*
X137258454Y-93213116D01*
X137254750Y-93212051D01*
X137195734Y-93187064D01*
X137139749Y-93149708D01*
X137093419Y-93105529D01*
X137063366Y-93060071D01*
X137058823Y-93048040D01*
X137051208Y-92991645D01*
X137056941Y-92928035D01*
X137074450Y-92870554D01*
X137081276Y-92857329D01*
X137124395Y-92806911D01*
X137187578Y-92765164D01*
X137266424Y-92733922D01*
X137356537Y-92715015D01*
X137435094Y-92710000D01*
X137546380Y-92717737D01*
X137641289Y-92740282D01*
X137718538Y-92776640D01*
X137776845Y-92825817D01*
X137814928Y-92886817D01*
X137831504Y-92958645D01*
X137829460Y-93016080D01*
X137809035Y-93077871D01*
X137767536Y-93131267D01*
X137708220Y-93175156D01*
X137634348Y-93208428D01*
X137549176Y-93229971D01*
X137455964Y-93238674D01*
X137455964Y-93364256D01*
X137456840Y-93364297D01*
X137528345Y-93359114D01*
X137626335Y-93342337D01*
X137706333Y-93315140D01*
X137774479Y-93275027D01*
X137812227Y-93243725D01*
X137871909Y-93173557D01*
X137909197Y-93092924D01*
X137924883Y-92999900D01*
X137925488Y-92968603D01*
X137913278Y-92870895D01*
X137913278Y-92870895D01*
G37*
X137913278Y-92870895D02*
X137879879Y-92785938D01*
X137826575Y-92714650D01*
X137754655Y-92657952D01*
X137665404Y-92616762D01*
X137560109Y-92592001D01*
X137440055Y-92584588D01*
X137390905Y-92586506D01*
X137277696Y-92601834D01*
X137182438Y-92632561D01*
X137102095Y-92679783D01*
X137078226Y-92699271D01*
X137022458Y-92757131D01*
X136986581Y-92817944D01*
X136967169Y-92889105D01*
X136961448Y-92951300D01*
X136961283Y-93004701D01*
X136964518Y-93053980D01*
X136970458Y-93088662D01*
X136970628Y-93089229D01*
X137008589Y-93172081D01*
X137066595Y-93241492D01*
X137142535Y-93296441D01*
X137234297Y-93335907D01*
X137339769Y-93358866D01*
X137455964Y-93364256D01*
X137455964Y-93238674D01*
X137357971Y-93233426D01*
X137258454Y-93213116D01*
X137254750Y-93212051D01*
X137195734Y-93187064D01*
X137139749Y-93149708D01*
X137093419Y-93105529D01*
X137063366Y-93060071D01*
X137058823Y-93048040D01*
X137051208Y-92991645D01*
X137056941Y-92928035D01*
X137074450Y-92870554D01*
X137081276Y-92857329D01*
X137124395Y-92806911D01*
X137187578Y-92765164D01*
X137266424Y-92733922D01*
X137356537Y-92715015D01*
X137435094Y-92710000D01*
X137546380Y-92717737D01*
X137641289Y-92740282D01*
X137718538Y-92776640D01*
X137776845Y-92825817D01*
X137814928Y-92886817D01*
X137831504Y-92958645D01*
X137829460Y-93016080D01*
X137809035Y-93077871D01*
X137767536Y-93131267D01*
X137708220Y-93175156D01*
X137634348Y-93208428D01*
X137549176Y-93229971D01*
X137455964Y-93238674D01*
X137455964Y-93364256D01*
X137456840Y-93364297D01*
X137528345Y-93359114D01*
X137626335Y-93342337D01*
X137706333Y-93315140D01*
X137774479Y-93275027D01*
X137812227Y-93243725D01*
X137871909Y-93173557D01*
X137909197Y-93092924D01*
X137924883Y-92999900D01*
X137925488Y-92968603D01*
X137913278Y-92870895D01*
G36*
X137916905Y-91986725D02*
X137890872Y-91908075D01*
X137847974Y-91847121D01*
X137788762Y-91804948D01*
X137783428Y-91802459D01*
X137750983Y-91789546D01*
X137729354Y-91784135D01*
X137725339Y-91784829D01*
X137719618Y-91800151D01*
X137713211Y-91830158D01*
X137712234Y-91836047D01*
X137709773Y-91866324D01*
X137718399Y-91885612D01*
X137743474Y-91903991D01*
X137750639Y-91908270D01*
X137793958Y-91947450D01*
X137821083Y-92000614D01*
X137832137Y-92062283D01*
X137827247Y-92126979D01*
X137806537Y-92189223D01*
X137770132Y-92243536D01*
X137742408Y-92268844D01*
X137677166Y-92307219D01*
X137599485Y-92332009D01*
X137505112Y-92344346D01*
X137452100Y-92346183D01*
X137348031Y-92342124D01*
X137263434Y-92326893D01*
X137194435Y-92299325D01*
X137137161Y-92258252D01*
X137126680Y-92248222D01*
X137082088Y-92193240D01*
X137056799Y-92134352D01*
X137050004Y-92067105D01*
X137060896Y-91987048D01*
X137071586Y-91944825D01*
X137084994Y-91897200D01*
X137347037Y-91897200D01*
X137345594Y-91998800D01*
X137344150Y-92100400D01*
X137439400Y-92100400D01*
X137439400Y-91782900D01*
X137022125Y-91782900D01*
X136994311Y-91855925D01*
X136975877Y-91922057D01*
X136964373Y-92000265D01*
X136960266Y-92081519D01*
X136964021Y-92156787D01*
X136975718Y-92215855D01*
X137010276Y-92285358D01*
X137064731Y-92349359D01*
X137133600Y-92403370D01*
X137211400Y-92442900D01*
X137274924Y-92460823D01*
X137327802Y-92466838D01*
X137394685Y-92469522D01*
X137467820Y-92469087D01*
X137539453Y-92465748D01*
X137601832Y-92459716D01*
X137647203Y-92451205D01*
X137649525Y-92450527D01*
X137744265Y-92410454D01*
X137820018Y-92353796D01*
X137875980Y-92281626D01*
X137911349Y-92195018D01*
X137925320Y-92095045D01*
X137925521Y-92081984D01*
X137916905Y-91986725D01*
X137916905Y-91986725D01*
G37*
X137916905Y-91986725D02*
X137890872Y-91908075D01*
X137847974Y-91847121D01*
X137788762Y-91804948D01*
X137783428Y-91802459D01*
X137750983Y-91789546D01*
X137729354Y-91784135D01*
X137725339Y-91784829D01*
X137719618Y-91800151D01*
X137713211Y-91830158D01*
X137712234Y-91836047D01*
X137709773Y-91866324D01*
X137718399Y-91885612D01*
X137743474Y-91903991D01*
X137750639Y-91908270D01*
X137793958Y-91947450D01*
X137821083Y-92000614D01*
X137832137Y-92062283D01*
X137827247Y-92126979D01*
X137806537Y-92189223D01*
X137770132Y-92243536D01*
X137742408Y-92268844D01*
X137677166Y-92307219D01*
X137599485Y-92332009D01*
X137505112Y-92344346D01*
X137452100Y-92346183D01*
X137348031Y-92342124D01*
X137263434Y-92326893D01*
X137194435Y-92299325D01*
X137137161Y-92258252D01*
X137126680Y-92248222D01*
X137082088Y-92193240D01*
X137056799Y-92134352D01*
X137050004Y-92067105D01*
X137060896Y-91987048D01*
X137071586Y-91944825D01*
X137084994Y-91897200D01*
X137347037Y-91897200D01*
X137345594Y-91998800D01*
X137344150Y-92100400D01*
X137439400Y-92100400D01*
X137439400Y-91782900D01*
X137022125Y-91782900D01*
X136994311Y-91855925D01*
X136975877Y-91922057D01*
X136964373Y-92000265D01*
X136960266Y-92081519D01*
X136964021Y-92156787D01*
X136975718Y-92215855D01*
X137010276Y-92285358D01*
X137064731Y-92349359D01*
X137133600Y-92403370D01*
X137211400Y-92442900D01*
X137274924Y-92460823D01*
X137327802Y-92466838D01*
X137394685Y-92469522D01*
X137467820Y-92469087D01*
X137539453Y-92465748D01*
X137601832Y-92459716D01*
X137647203Y-92451205D01*
X137649525Y-92450527D01*
X137744265Y-92410454D01*
X137820018Y-92353796D01*
X137875980Y-92281626D01*
X137911349Y-92195018D01*
X137925320Y-92095045D01*
X137925521Y-92081984D01*
X137916905Y-91986725D01*
G36*
X137904214Y-107053347D02*
X137900743Y-107032288D01*
X137899673Y-107025376D01*
X137893718Y-106984800D01*
X136982200Y-106984800D01*
X136982200Y-107111800D01*
X137437919Y-107111800D01*
X137560446Y-107111868D01*
X137659901Y-107111785D01*
X137738612Y-107111113D01*
X137798905Y-107109417D01*
X137843108Y-107106261D01*
X137873548Y-107101210D01*
X137892551Y-107093829D01*
X137902445Y-107083682D01*
X137905557Y-107070333D01*
X137904214Y-107053347D01*
X137904214Y-107053347D01*
G37*
X137904214Y-107053347D02*
X137900743Y-107032288D01*
X137899673Y-107025376D01*
X137893718Y-106984800D01*
X136982200Y-106984800D01*
X136982200Y-107111800D01*
X137437919Y-107111800D01*
X137560446Y-107111868D01*
X137659901Y-107111785D01*
X137738612Y-107111113D01*
X137798905Y-107109417D01*
X137843108Y-107106261D01*
X137873548Y-107101210D01*
X137892551Y-107093829D01*
X137902445Y-107083682D01*
X137905557Y-107070333D01*
X137904214Y-107053347D01*
G36*
X137901554Y-106703465D02*
X137895789Y-106670851D01*
X137888246Y-106653959D01*
X137875730Y-106645142D01*
X137844669Y-106624470D01*
X137797907Y-106593784D01*
X137738289Y-106554925D01*
X137668661Y-106509735D01*
X137591866Y-106460056D01*
X137510751Y-106407728D01*
X137428159Y-106354594D01*
X137346935Y-106302495D01*
X137269925Y-106253273D01*
X137228239Y-106226722D01*
X137225895Y-106222091D01*
X137236449Y-106218419D01*
X137261999Y-106215603D01*
X137304647Y-106213540D01*
X137366492Y-106212127D01*
X137449635Y-106211260D01*
X137550525Y-106210847D01*
X137896600Y-106210100D01*
X137896600Y-106095800D01*
X136982200Y-106095800D01*
X136982557Y-106156125D01*
X136982913Y-106216450D01*
X137251270Y-106387900D01*
X137330881Y-106438632D01*
X137408787Y-106488037D01*
X137480711Y-106533423D01*
X137542381Y-106572096D01*
X137589522Y-106601365D01*
X137609109Y-106613325D01*
X137698592Y-106667300D01*
X136982200Y-106667300D01*
X136982200Y-106781600D01*
X137438042Y-106781600D01*
X137563767Y-106781407D01*
X137666083Y-106780780D01*
X137746976Y-106779652D01*
X137808436Y-106777954D01*
X137852449Y-106775618D01*
X137881003Y-106772576D01*
X137896087Y-106768758D01*
X137899649Y-106765725D01*
X137903244Y-106739044D01*
X137901554Y-106703465D01*
X137901554Y-106703465D01*
G37*
X137901554Y-106703465D02*
X137895789Y-106670851D01*
X137888246Y-106653959D01*
X137875730Y-106645142D01*
X137844669Y-106624470D01*
X137797907Y-106593784D01*
X137738289Y-106554925D01*
X137668661Y-106509735D01*
X137591866Y-106460056D01*
X137510751Y-106407728D01*
X137428159Y-106354594D01*
X137346935Y-106302495D01*
X137269925Y-106253273D01*
X137228239Y-106226722D01*
X137225895Y-106222091D01*
X137236449Y-106218419D01*
X137261999Y-106215603D01*
X137304647Y-106213540D01*
X137366492Y-106212127D01*
X137449635Y-106211260D01*
X137550525Y-106210847D01*
X137896600Y-106210100D01*
X137896600Y-106095800D01*
X136982200Y-106095800D01*
X136982557Y-106156125D01*
X136982913Y-106216450D01*
X137251270Y-106387900D01*
X137330881Y-106438632D01*
X137408787Y-106488037D01*
X137480711Y-106533423D01*
X137542381Y-106572096D01*
X137589522Y-106601365D01*
X137609109Y-106613325D01*
X137698592Y-106667300D01*
X136982200Y-106667300D01*
X136982200Y-106781600D01*
X137438042Y-106781600D01*
X137563767Y-106781407D01*
X137666083Y-106780780D01*
X137746976Y-106779652D01*
X137808436Y-106777954D01*
X137852449Y-106775618D01*
X137881003Y-106772576D01*
X137896087Y-106768758D01*
X137899649Y-106765725D01*
X137903244Y-106739044D01*
X137901554Y-106703465D01*
G36*
X137900236Y-104973639D02*
X137899520Y-104881172D01*
X137899392Y-104868005D01*
X137895834Y-104510160D01*
X137807814Y-104514650D01*
X137807700Y-104825800D01*
X136982200Y-104825800D01*
X136982200Y-104882095D01*
X136985051Y-104920590D01*
X136995025Y-104940239D01*
X137004425Y-104945241D01*
X137022302Y-104946858D01*
X137062274Y-104948157D01*
X137121039Y-104949106D01*
X137195293Y-104949671D01*
X137281735Y-104949822D01*
X137377061Y-104949525D01*
X137417176Y-104949272D01*
X137807702Y-104946450D01*
X137807700Y-105257600D01*
X137850792Y-105257600D01*
X137881081Y-105253411D01*
X137897822Y-105243178D01*
X137898417Y-105241725D01*
X137899471Y-105225324D01*
X137900188Y-105186920D01*
X137900561Y-105129908D01*
X137900579Y-105057683D01*
X137900236Y-104973639D01*
X137900236Y-104973639D01*
G37*
X137900236Y-104973639D02*
X137899520Y-104881172D01*
X137899392Y-104868005D01*
X137895834Y-104510160D01*
X137807814Y-104514650D01*
X137807700Y-104825800D01*
X136982200Y-104825800D01*
X136982200Y-104882095D01*
X136985051Y-104920590D01*
X136995025Y-104940239D01*
X137004425Y-104945241D01*
X137022302Y-104946858D01*
X137062274Y-104948157D01*
X137121039Y-104949106D01*
X137195293Y-104949671D01*
X137281735Y-104949822D01*
X137377061Y-104949525D01*
X137417176Y-104949272D01*
X137807702Y-104946450D01*
X137807700Y-105257600D01*
X137850792Y-105257600D01*
X137881081Y-105253411D01*
X137897822Y-105243178D01*
X137898417Y-105241725D01*
X137899471Y-105225324D01*
X137900188Y-105186920D01*
X137900561Y-105129908D01*
X137900579Y-105057683D01*
X137900236Y-104973639D01*
G36*
X137900022Y-104308571D02*
X137899913Y-104308275D01*
X137892674Y-104303898D01*
X137873285Y-104300342D01*
X137839759Y-104297538D01*
X137790110Y-104295419D01*
X137722349Y-104293916D01*
X137634489Y-104292961D01*
X137524544Y-104292485D01*
X137438042Y-104292400D01*
X136982200Y-104292400D01*
X136982200Y-104348801D01*
X136984148Y-104383743D01*
X136989058Y-104406008D01*
X136991725Y-104409466D01*
X137010635Y-104412056D01*
X137033000Y-104411820D01*
X137053113Y-104411309D01*
X137095337Y-104410750D01*
X137156386Y-104410169D01*
X137232971Y-104409592D01*
X137321805Y-104409045D01*
X137419600Y-104408555D01*
X137479234Y-104408305D01*
X137893718Y-104406700D01*
X137899830Y-104365425D01*
X137902375Y-104331956D01*
X137900022Y-104308571D01*
X137900022Y-104308571D01*
G37*
X137900022Y-104308571D02*
X137899913Y-104308275D01*
X137892674Y-104303898D01*
X137873285Y-104300342D01*
X137839759Y-104297538D01*
X137790110Y-104295419D01*
X137722349Y-104293916D01*
X137634489Y-104292961D01*
X137524544Y-104292485D01*
X137438042Y-104292400D01*
X136982200Y-104292400D01*
X136982200Y-104348801D01*
X136984148Y-104383743D01*
X136989058Y-104406008D01*
X136991725Y-104409466D01*
X137010635Y-104412056D01*
X137033000Y-104411820D01*
X137053113Y-104411309D01*
X137095337Y-104410750D01*
X137156386Y-104410169D01*
X137232971Y-104409592D01*
X137321805Y-104409045D01*
X137419600Y-104408555D01*
X137479234Y-104408305D01*
X137893718Y-104406700D01*
X137899830Y-104365425D01*
X137902375Y-104331956D01*
X137900022Y-104308571D01*
G36*
X137897064Y-103816844D02*
X137896666Y-103723019D01*
X137896127Y-103637871D01*
X137895481Y-103564587D01*
X137894762Y-103506354D01*
X137894005Y-103466360D01*
X137893244Y-103447792D01*
X137893060Y-103446874D01*
X137880002Y-103446960D01*
X137851989Y-103450346D01*
X137848975Y-103450797D01*
X137807700Y-103457083D01*
X137807700Y-103759000D01*
X136982200Y-103759000D01*
X136982200Y-103873300D01*
X137807700Y-103873300D01*
X137807700Y-104192334D01*
X137852979Y-104188392D01*
X137898257Y-104184450D01*
X137897064Y-103816844D01*
X137897064Y-103816844D01*
G37*
X137897064Y-103816844D02*
X137896666Y-103723019D01*
X137896127Y-103637871D01*
X137895481Y-103564587D01*
X137894762Y-103506354D01*
X137894005Y-103466360D01*
X137893244Y-103447792D01*
X137893060Y-103446874D01*
X137880002Y-103446960D01*
X137851989Y-103450346D01*
X137848975Y-103450797D01*
X137807700Y-103457083D01*
X137807700Y-103759000D01*
X136982200Y-103759000D01*
X136982200Y-103873300D01*
X137807700Y-103873300D01*
X137807700Y-104192334D01*
X137852979Y-104188392D01*
X137898257Y-104184450D01*
X137897064Y-103816844D01*
G36*
X137852649Y-101869109D02*
X137807700Y-101865167D01*
X137807700Y-102171500D01*
X136982200Y-102171500D01*
X136982200Y-102298500D01*
X137807700Y-102298500D01*
X137807700Y-102603300D01*
X137852150Y-102603300D01*
X137881596Y-102600108D01*
X137896405Y-102592257D01*
X137896812Y-102590600D01*
X137896877Y-102575027D01*
X137896955Y-102537438D01*
X137897042Y-102481219D01*
X137897131Y-102409753D01*
X137897220Y-102326425D01*
X137897303Y-102234620D01*
X137897310Y-102225475D01*
X137897597Y-101873050D01*
X137852649Y-101869109D01*
X137852649Y-101869109D01*
G37*
X137852649Y-101869109D02*
X137807700Y-101865167D01*
X137807700Y-102171500D01*
X136982200Y-102171500D01*
X136982200Y-102298500D01*
X137807700Y-102298500D01*
X137807700Y-102603300D01*
X137852150Y-102603300D01*
X137881596Y-102600108D01*
X137896405Y-102592257D01*
X137896812Y-102590600D01*
X137896877Y-102575027D01*
X137896955Y-102537438D01*
X137897042Y-102481219D01*
X137897131Y-102409753D01*
X137897220Y-102326425D01*
X137897303Y-102234620D01*
X137897310Y-102225475D01*
X137897597Y-101873050D01*
X137852649Y-101869109D01*
G36*
X137795000Y-101242940D02*
X137795000Y-101638100D01*
X137515600Y-101638100D01*
X137515600Y-101295200D01*
X137414000Y-101295200D01*
X137414000Y-101638100D01*
X137083800Y-101638100D01*
X137083800Y-101206300D01*
X136982200Y-101206300D01*
X136982200Y-101765100D01*
X137439400Y-101765100D01*
X137544321Y-101764846D01*
X137640767Y-101764121D01*
X137725903Y-101762985D01*
X137796897Y-101761497D01*
X137850912Y-101759716D01*
X137885116Y-101757701D01*
X137896682Y-101755575D01*
X137896793Y-101740475D01*
X137897053Y-101704024D01*
X137897434Y-101650275D01*
X137897907Y-101583277D01*
X137898444Y-101507080D01*
X137898505Y-101498400D01*
X137900246Y-101250750D01*
X137795000Y-101242940D01*
X137795000Y-101242940D01*
G37*
X137795000Y-101242940D02*
X137795000Y-101638100D01*
X137515600Y-101638100D01*
X137515600Y-101295200D01*
X137414000Y-101295200D01*
X137414000Y-101638100D01*
X137083800Y-101638100D01*
X137083800Y-101206300D01*
X136982200Y-101206300D01*
X136982200Y-101765100D01*
X137439400Y-101765100D01*
X137544321Y-101764846D01*
X137640767Y-101764121D01*
X137725903Y-101762985D01*
X137796897Y-101761497D01*
X137850912Y-101759716D01*
X137885116Y-101757701D01*
X137896682Y-101755575D01*
X137896793Y-101740475D01*
X137897053Y-101704024D01*
X137897434Y-101650275D01*
X137897907Y-101583277D01*
X137898444Y-101507080D01*
X137898505Y-101498400D01*
X137900246Y-101250750D01*
X137795000Y-101242940D01*
G36*
X137795000Y-99325240D02*
X137795000Y-99720400D01*
X137636250Y-99720400D01*
X137576284Y-99719688D01*
X137526937Y-99717743D01*
X137492959Y-99714852D01*
X137479096Y-99711303D01*
X137479004Y-99710875D01*
X137479460Y-99695220D01*
X137479624Y-99659309D01*
X137479496Y-99608282D01*
X137479076Y-99547283D01*
X137479004Y-99539425D01*
X137477500Y-99377500D01*
X137388600Y-99377500D01*
X137388600Y-99720400D01*
X136982200Y-99720400D01*
X136982200Y-99847400D01*
X137439400Y-99847400D01*
X137560576Y-99847291D01*
X137658697Y-99846899D01*
X137736106Y-99846125D01*
X137795149Y-99844873D01*
X137838168Y-99843045D01*
X137867509Y-99840542D01*
X137885515Y-99837269D01*
X137894531Y-99833126D01*
X137896903Y-99828350D01*
X137897017Y-99810073D01*
X137897154Y-99770751D01*
X137897300Y-99714743D01*
X137897445Y-99646404D01*
X137897575Y-99571175D01*
X137897946Y-99333050D01*
X137795000Y-99325240D01*
X137795000Y-99325240D01*
G37*
X137795000Y-99325240D02*
X137795000Y-99720400D01*
X137636250Y-99720400D01*
X137576284Y-99719688D01*
X137526937Y-99717743D01*
X137492959Y-99714852D01*
X137479096Y-99711303D01*
X137479004Y-99710875D01*
X137479460Y-99695220D01*
X137479624Y-99659309D01*
X137479496Y-99608282D01*
X137479076Y-99547283D01*
X137479004Y-99539425D01*
X137477500Y-99377500D01*
X137388600Y-99377500D01*
X137388600Y-99720400D01*
X136982200Y-99720400D01*
X136982200Y-99847400D01*
X137439400Y-99847400D01*
X137560576Y-99847291D01*
X137658697Y-99846899D01*
X137736106Y-99846125D01*
X137795149Y-99844873D01*
X137838168Y-99843045D01*
X137867509Y-99840542D01*
X137885515Y-99837269D01*
X137894531Y-99833126D01*
X137896903Y-99828350D01*
X137897017Y-99810073D01*
X137897154Y-99770751D01*
X137897300Y-99714743D01*
X137897445Y-99646404D01*
X137897575Y-99571175D01*
X137897946Y-99333050D01*
X137795000Y-99325240D01*
G36*
X137904127Y-98115939D02*
X137884462Y-98106032D01*
X137881767Y-98105515D01*
X137851628Y-98101150D01*
X137831018Y-98103349D01*
X137818128Y-98115824D01*
X137811150Y-98142290D01*
X137808278Y-98186461D01*
X137807702Y-98252050D01*
X137807701Y-98257657D01*
X137807702Y-98405950D01*
X137417176Y-98403129D01*
X137319207Y-98402643D01*
X137228794Y-98402617D01*
X137149239Y-98403020D01*
X137083845Y-98403818D01*
X137035914Y-98404980D01*
X137008750Y-98406473D01*
X137004425Y-98407160D01*
X136989575Y-98418960D01*
X136983031Y-98446240D01*
X136982200Y-98470306D01*
X136982200Y-98526600D01*
X137807700Y-98526600D01*
X137807700Y-98844100D01*
X137896600Y-98844100D01*
X137896774Y-98504375D01*
X137897083Y-98412722D01*
X137897865Y-98328411D01*
X137899046Y-98255085D01*
X137900554Y-98196388D01*
X137902314Y-98155963D01*
X137904166Y-98137755D01*
X137904127Y-98115939D01*
X137904127Y-98115939D01*
G37*
X137904127Y-98115939D02*
X137884462Y-98106032D01*
X137881767Y-98105515D01*
X137851628Y-98101150D01*
X137831018Y-98103349D01*
X137818128Y-98115824D01*
X137811150Y-98142290D01*
X137808278Y-98186461D01*
X137807702Y-98252050D01*
X137807701Y-98257657D01*
X137807702Y-98405950D01*
X137417176Y-98403129D01*
X137319207Y-98402643D01*
X137228794Y-98402617D01*
X137149239Y-98403020D01*
X137083845Y-98403818D01*
X137035914Y-98404980D01*
X137008750Y-98406473D01*
X137004425Y-98407160D01*
X136989575Y-98418960D01*
X136983031Y-98446240D01*
X136982200Y-98470306D01*
X136982200Y-98526600D01*
X137807700Y-98526600D01*
X137807700Y-98844100D01*
X137896600Y-98844100D01*
X137896774Y-98504375D01*
X137897083Y-98412722D01*
X137897865Y-98328411D01*
X137899046Y-98255085D01*
X137900554Y-98196388D01*
X137902314Y-98155963D01*
X137904166Y-98137755D01*
X137904127Y-98115939D01*
G36*
X137900531Y-97748717D02*
X137899740Y-97671744D01*
X137898976Y-97603041D01*
X137898293Y-97546827D01*
X137897741Y-97507320D01*
X137897372Y-97488738D01*
X137897356Y-97488375D01*
X137884924Y-97477239D01*
X137851588Y-97472569D01*
X137845800Y-97472500D01*
X137795000Y-97472500D01*
X137795000Y-97878900D01*
X137515600Y-97878900D01*
X137515600Y-97523300D01*
X137414000Y-97523300D01*
X137414000Y-97878900D01*
X137083800Y-97878900D01*
X137083800Y-97447100D01*
X136982200Y-97447100D01*
X136982200Y-97723325D01*
X136982199Y-97999550D01*
X137023475Y-97997353D01*
X137045932Y-97996792D01*
X137090428Y-97996224D01*
X137153601Y-97995671D01*
X137232092Y-97995157D01*
X137322538Y-97994705D01*
X137421579Y-97994339D01*
X137483850Y-97994170D01*
X137902950Y-97993184D01*
X137900531Y-97748717D01*
X137900531Y-97748717D01*
G37*
X137900531Y-97748717D02*
X137899740Y-97671744D01*
X137898976Y-97603041D01*
X137898293Y-97546827D01*
X137897741Y-97507320D01*
X137897372Y-97488738D01*
X137897356Y-97488375D01*
X137884924Y-97477239D01*
X137851588Y-97472569D01*
X137845800Y-97472500D01*
X137795000Y-97472500D01*
X137795000Y-97878900D01*
X137515600Y-97878900D01*
X137515600Y-97523300D01*
X137414000Y-97523300D01*
X137414000Y-97878900D01*
X137083800Y-97878900D01*
X137083800Y-97447100D01*
X136982200Y-97447100D01*
X136982200Y-97723325D01*
X136982199Y-97999550D01*
X137023475Y-97997353D01*
X137045932Y-97996792D01*
X137090428Y-97996224D01*
X137153601Y-97995671D01*
X137232092Y-97995157D01*
X137322538Y-97994705D01*
X137421579Y-97994339D01*
X137483850Y-97994170D01*
X137902950Y-97993184D01*
X137900531Y-97748717D01*
G36*
X137901357Y-95939457D02*
X137897860Y-95907225D01*
X137885336Y-95905039D01*
X137850257Y-95903029D01*
X137795466Y-95901256D01*
X137723807Y-95899777D01*
X137638126Y-95898652D01*
X137541266Y-95897940D01*
X137439400Y-95897700D01*
X136982200Y-95897700D01*
X136982200Y-96024700D01*
X137401930Y-96024700D01*
X137394950Y-96437450D01*
X136988550Y-96438996D01*
X136984680Y-96498548D01*
X136980809Y-96558100D01*
X137896600Y-96558100D01*
X137896602Y-96497775D01*
X137896603Y-96437450D01*
X137711632Y-96439912D01*
X137644493Y-96440328D01*
X137585623Y-96439797D01*
X137540079Y-96438434D01*
X137512920Y-96436351D01*
X137508430Y-96435378D01*
X137501353Y-96428209D01*
X137496295Y-96410712D01*
X137492960Y-96379476D01*
X137491049Y-96331091D01*
X137490265Y-96262147D01*
X137490200Y-96226542D01*
X137490200Y-96024700D01*
X137692042Y-96024700D01*
X137774009Y-96024128D01*
X137833203Y-96022277D01*
X137872228Y-96018949D01*
X137893689Y-96013945D01*
X137899882Y-96008825D01*
X137903067Y-95982649D01*
X137901357Y-95939457D01*
X137901357Y-95939457D01*
G37*
X137901357Y-95939457D02*
X137897860Y-95907225D01*
X137885336Y-95905039D01*
X137850257Y-95903029D01*
X137795466Y-95901256D01*
X137723807Y-95899777D01*
X137638126Y-95898652D01*
X137541266Y-95897940D01*
X137439400Y-95897700D01*
X136982200Y-95897700D01*
X136982200Y-96024700D01*
X137401930Y-96024700D01*
X137394950Y-96437450D01*
X136988550Y-96438996D01*
X136984680Y-96498548D01*
X136980809Y-96558100D01*
X137896600Y-96558100D01*
X137896602Y-96497775D01*
X137896603Y-96437450D01*
X137711632Y-96439912D01*
X137644493Y-96440328D01*
X137585623Y-96439797D01*
X137540079Y-96438434D01*
X137512920Y-96436351D01*
X137508430Y-96435378D01*
X137501353Y-96428209D01*
X137496295Y-96410712D01*
X137492960Y-96379476D01*
X137491049Y-96331091D01*
X137490265Y-96262147D01*
X137490200Y-96226542D01*
X137490200Y-96024700D01*
X137692042Y-96024700D01*
X137774009Y-96024128D01*
X137833203Y-96022277D01*
X137872228Y-96018949D01*
X137893689Y-96013945D01*
X137899882Y-96008825D01*
X137903067Y-95982649D01*
X137901357Y-95939457D01*
G36*
X137902630Y-95647711D02*
X137896481Y-95610401D01*
X137886493Y-95584358D01*
X137881316Y-95578743D01*
X137866758Y-95569679D01*
X137833661Y-95548693D01*
X137784856Y-95517593D01*
X137723174Y-95478185D01*
X137651446Y-95432278D01*
X137572504Y-95381678D01*
X137551741Y-95368358D01*
X137471109Y-95316651D01*
X137396695Y-95268991D01*
X137331390Y-95227225D01*
X137278086Y-95193199D01*
X137239673Y-95168762D01*
X137219044Y-95155759D01*
X137217053Y-95154541D01*
X137219428Y-95150246D01*
X137242658Y-95146590D01*
X137287681Y-95143524D01*
X137355436Y-95141000D01*
X137446861Y-95138969D01*
X137542863Y-95137606D01*
X137633937Y-95136477D01*
X137716223Y-95135316D01*
X137786445Y-95134181D01*
X137841330Y-95133130D01*
X137877604Y-95132220D01*
X137891993Y-95131508D01*
X137892098Y-95131465D01*
X137894773Y-95118843D01*
X137899083Y-95090217D01*
X137900227Y-95081725D01*
X137906509Y-95034100D01*
X137491980Y-95032731D01*
X137389543Y-95032343D01*
X137293324Y-95031884D01*
X137206780Y-95031378D01*
X137133364Y-95030849D01*
X137076531Y-95030320D01*
X137039737Y-95029816D01*
X137029272Y-95029556D01*
X136981093Y-95027750D01*
X136984822Y-95090867D01*
X136988550Y-95153984D01*
X137242550Y-95316696D01*
X137321315Y-95367080D01*
X137399486Y-95416954D01*
X137472349Y-95463319D01*
X137535191Y-95503178D01*
X137583299Y-95533533D01*
X137597620Y-95542505D01*
X137698689Y-95605600D01*
X136982200Y-95605600D01*
X136982200Y-95715812D01*
X137029825Y-95712831D01*
X137053936Y-95712066D01*
X137100000Y-95711291D01*
X137164570Y-95710538D01*
X137244200Y-95709840D01*
X137335444Y-95709229D01*
X137434854Y-95708736D01*
X137492464Y-95708526D01*
X137907477Y-95707200D01*
X137902630Y-95647711D01*
X137902630Y-95647711D01*
G37*
X137902630Y-95647711D02*
X137896481Y-95610401D01*
X137886493Y-95584358D01*
X137881316Y-95578743D01*
X137866758Y-95569679D01*
X137833661Y-95548693D01*
X137784856Y-95517593D01*
X137723174Y-95478185D01*
X137651446Y-95432278D01*
X137572504Y-95381678D01*
X137551741Y-95368358D01*
X137471109Y-95316651D01*
X137396695Y-95268991D01*
X137331390Y-95227225D01*
X137278086Y-95193199D01*
X137239673Y-95168762D01*
X137219044Y-95155759D01*
X137217053Y-95154541D01*
X137219428Y-95150246D01*
X137242658Y-95146590D01*
X137287681Y-95143524D01*
X137355436Y-95141000D01*
X137446861Y-95138969D01*
X137542863Y-95137606D01*
X137633937Y-95136477D01*
X137716223Y-95135316D01*
X137786445Y-95134181D01*
X137841330Y-95133130D01*
X137877604Y-95132220D01*
X137891993Y-95131508D01*
X137892098Y-95131465D01*
X137894773Y-95118843D01*
X137899083Y-95090217D01*
X137900227Y-95081725D01*
X137906509Y-95034100D01*
X137491980Y-95032731D01*
X137389543Y-95032343D01*
X137293324Y-95031884D01*
X137206780Y-95031378D01*
X137133364Y-95030849D01*
X137076531Y-95030320D01*
X137039737Y-95029816D01*
X137029272Y-95029556D01*
X136981093Y-95027750D01*
X136984822Y-95090867D01*
X136988550Y-95153984D01*
X137242550Y-95316696D01*
X137321315Y-95367080D01*
X137399486Y-95416954D01*
X137472349Y-95463319D01*
X137535191Y-95503178D01*
X137583299Y-95533533D01*
X137597620Y-95542505D01*
X137698689Y-95605600D01*
X136982200Y-95605600D01*
X136982200Y-95715812D01*
X137029825Y-95712831D01*
X137053936Y-95712066D01*
X137100000Y-95711291D01*
X137164570Y-95710538D01*
X137244200Y-95709840D01*
X137335444Y-95709229D01*
X137434854Y-95708736D01*
X137492464Y-95708526D01*
X137907477Y-95707200D01*
X137902630Y-95647711D01*
G36*
X137906244Y-93939245D02*
X137903470Y-93920270D01*
X137902949Y-93916500D01*
X137899309Y-93888617D01*
X137897659Y-93875225D01*
X137885196Y-93872912D01*
X137850349Y-93870801D01*
X137796136Y-93868963D01*
X137725570Y-93867469D01*
X137641670Y-93866390D01*
X137547450Y-93865795D01*
X137490200Y-93865700D01*
X137083800Y-93865700D01*
X137083800Y-93383100D01*
X136982200Y-93383100D01*
X136982200Y-93992700D01*
X137438545Y-93992700D01*
X137560974Y-93992742D01*
X137660346Y-93992611D01*
X137739002Y-93991924D01*
X137799283Y-93990295D01*
X137843532Y-93987341D01*
X137874090Y-93982677D01*
X137893299Y-93975920D01*
X137903499Y-93966685D01*
X137907034Y-93954588D01*
X137906244Y-93939245D01*
X137906244Y-93939245D01*
G37*
X137906244Y-93939245D02*
X137903470Y-93920270D01*
X137902949Y-93916500D01*
X137899309Y-93888617D01*
X137897659Y-93875225D01*
X137885196Y-93872912D01*
X137850349Y-93870801D01*
X137796136Y-93868963D01*
X137725570Y-93867469D01*
X137641670Y-93866390D01*
X137547450Y-93865795D01*
X137490200Y-93865700D01*
X137083800Y-93865700D01*
X137083800Y-93383100D01*
X136982200Y-93383100D01*
X136982200Y-93992700D01*
X137438545Y-93992700D01*
X137560974Y-93992742D01*
X137660346Y-93992611D01*
X137739002Y-93991924D01*
X137799283Y-93990295D01*
X137843532Y-93987341D01*
X137874090Y-93982677D01*
X137893299Y-93975920D01*
X137903499Y-93966685D01*
X137907034Y-93954588D01*
X137906244Y-93939245D01*
G36*
X137902292Y-91645655D02*
X137899341Y-91611874D01*
X137894796Y-91588229D01*
X137893055Y-91584239D01*
X137880205Y-91573833D01*
X137849485Y-91552811D01*
X137804760Y-91523704D01*
X137749890Y-91489045D01*
X137713359Y-91466425D01*
X137654984Y-91430322D01*
X137605070Y-91399027D01*
X137567256Y-91374857D01*
X137545184Y-91360130D01*
X137541000Y-91356739D01*
X137551254Y-91349210D01*
X137579494Y-91330966D01*
X137621946Y-91304387D01*
X137674832Y-91271852D01*
X137702925Y-91254750D01*
X137761209Y-91219065D01*
X137812518Y-91187049D01*
X137852532Y-91161441D01*
X137876933Y-91144983D01*
X137881539Y-91141410D01*
X137891626Y-91122622D01*
X137899069Y-91092244D01*
X137902864Y-91059211D01*
X137902005Y-91032458D01*
X137895486Y-91020919D01*
X137895102Y-91020900D01*
X137881608Y-91027253D01*
X137849766Y-91045037D01*
X137802844Y-91072341D01*
X137744107Y-91107254D01*
X137676821Y-91147866D01*
X137646058Y-91166614D01*
X137407650Y-91312327D01*
X137194919Y-91309489D01*
X136982187Y-91306650D01*
X136982194Y-91366975D01*
X136982200Y-91427300D01*
X137414785Y-91427300D01*
X137576318Y-91526905D01*
X137669360Y-91584212D01*
X137743007Y-91629401D01*
X137799431Y-91663771D01*
X137840804Y-91688622D01*
X137869298Y-91705253D01*
X137887086Y-91714962D01*
X137896339Y-91719048D01*
X137898209Y-91719400D01*
X137902063Y-91708260D01*
X137903312Y-91680731D01*
X137902292Y-91645655D01*
X137902292Y-91645655D01*
G37*
X137902292Y-91645655D02*
X137899341Y-91611874D01*
X137894796Y-91588229D01*
X137893055Y-91584239D01*
X137880205Y-91573833D01*
X137849485Y-91552811D01*
X137804760Y-91523704D01*
X137749890Y-91489045D01*
X137713359Y-91466425D01*
X137654984Y-91430322D01*
X137605070Y-91399027D01*
X137567256Y-91374857D01*
X137545184Y-91360130D01*
X137541000Y-91356739D01*
X137551254Y-91349210D01*
X137579494Y-91330966D01*
X137621946Y-91304387D01*
X137674832Y-91271852D01*
X137702925Y-91254750D01*
X137761209Y-91219065D01*
X137812518Y-91187049D01*
X137852532Y-91161441D01*
X137876933Y-91144983D01*
X137881539Y-91141410D01*
X137891626Y-91122622D01*
X137899069Y-91092244D01*
X137902864Y-91059211D01*
X137902005Y-91032458D01*
X137895486Y-91020919D01*
X137895102Y-91020900D01*
X137881608Y-91027253D01*
X137849766Y-91045037D01*
X137802844Y-91072341D01*
X137744107Y-91107254D01*
X137676821Y-91147866D01*
X137646058Y-91166614D01*
X137407650Y-91312327D01*
X137194919Y-91309489D01*
X136982187Y-91306650D01*
X136982194Y-91366975D01*
X136982200Y-91427300D01*
X137414785Y-91427300D01*
X137576318Y-91526905D01*
X137669360Y-91584212D01*
X137743007Y-91629401D01*
X137799431Y-91663771D01*
X137840804Y-91688622D01*
X137869298Y-91705253D01*
X137887086Y-91714962D01*
X137896339Y-91719048D01*
X137898209Y-91719400D01*
X137902063Y-91708260D01*
X137903312Y-91680731D01*
X137902292Y-91645655D01*
G36*
X139410301Y-100655679D02*
X139402273Y-100592361D01*
X139390983Y-100554305D01*
X139342649Y-100472220D01*
X139275264Y-100405713D01*
X139190401Y-100355538D01*
X139089633Y-100322449D01*
X138974535Y-100307198D01*
X138876805Y-100308106D01*
X138771020Y-100321269D01*
X138683487Y-100346909D01*
X138609360Y-100386937D01*
X138550108Y-100436836D01*
X138494840Y-100503287D01*
X138463989Y-100564146D01*
X138448010Y-100638689D01*
X138444988Y-100722213D01*
X138454883Y-100802409D01*
X138464866Y-100837988D01*
X138500293Y-100904167D01*
X138555393Y-100965066D01*
X138624442Y-101015587D01*
X138701714Y-101050628D01*
X138704640Y-101051556D01*
X138761550Y-101067103D01*
X138821227Y-101079962D01*
X138862965Y-101086364D01*
X138918950Y-101087843D01*
X138918950Y-100956881D01*
X138814595Y-100950356D01*
X138729364Y-100931607D01*
X138659487Y-100899411D01*
X138603124Y-100854491D01*
X138557285Y-100795160D01*
X138535924Y-100731709D01*
X138538183Y-100660859D01*
X138544859Y-100632020D01*
X138570763Y-100573697D01*
X138614752Y-100525633D01*
X138680009Y-100484601D01*
X138699345Y-100475370D01*
X138737961Y-100458900D01*
X138771859Y-100448248D01*
X138808616Y-100442141D01*
X138855811Y-100439304D01*
X138918950Y-100438473D01*
X139019895Y-100442104D01*
X139101211Y-100454662D01*
X139167474Y-100477379D01*
X139223262Y-100511490D01*
X139239501Y-100524883D01*
X139287684Y-100582276D01*
X139314358Y-100647728D01*
X139319562Y-100716425D01*
X139303334Y-100783550D01*
X139265712Y-100844290D01*
X139236760Y-100872536D01*
X139172652Y-100913436D01*
X139094939Y-100940431D01*
X139000307Y-100954401D01*
X138918950Y-100956881D01*
X138918950Y-101087843D01*
X138935147Y-101088272D01*
X139017695Y-101081501D01*
X139100025Y-101067545D01*
X139171555Y-101047899D01*
X139192314Y-101039855D01*
X139248774Y-101006258D01*
X139305843Y-100956841D01*
X139355466Y-100899659D01*
X139389585Y-100842768D01*
X139389707Y-100842488D01*
X139403973Y-100790913D01*
X139410853Y-100725253D01*
X139410301Y-100655679D01*
X139410301Y-100655679D01*
G37*
X139410301Y-100655679D02*
X139402273Y-100592361D01*
X139390983Y-100554305D01*
X139342649Y-100472220D01*
X139275264Y-100405713D01*
X139190401Y-100355538D01*
X139089633Y-100322449D01*
X138974535Y-100307198D01*
X138876805Y-100308106D01*
X138771020Y-100321269D01*
X138683487Y-100346909D01*
X138609360Y-100386937D01*
X138550108Y-100436836D01*
X138494840Y-100503287D01*
X138463989Y-100564146D01*
X138448010Y-100638689D01*
X138444988Y-100722213D01*
X138454883Y-100802409D01*
X138464866Y-100837988D01*
X138500293Y-100904167D01*
X138555393Y-100965066D01*
X138624442Y-101015587D01*
X138701714Y-101050628D01*
X138704640Y-101051556D01*
X138761550Y-101067103D01*
X138821227Y-101079962D01*
X138862965Y-101086364D01*
X138918950Y-101087843D01*
X138918950Y-100956881D01*
X138814595Y-100950356D01*
X138729364Y-100931607D01*
X138659487Y-100899411D01*
X138603124Y-100854491D01*
X138557285Y-100795160D01*
X138535924Y-100731709D01*
X138538183Y-100660859D01*
X138544859Y-100632020D01*
X138570763Y-100573697D01*
X138614752Y-100525633D01*
X138680009Y-100484601D01*
X138699345Y-100475370D01*
X138737961Y-100458900D01*
X138771859Y-100448248D01*
X138808616Y-100442141D01*
X138855811Y-100439304D01*
X138918950Y-100438473D01*
X139019895Y-100442104D01*
X139101211Y-100454662D01*
X139167474Y-100477379D01*
X139223262Y-100511490D01*
X139239501Y-100524883D01*
X139287684Y-100582276D01*
X139314358Y-100647728D01*
X139319562Y-100716425D01*
X139303334Y-100783550D01*
X139265712Y-100844290D01*
X139236760Y-100872536D01*
X139172652Y-100913436D01*
X139094939Y-100940431D01*
X139000307Y-100954401D01*
X138918950Y-100956881D01*
X138918950Y-101087843D01*
X138935147Y-101088272D01*
X139017695Y-101081501D01*
X139100025Y-101067545D01*
X139171555Y-101047899D01*
X139192314Y-101039855D01*
X139248774Y-101006258D01*
X139305843Y-100956841D01*
X139355466Y-100899659D01*
X139389585Y-100842768D01*
X139389707Y-100842488D01*
X139403973Y-100790913D01*
X139410853Y-100725253D01*
X139410301Y-100655679D01*
G36*
X139409316Y-99836514D02*
X139401995Y-99783284D01*
X139391453Y-99750488D01*
X139362419Y-99708793D01*
X139324876Y-99673330D01*
X139286147Y-99650062D01*
X139260876Y-99644200D01*
X139241335Y-99646975D01*
X139232437Y-99659957D01*
X139230129Y-99690130D01*
X139230100Y-99697251D01*
X139234023Y-99736656D01*
X139249960Y-99764778D01*
X139270406Y-99783949D01*
X139293834Y-99806612D01*
X139307010Y-99830961D01*
X139313803Y-99866282D01*
X139316235Y-99893963D01*
X139314720Y-99963566D01*
X139297598Y-100015425D01*
X139263282Y-100052972D01*
X139235183Y-100069401D01*
X139198052Y-100083310D01*
X139165401Y-100083481D01*
X139140011Y-100077145D01*
X139111977Y-100066006D01*
X139087605Y-100048580D01*
X139064142Y-100021186D01*
X139038833Y-99980140D01*
X139008923Y-99921761D01*
X138983371Y-99867744D01*
X138948016Y-99793947D01*
X138918760Y-99739630D01*
X138892551Y-99700581D01*
X138866333Y-99672587D01*
X138837053Y-99651435D01*
X138819456Y-99641666D01*
X138749115Y-99618263D01*
X138676300Y-99616445D01*
X138605948Y-99634147D01*
X138542995Y-99669304D01*
X138492377Y-99719847D01*
X138459030Y-99783712D01*
X138455959Y-99793820D01*
X138448032Y-99841533D01*
X138444676Y-99904526D01*
X138445835Y-99973106D01*
X138451452Y-100037576D01*
X138457588Y-100073229D01*
X138482512Y-100131510D01*
X138526057Y-100182333D01*
X138581450Y-100218743D01*
X138608992Y-100228721D01*
X138642043Y-100236348D01*
X138662961Y-100238785D01*
X138665888Y-100238046D01*
X138669863Y-100223718D01*
X138674578Y-100192734D01*
X138676755Y-100173711D01*
X138679524Y-100137681D01*
X138676127Y-100120178D01*
X138663702Y-100114548D01*
X138651122Y-100114100D01*
X138611849Y-100102337D01*
X138578316Y-100070380D01*
X138553031Y-100023230D01*
X138538501Y-99965886D01*
X138537234Y-99903349D01*
X138538853Y-99890262D01*
X138557400Y-99831535D01*
X138590636Y-99785545D01*
X138633931Y-99754349D01*
X138682653Y-99740007D01*
X138732171Y-99744575D01*
X138777855Y-99770113D01*
X138787772Y-99779632D01*
X138804388Y-99802596D01*
X138828761Y-99843140D01*
X138857820Y-99895864D01*
X138888496Y-99955370D01*
X138893550Y-99965569D01*
X138927965Y-100033460D01*
X138955683Y-100082687D01*
X138979876Y-100117992D01*
X139003716Y-100144116D01*
X139024713Y-100161626D01*
X139058692Y-100184899D01*
X139088768Y-100197376D01*
X139125721Y-100202303D01*
X139162073Y-100203000D01*
X139209712Y-100200844D01*
X139250478Y-100195239D01*
X139272210Y-100188749D01*
X139323061Y-100152632D01*
X139367550Y-100103505D01*
X139391149Y-100063300D01*
X139402792Y-100020820D01*
X139409706Y-99963430D01*
X139411883Y-99899278D01*
X139409316Y-99836514D01*
X139409316Y-99836514D01*
G37*
X139409316Y-99836514D02*
X139401995Y-99783284D01*
X139391453Y-99750488D01*
X139362419Y-99708793D01*
X139324876Y-99673330D01*
X139286147Y-99650062D01*
X139260876Y-99644200D01*
X139241335Y-99646975D01*
X139232437Y-99659957D01*
X139230129Y-99690130D01*
X139230100Y-99697251D01*
X139234023Y-99736656D01*
X139249960Y-99764778D01*
X139270406Y-99783949D01*
X139293834Y-99806612D01*
X139307010Y-99830961D01*
X139313803Y-99866282D01*
X139316235Y-99893963D01*
X139314720Y-99963566D01*
X139297598Y-100015425D01*
X139263282Y-100052972D01*
X139235183Y-100069401D01*
X139198052Y-100083310D01*
X139165401Y-100083481D01*
X139140011Y-100077145D01*
X139111977Y-100066006D01*
X139087605Y-100048580D01*
X139064142Y-100021186D01*
X139038833Y-99980140D01*
X139008923Y-99921761D01*
X138983371Y-99867744D01*
X138948016Y-99793947D01*
X138918760Y-99739630D01*
X138892551Y-99700581D01*
X138866333Y-99672587D01*
X138837053Y-99651435D01*
X138819456Y-99641666D01*
X138749115Y-99618263D01*
X138676300Y-99616445D01*
X138605948Y-99634147D01*
X138542995Y-99669304D01*
X138492377Y-99719847D01*
X138459030Y-99783712D01*
X138455959Y-99793820D01*
X138448032Y-99841533D01*
X138444676Y-99904526D01*
X138445835Y-99973106D01*
X138451452Y-100037576D01*
X138457588Y-100073229D01*
X138482512Y-100131510D01*
X138526057Y-100182333D01*
X138581450Y-100218743D01*
X138608992Y-100228721D01*
X138642043Y-100236348D01*
X138662961Y-100238785D01*
X138665888Y-100238046D01*
X138669863Y-100223718D01*
X138674578Y-100192734D01*
X138676755Y-100173711D01*
X138679524Y-100137681D01*
X138676127Y-100120178D01*
X138663702Y-100114548D01*
X138651122Y-100114100D01*
X138611849Y-100102337D01*
X138578316Y-100070380D01*
X138553031Y-100023230D01*
X138538501Y-99965886D01*
X138537234Y-99903349D01*
X138538853Y-99890262D01*
X138557400Y-99831535D01*
X138590636Y-99785545D01*
X138633931Y-99754349D01*
X138682653Y-99740007D01*
X138732171Y-99744575D01*
X138777855Y-99770113D01*
X138787772Y-99779632D01*
X138804388Y-99802596D01*
X138828761Y-99843140D01*
X138857820Y-99895864D01*
X138888496Y-99955370D01*
X138893550Y-99965569D01*
X138927965Y-100033460D01*
X138955683Y-100082687D01*
X138979876Y-100117992D01*
X139003716Y-100144116D01*
X139024713Y-100161626D01*
X139058692Y-100184899D01*
X139088768Y-100197376D01*
X139125721Y-100202303D01*
X139162073Y-100203000D01*
X139209712Y-100200844D01*
X139250478Y-100195239D01*
X139272210Y-100188749D01*
X139323061Y-100152632D01*
X139367550Y-100103505D01*
X139391149Y-100063300D01*
X139402792Y-100020820D01*
X139409706Y-99963430D01*
X139411883Y-99899278D01*
X139409316Y-99836514D01*
G36*
X138944631Y-98906481D02*
X138843631Y-98868391D01*
X138749795Y-98833010D01*
X138665851Y-98801368D01*
X138594533Y-98774493D01*
X138538569Y-98753416D01*
X138500693Y-98739163D01*
X138483635Y-98732766D01*
X138483255Y-98732626D01*
X138473628Y-98735186D01*
X138469696Y-98754907D01*
X138470555Y-98794401D01*
X138474450Y-98862271D01*
X138595100Y-98907648D01*
X138715750Y-98953024D01*
X138722402Y-99358450D01*
X138468100Y-99459520D01*
X138468100Y-99513760D01*
X138469952Y-99546830D01*
X138474609Y-99566039D01*
X138476969Y-99568000D01*
X138481678Y-99566978D01*
X138492218Y-99563427D01*
X138510392Y-99556620D01*
X138538004Y-99545830D01*
X138576856Y-99530331D01*
X138628752Y-99509396D01*
X138695494Y-99482298D01*
X138778886Y-99448311D01*
X138820525Y-99431302D01*
X138820525Y-99314071D01*
X138816917Y-99302146D01*
X138813936Y-99269634D01*
X138811870Y-99221347D01*
X138811009Y-99162097D01*
X138811000Y-99155250D01*
X138811714Y-99095101D01*
X138813664Y-99045393D01*
X138816560Y-99010939D01*
X138820115Y-98996551D01*
X138820525Y-98996400D01*
X138836485Y-99000640D01*
X138870419Y-99012245D01*
X138917558Y-99029379D01*
X138973135Y-99050202D01*
X139032379Y-99072876D01*
X139090524Y-99095563D01*
X139142801Y-99116423D01*
X139184441Y-99133619D01*
X139210676Y-99145312D01*
X139217379Y-99149408D01*
X139206362Y-99155931D01*
X139176430Y-99169860D01*
X139132283Y-99189244D01*
X139078620Y-99212135D01*
X139020141Y-99236583D01*
X138961544Y-99260636D01*
X138907530Y-99282346D01*
X138862798Y-99299763D01*
X138832047Y-99310936D01*
X138820525Y-99314071D01*
X138820525Y-99431302D01*
X138880732Y-99406707D01*
X139002833Y-99356759D01*
X139115800Y-99310515D01*
X139376150Y-99203914D01*
X139382781Y-99139077D01*
X139389411Y-99074239D01*
X138944631Y-98906481D01*
X138944631Y-98906481D01*
G37*
X138944631Y-98906481D02*
X138843631Y-98868391D01*
X138749795Y-98833010D01*
X138665851Y-98801368D01*
X138594533Y-98774493D01*
X138538569Y-98753416D01*
X138500693Y-98739163D01*
X138483635Y-98732766D01*
X138483255Y-98732626D01*
X138473628Y-98735186D01*
X138469696Y-98754907D01*
X138470555Y-98794401D01*
X138474450Y-98862271D01*
X138595100Y-98907648D01*
X138715750Y-98953024D01*
X138722402Y-99358450D01*
X138468100Y-99459520D01*
X138468100Y-99513760D01*
X138469952Y-99546830D01*
X138474609Y-99566039D01*
X138476969Y-99568000D01*
X138481678Y-99566978D01*
X138492218Y-99563427D01*
X138510392Y-99556620D01*
X138538004Y-99545830D01*
X138576856Y-99530331D01*
X138628752Y-99509396D01*
X138695494Y-99482298D01*
X138778886Y-99448311D01*
X138820525Y-99431302D01*
X138820525Y-99314071D01*
X138816917Y-99302146D01*
X138813936Y-99269634D01*
X138811870Y-99221347D01*
X138811009Y-99162097D01*
X138811000Y-99155250D01*
X138811714Y-99095101D01*
X138813664Y-99045393D01*
X138816560Y-99010939D01*
X138820115Y-98996551D01*
X138820525Y-98996400D01*
X138836485Y-99000640D01*
X138870419Y-99012245D01*
X138917558Y-99029379D01*
X138973135Y-99050202D01*
X139032379Y-99072876D01*
X139090524Y-99095563D01*
X139142801Y-99116423D01*
X139184441Y-99133619D01*
X139210676Y-99145312D01*
X139217379Y-99149408D01*
X139206362Y-99155931D01*
X139176430Y-99169860D01*
X139132283Y-99189244D01*
X139078620Y-99212135D01*
X139020141Y-99236583D01*
X138961544Y-99260636D01*
X138907530Y-99282346D01*
X138862798Y-99299763D01*
X138832047Y-99310936D01*
X138820525Y-99314071D01*
X138820525Y-99431302D01*
X138880732Y-99406707D01*
X139002833Y-99356759D01*
X139115800Y-99310515D01*
X139376150Y-99203914D01*
X139382781Y-99139077D01*
X139389411Y-99074239D01*
X138944631Y-98906481D01*
G36*
X139386420Y-98072395D02*
X139382260Y-98036647D01*
X139378705Y-98013636D01*
X139377482Y-98009441D01*
X139367589Y-98016589D01*
X139341410Y-98038168D01*
X139301716Y-98071818D01*
X139251281Y-98115180D01*
X139192877Y-98165894D01*
X139165908Y-98189458D01*
X138957050Y-98372285D01*
X138918950Y-98337246D01*
X138896474Y-98316893D01*
X138859715Y-98283964D01*
X138812338Y-98241707D01*
X138758005Y-98193371D01*
X138700378Y-98142206D01*
X138643122Y-98091460D01*
X138589897Y-98044382D01*
X138544369Y-98004222D01*
X138510198Y-97974228D01*
X138491048Y-97957650D01*
X138490325Y-97957043D01*
X138478072Y-97948707D01*
X138471406Y-97952708D01*
X138468644Y-97973410D01*
X138468100Y-98014673D01*
X138468100Y-98090882D01*
X138936924Y-98507550D01*
X138702512Y-98511006D01*
X138468100Y-98514461D01*
X138468100Y-98640900D01*
X138925300Y-98640900D01*
X139050569Y-98640716D01*
X139152431Y-98640115D01*
X139232878Y-98639030D01*
X139293902Y-98637391D01*
X139337495Y-98635129D01*
X139365647Y-98632176D01*
X139380350Y-98628462D01*
X139383762Y-98625025D01*
X139385143Y-98602106D01*
X139386804Y-98567753D01*
X139386937Y-98564700D01*
X139388850Y-98520250D01*
X139175632Y-98513900D01*
X138962413Y-98507550D01*
X139177527Y-98320045D01*
X139392641Y-98132539D01*
X139386420Y-98072395D01*
X139386420Y-98072395D01*
G37*
X139386420Y-98072395D02*
X139382260Y-98036647D01*
X139378705Y-98013636D01*
X139377482Y-98009441D01*
X139367589Y-98016589D01*
X139341410Y-98038168D01*
X139301716Y-98071818D01*
X139251281Y-98115180D01*
X139192877Y-98165894D01*
X139165908Y-98189458D01*
X138957050Y-98372285D01*
X138918950Y-98337246D01*
X138896474Y-98316893D01*
X138859715Y-98283964D01*
X138812338Y-98241707D01*
X138758005Y-98193371D01*
X138700378Y-98142206D01*
X138643122Y-98091460D01*
X138589897Y-98044382D01*
X138544369Y-98004222D01*
X138510198Y-97974228D01*
X138491048Y-97957650D01*
X138490325Y-97957043D01*
X138478072Y-97948707D01*
X138471406Y-97952708D01*
X138468644Y-97973410D01*
X138468100Y-98014673D01*
X138468100Y-98090882D01*
X138936924Y-98507550D01*
X138702512Y-98511006D01*
X138468100Y-98514461D01*
X138468100Y-98640900D01*
X138925300Y-98640900D01*
X139050569Y-98640716D01*
X139152431Y-98640115D01*
X139232878Y-98639030D01*
X139293902Y-98637391D01*
X139337495Y-98635129D01*
X139365647Y-98632176D01*
X139380350Y-98628462D01*
X139383762Y-98625025D01*
X139385143Y-98602106D01*
X139386804Y-98567753D01*
X139386937Y-98564700D01*
X139388850Y-98520250D01*
X139175632Y-98513900D01*
X138962413Y-98507550D01*
X139177527Y-98320045D01*
X139392641Y-98132539D01*
X139386420Y-98072395D01*
G36*
X139388049Y-97478605D02*
X139386646Y-97441141D01*
X139379043Y-97419969D01*
X139359092Y-97405978D01*
X139331075Y-97394221D01*
X139305099Y-97384119D01*
X139258828Y-97366379D01*
X139195735Y-97342321D01*
X139119293Y-97313268D01*
X139032974Y-97280538D01*
X138940250Y-97245455D01*
X138906250Y-97232609D01*
X138813389Y-97197530D01*
X138726850Y-97164827D01*
X138649862Y-97135722D01*
X138585655Y-97111436D01*
X138537458Y-97093190D01*
X138508502Y-97082206D01*
X138503025Y-97080117D01*
X138468100Y-97066729D01*
X138468100Y-97135409D01*
X138469430Y-97176105D01*
X138475153Y-97198527D01*
X138487869Y-97209738D01*
X138496675Y-97213042D01*
X138521776Y-97221691D01*
X138562727Y-97236603D01*
X138611677Y-97254907D01*
X138623675Y-97259460D01*
X138722100Y-97296924D01*
X138722100Y-97697604D01*
X138474450Y-97799706D01*
X138470585Y-97858220D01*
X138469973Y-97894635D01*
X138475149Y-97910042D01*
X138483285Y-97910222D01*
X138498435Y-97904088D01*
X138534406Y-97889439D01*
X138588511Y-97867372D01*
X138658061Y-97838984D01*
X138740366Y-97805373D01*
X138811000Y-97776518D01*
X138811000Y-97663341D01*
X138811000Y-97496712D01*
X138811563Y-97426017D01*
X138813445Y-97377745D01*
X138816940Y-97348942D01*
X138822338Y-97336652D01*
X138826875Y-97336068D01*
X138952841Y-97383709D01*
X139055000Y-97422684D01*
X139133410Y-97453016D01*
X139188134Y-97474728D01*
X139219230Y-97487843D01*
X139227099Y-97492289D01*
X139214747Y-97497947D01*
X139183239Y-97511213D01*
X139136997Y-97530253D01*
X139080446Y-97553235D01*
X139065000Y-97559469D01*
X139001474Y-97585126D01*
X138942180Y-97609175D01*
X138893317Y-97629095D01*
X138861082Y-97642367D01*
X138858625Y-97643393D01*
X138811000Y-97663341D01*
X138811000Y-97776518D01*
X138832739Y-97767636D01*
X138932490Y-97726872D01*
X138944175Y-97722096D01*
X139388499Y-97540481D01*
X139388049Y-97478605D01*
X139388049Y-97478605D01*
G37*
X139388049Y-97478605D02*
X139386646Y-97441141D01*
X139379043Y-97419969D01*
X139359092Y-97405978D01*
X139331075Y-97394221D01*
X139305099Y-97384119D01*
X139258828Y-97366379D01*
X139195735Y-97342321D01*
X139119293Y-97313268D01*
X139032974Y-97280538D01*
X138940250Y-97245455D01*
X138906250Y-97232609D01*
X138813389Y-97197530D01*
X138726850Y-97164827D01*
X138649862Y-97135722D01*
X138585655Y-97111436D01*
X138537458Y-97093190D01*
X138508502Y-97082206D01*
X138503025Y-97080117D01*
X138468100Y-97066729D01*
X138468100Y-97135409D01*
X138469430Y-97176105D01*
X138475153Y-97198527D01*
X138487869Y-97209738D01*
X138496675Y-97213042D01*
X138521776Y-97221691D01*
X138562727Y-97236603D01*
X138611677Y-97254907D01*
X138623675Y-97259460D01*
X138722100Y-97296924D01*
X138722100Y-97697604D01*
X138474450Y-97799706D01*
X138470585Y-97858220D01*
X138469973Y-97894635D01*
X138475149Y-97910042D01*
X138483285Y-97910222D01*
X138498435Y-97904088D01*
X138534406Y-97889439D01*
X138588511Y-97867372D01*
X138658061Y-97838984D01*
X138740366Y-97805373D01*
X138811000Y-97776518D01*
X138811000Y-97663341D01*
X138811000Y-97496712D01*
X138811563Y-97426017D01*
X138813445Y-97377745D01*
X138816940Y-97348942D01*
X138822338Y-97336652D01*
X138826875Y-97336068D01*
X138952841Y-97383709D01*
X139055000Y-97422684D01*
X139133410Y-97453016D01*
X139188134Y-97474728D01*
X139219230Y-97487843D01*
X139227099Y-97492289D01*
X139214747Y-97497947D01*
X139183239Y-97511213D01*
X139136997Y-97530253D01*
X139080446Y-97553235D01*
X139065000Y-97559469D01*
X139001474Y-97585126D01*
X138942180Y-97609175D01*
X138893317Y-97629095D01*
X138861082Y-97642367D01*
X138858625Y-97643393D01*
X138811000Y-97663341D01*
X138811000Y-97776518D01*
X138832739Y-97767636D01*
X138932490Y-97726872D01*
X138944175Y-97722096D01*
X139388499Y-97540481D01*
X139388049Y-97478605D01*
G36*
X142836900Y-97066100D02*
X142836900Y-98221800D01*
X142252700Y-98221800D01*
X142252700Y-97650300D01*
X141109700Y-97650300D01*
X141109700Y-97066100D01*
X139966700Y-97066100D01*
X139966700Y-101079562D01*
X141103350Y-101072950D01*
X141109697Y-99981856D01*
X141109697Y-99371150D01*
X141109699Y-99075787D01*
X141109700Y-98780423D01*
X141970125Y-98783687D01*
X142830550Y-98786950D01*
X142833963Y-99075701D01*
X142837376Y-99364451D01*
X141973537Y-99367801D01*
X141109697Y-99371150D01*
X141109697Y-99981856D01*
X141109962Y-99936300D01*
X142836900Y-99936300D01*
X142836900Y-101079300D01*
X143967200Y-101079300D01*
X143967200Y-97066100D01*
X142836900Y-97066100D01*
X142836900Y-97066100D01*
G37*
X142836900Y-97066100D02*
X142836900Y-98221800D01*
X142252700Y-98221800D01*
X142252700Y-97650300D01*
X141109700Y-97650300D01*
X141109700Y-97066100D01*
X139966700Y-97066100D01*
X139966700Y-101079562D01*
X141103350Y-101072950D01*
X141109697Y-99981856D01*
X141109697Y-99371150D01*
X141109699Y-99075787D01*
X141109700Y-98780423D01*
X141970125Y-98783687D01*
X142830550Y-98786950D01*
X142833963Y-99075701D01*
X142837376Y-99364451D01*
X141973537Y-99367801D01*
X141109697Y-99371150D01*
X141109697Y-99981856D01*
X141109962Y-99936300D01*
X142836900Y-99936300D01*
X142836900Y-101079300D01*
X143967200Y-101079300D01*
X143967200Y-97066100D01*
X142836900Y-97066100D01*
G36*
X141681200Y-100507800D02*
X141681200Y-101079300D01*
X142252700Y-101079300D01*
X142252700Y-100507800D01*
X141681200Y-100507800D01*
X141681200Y-100507800D01*
G37*
X141681200Y-100507800D02*
X141681200Y-101079300D01*
X142252700Y-101079300D01*
X142252700Y-100507800D01*
X141681200Y-100507800D01*
D12*
X113919000Y-97790000D03*
D13*
X113919000Y-99790000D03*
X113919000Y-101790000D03*
X113919000Y-103790000D03*
D14*
X118364000Y-92202000D03*
X113284000Y-92202000D03*
X118364000Y-84582000D03*
X113284000Y-84582000D03*
D15*
X118364000Y-94869000D03*
D16*
X118364000Y-97409000D03*
X118364000Y-99949000D03*
X118364000Y-102489000D03*
X118364000Y-105029000D03*
D17*
X122428000Y-84836000D03*
X122428000Y-87376000D03*
X122428000Y-89916000D03*
X122428000Y-92456000D03*
X122428000Y-94996000D03*
X122428000Y-97536000D03*
X122428000Y-100076000D03*
X122428000Y-102616000D03*
X122428000Y-105156000D03*
X122428000Y-107696000D03*
X122428000Y-110236000D03*
X122428000Y-112776000D03*
X122428000Y-115316000D03*
X122428000Y-82296000D03*
X130048000Y-115316000D03*
X130048000Y-112776000D03*
X130048000Y-110236000D03*
X130048000Y-107696000D03*
X130048000Y-105156000D03*
X130048000Y-102616000D03*
X130048000Y-100076000D03*
X130048000Y-97536000D03*
X130048000Y-94996000D03*
X130048000Y-92456000D03*
X130048000Y-89916000D03*
X130048000Y-87376000D03*
X130048000Y-84836000D03*
X130048000Y-82296000D03*
D18*
X111252000Y-116713000D03*
X111252000Y-81788000D03*
D19*
X135128000Y-90424000D03*
X135128000Y-92964000D03*
X135128000Y-95504000D03*
X135128000Y-98044000D03*
X135128000Y-100584000D03*
X135128000Y-103124000D03*
X135128000Y-105664000D03*
X135128000Y-108204000D03*
D18*
X146177000Y-81788000D03*
D20*
X112141000Y-101793000D03*
X112141000Y-103693000D03*
X118745000Y-109916000D03*
X118745000Y-108016000D03*
X118745000Y-113604000D03*
X118745000Y-115504000D03*
X116078000Y-101793000D03*
X116078000Y-103693000D03*
X127635000Y-101026000D03*
X127635000Y-99126000D03*
D21*
X135067000Y-88519000D03*
X136967000Y-88519000D03*
X125034000Y-82296000D03*
X126934000Y-82296000D03*
D22*
X117391000Y-82423000D03*
X119591000Y-82423000D03*
D23*
X116459000Y-109982000D03*
X116459000Y-114862000D03*
D18*
X146177000Y-116713000D03*
M02*
