G04 #@! TF.FileFunction,Copper,L2,Bot,Signal*
%FSLAX46Y46*%
G04 Gerber Fmt 4.6, Leading zero omitted, Abs format (unit mm)*
G04 Created by KiCad (PCBNEW 4.0.2-stable) date 2017/02/25 18:11:52*
%MOMM*%
G01*
G04 APERTURE LIST*
%ADD10C,0.100000*%
%ADD11R,1.700000X1.700000*%
%ADD12O,1.700000X1.700000*%
%ADD13R,1.600000X1.600000*%
%ADD14C,1.600000*%
%ADD15R,1.397000X1.397000*%
%ADD16C,1.397000*%
%ADD17R,1.800000X1.800000*%
%ADD18O,1.800000X1.800000*%
%ADD19C,0.800000*%
%ADD20C,0.254000*%
G04 APERTURE END LIST*
D10*
D11*
X171450000Y-126365000D03*
D12*
X171450000Y-123825000D03*
D13*
X179070000Y-126365000D03*
D14*
X179070000Y-124365000D03*
X184150000Y-126365000D03*
X184150000Y-123865000D03*
X198120000Y-126365000D03*
X198120000Y-123865000D03*
D13*
X203200000Y-126365000D03*
D14*
X203200000Y-124365000D03*
D15*
X174625000Y-126365000D03*
D16*
X174625000Y-128905000D03*
X174625000Y-131445000D03*
D11*
X207645000Y-126365000D03*
D12*
X207645000Y-123825000D03*
X210185000Y-126365000D03*
X210185000Y-123825000D03*
X212725000Y-126365000D03*
X212725000Y-123825000D03*
D17*
X188595000Y-126365000D03*
D18*
X191135000Y-126365000D03*
X193675000Y-126365000D03*
D19*
X171450000Y-126365000D02*
X171450000Y-128905000D01*
X171450000Y-128905000D02*
X174625000Y-128905000D01*
X188595000Y-126365000D02*
X184150000Y-126365000D01*
X179070000Y-126365000D02*
X184150000Y-126365000D01*
X174625000Y-126365000D02*
X179070000Y-126365000D01*
X191135000Y-126365000D02*
X191135000Y-123865000D01*
X191135000Y-123865000D02*
X191135000Y-123825000D01*
X191135000Y-123825000D02*
X191135000Y-123865000D01*
X184150000Y-123865000D02*
X191135000Y-123865000D01*
X191135000Y-123865000D02*
X198120000Y-123865000D01*
X210185000Y-123825000D02*
X212725000Y-123825000D01*
X207645000Y-123825000D02*
X210185000Y-123825000D01*
X203200000Y-124365000D02*
X204375000Y-124365000D01*
X204915000Y-123825000D02*
X207645000Y-123825000D01*
X204375000Y-124365000D02*
X204915000Y-123825000D01*
X198120000Y-123865000D02*
X199985000Y-123865000D01*
X200580000Y-124460000D02*
X203105000Y-124460000D01*
X199985000Y-123865000D02*
X200580000Y-124460000D01*
X203105000Y-124460000D02*
X203200000Y-124365000D01*
X179070000Y-124365000D02*
X179800000Y-124365000D01*
X179800000Y-124365000D02*
X180300000Y-123865000D01*
X180300000Y-123865000D02*
X184150000Y-123865000D01*
X171450000Y-123825000D02*
X178530000Y-123825000D01*
X178530000Y-123825000D02*
X179070000Y-124365000D01*
X193675000Y-126365000D02*
X198120000Y-126365000D01*
X203200000Y-126365000D02*
X198120000Y-126365000D01*
X207645000Y-126365000D02*
X203200000Y-126365000D01*
X210185000Y-126365000D02*
X207645000Y-126365000D01*
X212725000Y-126365000D02*
X210185000Y-126365000D01*
D20*
G36*
X213945000Y-125540196D02*
X213775054Y-125285853D01*
X213293285Y-124963946D01*
X212725000Y-124850907D01*
X212156715Y-124963946D01*
X211674946Y-125285853D01*
X211645448Y-125330000D01*
X211264552Y-125330000D01*
X211235054Y-125285853D01*
X210753285Y-124963946D01*
X210185000Y-124850907D01*
X209616715Y-124963946D01*
X209134946Y-125285853D01*
X209107150Y-125327452D01*
X209098162Y-125279683D01*
X208959090Y-125063559D01*
X208746890Y-124918569D01*
X208495000Y-124867560D01*
X206795000Y-124867560D01*
X206559683Y-124911838D01*
X206343559Y-125050910D01*
X206198569Y-125263110D01*
X206185023Y-125330000D01*
X204603222Y-125330000D01*
X204603162Y-125329683D01*
X204464090Y-125113559D01*
X204251890Y-124968569D01*
X204000000Y-124917560D01*
X202400000Y-124917560D01*
X202164683Y-124961838D01*
X201948559Y-125100910D01*
X201803569Y-125313110D01*
X201800149Y-125330000D01*
X199114432Y-125330000D01*
X198933923Y-125149176D01*
X198406691Y-124930250D01*
X197835813Y-124929752D01*
X197308200Y-125147757D01*
X197125639Y-125330000D01*
X194824163Y-125330000D01*
X194790481Y-125279591D01*
X194292491Y-124946845D01*
X193705072Y-124830000D01*
X193644928Y-124830000D01*
X193057509Y-124946845D01*
X192559519Y-125279591D01*
X192226773Y-125777581D01*
X192109928Y-126365000D01*
X192226773Y-126952419D01*
X192559519Y-127450409D01*
X193057509Y-127783155D01*
X193644928Y-127900000D01*
X193705072Y-127900000D01*
X194292491Y-127783155D01*
X194790481Y-127450409D01*
X194824163Y-127400000D01*
X197125568Y-127400000D01*
X197306077Y-127580824D01*
X197833309Y-127799750D01*
X198404187Y-127800248D01*
X198931800Y-127582243D01*
X199114361Y-127400000D01*
X201796778Y-127400000D01*
X201796838Y-127400317D01*
X201935910Y-127616441D01*
X202148110Y-127761431D01*
X202400000Y-127812440D01*
X204000000Y-127812440D01*
X204235317Y-127768162D01*
X204451441Y-127629090D01*
X204596431Y-127416890D01*
X204599851Y-127400000D01*
X206182370Y-127400000D01*
X206191838Y-127450317D01*
X206330910Y-127666441D01*
X206543110Y-127811431D01*
X206795000Y-127862440D01*
X208495000Y-127862440D01*
X208730317Y-127818162D01*
X208946441Y-127679090D01*
X209091431Y-127466890D01*
X209104977Y-127400000D01*
X209105448Y-127400000D01*
X209134946Y-127444147D01*
X209616715Y-127766054D01*
X210185000Y-127879093D01*
X210753285Y-127766054D01*
X211235054Y-127444147D01*
X211264552Y-127400000D01*
X211645448Y-127400000D01*
X211674946Y-127444147D01*
X212156715Y-127766054D01*
X212725000Y-127879093D01*
X213293285Y-127766054D01*
X213775054Y-127444147D01*
X213945000Y-127189804D01*
X213945000Y-132665000D01*
X175164337Y-132665000D01*
X175379380Y-132576146D01*
X175754827Y-132201353D01*
X175958268Y-131711413D01*
X175958731Y-131180914D01*
X175756146Y-130690620D01*
X175381353Y-130315173D01*
X175043554Y-130174906D01*
X175379380Y-130036146D01*
X175754827Y-129661353D01*
X175958268Y-129171413D01*
X175958731Y-128640914D01*
X175756146Y-128150620D01*
X175381353Y-127775173D01*
X175226663Y-127710940D01*
X175323500Y-127710940D01*
X175558817Y-127666662D01*
X175774941Y-127527590D01*
X175862119Y-127400000D01*
X177666778Y-127400000D01*
X177666838Y-127400317D01*
X177805910Y-127616441D01*
X178018110Y-127761431D01*
X178270000Y-127812440D01*
X179870000Y-127812440D01*
X180105317Y-127768162D01*
X180321441Y-127629090D01*
X180466431Y-127416890D01*
X180469851Y-127400000D01*
X183155568Y-127400000D01*
X183336077Y-127580824D01*
X183863309Y-127799750D01*
X184434187Y-127800248D01*
X184961800Y-127582243D01*
X185144361Y-127400000D01*
X187072962Y-127400000D01*
X187091838Y-127500317D01*
X187230910Y-127716441D01*
X187443110Y-127861431D01*
X187695000Y-127912440D01*
X189495000Y-127912440D01*
X189730317Y-127868162D01*
X189946441Y-127729090D01*
X190091431Y-127516890D01*
X190142440Y-127265000D01*
X190142440Y-125465000D01*
X190098162Y-125229683D01*
X189959090Y-125013559D01*
X189746890Y-124868569D01*
X189495000Y-124817560D01*
X187695000Y-124817560D01*
X187459683Y-124861838D01*
X187243559Y-125000910D01*
X187098569Y-125213110D01*
X187074898Y-125330000D01*
X185144432Y-125330000D01*
X184963923Y-125149176D01*
X184436691Y-124930250D01*
X183865813Y-124929752D01*
X183338200Y-125147757D01*
X183155639Y-125330000D01*
X180473222Y-125330000D01*
X180473162Y-125329683D01*
X180334090Y-125113559D01*
X180121890Y-124968569D01*
X179870000Y-124917560D01*
X178270000Y-124917560D01*
X178034683Y-124961838D01*
X177818559Y-125100910D01*
X177673569Y-125313110D01*
X177670149Y-125330000D01*
X175861553Y-125330000D01*
X175787590Y-125215059D01*
X175575390Y-125070069D01*
X175323500Y-125019060D01*
X173926500Y-125019060D01*
X173691183Y-125063338D01*
X173475059Y-125202410D01*
X173330069Y-125414610D01*
X173279060Y-125666500D01*
X173279060Y-127063500D01*
X173323338Y-127298817D01*
X173462410Y-127514941D01*
X173674610Y-127659931D01*
X173926500Y-127710940D01*
X174022884Y-127710940D01*
X173870620Y-127773854D01*
X173774306Y-127870000D01*
X172485000Y-127870000D01*
X172485000Y-127827630D01*
X172535317Y-127818162D01*
X172751441Y-127679090D01*
X172896431Y-127466890D01*
X172947440Y-127215000D01*
X172947440Y-125515000D01*
X172903162Y-125279683D01*
X172764090Y-125063559D01*
X172551890Y-124918569D01*
X172300000Y-124867560D01*
X170865000Y-124867560D01*
X170865000Y-122605000D01*
X213945000Y-122605000D01*
X213945000Y-125540196D01*
X213945000Y-125540196D01*
G37*
X213945000Y-125540196D02*
X213775054Y-125285853D01*
X213293285Y-124963946D01*
X212725000Y-124850907D01*
X212156715Y-124963946D01*
X211674946Y-125285853D01*
X211645448Y-125330000D01*
X211264552Y-125330000D01*
X211235054Y-125285853D01*
X210753285Y-124963946D01*
X210185000Y-124850907D01*
X209616715Y-124963946D01*
X209134946Y-125285853D01*
X209107150Y-125327452D01*
X209098162Y-125279683D01*
X208959090Y-125063559D01*
X208746890Y-124918569D01*
X208495000Y-124867560D01*
X206795000Y-124867560D01*
X206559683Y-124911838D01*
X206343559Y-125050910D01*
X206198569Y-125263110D01*
X206185023Y-125330000D01*
X204603222Y-125330000D01*
X204603162Y-125329683D01*
X204464090Y-125113559D01*
X204251890Y-124968569D01*
X204000000Y-124917560D01*
X202400000Y-124917560D01*
X202164683Y-124961838D01*
X201948559Y-125100910D01*
X201803569Y-125313110D01*
X201800149Y-125330000D01*
X199114432Y-125330000D01*
X198933923Y-125149176D01*
X198406691Y-124930250D01*
X197835813Y-124929752D01*
X197308200Y-125147757D01*
X197125639Y-125330000D01*
X194824163Y-125330000D01*
X194790481Y-125279591D01*
X194292491Y-124946845D01*
X193705072Y-124830000D01*
X193644928Y-124830000D01*
X193057509Y-124946845D01*
X192559519Y-125279591D01*
X192226773Y-125777581D01*
X192109928Y-126365000D01*
X192226773Y-126952419D01*
X192559519Y-127450409D01*
X193057509Y-127783155D01*
X193644928Y-127900000D01*
X193705072Y-127900000D01*
X194292491Y-127783155D01*
X194790481Y-127450409D01*
X194824163Y-127400000D01*
X197125568Y-127400000D01*
X197306077Y-127580824D01*
X197833309Y-127799750D01*
X198404187Y-127800248D01*
X198931800Y-127582243D01*
X199114361Y-127400000D01*
X201796778Y-127400000D01*
X201796838Y-127400317D01*
X201935910Y-127616441D01*
X202148110Y-127761431D01*
X202400000Y-127812440D01*
X204000000Y-127812440D01*
X204235317Y-127768162D01*
X204451441Y-127629090D01*
X204596431Y-127416890D01*
X204599851Y-127400000D01*
X206182370Y-127400000D01*
X206191838Y-127450317D01*
X206330910Y-127666441D01*
X206543110Y-127811431D01*
X206795000Y-127862440D01*
X208495000Y-127862440D01*
X208730317Y-127818162D01*
X208946441Y-127679090D01*
X209091431Y-127466890D01*
X209104977Y-127400000D01*
X209105448Y-127400000D01*
X209134946Y-127444147D01*
X209616715Y-127766054D01*
X210185000Y-127879093D01*
X210753285Y-127766054D01*
X211235054Y-127444147D01*
X211264552Y-127400000D01*
X211645448Y-127400000D01*
X211674946Y-127444147D01*
X212156715Y-127766054D01*
X212725000Y-127879093D01*
X213293285Y-127766054D01*
X213775054Y-127444147D01*
X213945000Y-127189804D01*
X213945000Y-132665000D01*
X175164337Y-132665000D01*
X175379380Y-132576146D01*
X175754827Y-132201353D01*
X175958268Y-131711413D01*
X175958731Y-131180914D01*
X175756146Y-130690620D01*
X175381353Y-130315173D01*
X175043554Y-130174906D01*
X175379380Y-130036146D01*
X175754827Y-129661353D01*
X175958268Y-129171413D01*
X175958731Y-128640914D01*
X175756146Y-128150620D01*
X175381353Y-127775173D01*
X175226663Y-127710940D01*
X175323500Y-127710940D01*
X175558817Y-127666662D01*
X175774941Y-127527590D01*
X175862119Y-127400000D01*
X177666778Y-127400000D01*
X177666838Y-127400317D01*
X177805910Y-127616441D01*
X178018110Y-127761431D01*
X178270000Y-127812440D01*
X179870000Y-127812440D01*
X180105317Y-127768162D01*
X180321441Y-127629090D01*
X180466431Y-127416890D01*
X180469851Y-127400000D01*
X183155568Y-127400000D01*
X183336077Y-127580824D01*
X183863309Y-127799750D01*
X184434187Y-127800248D01*
X184961800Y-127582243D01*
X185144361Y-127400000D01*
X187072962Y-127400000D01*
X187091838Y-127500317D01*
X187230910Y-127716441D01*
X187443110Y-127861431D01*
X187695000Y-127912440D01*
X189495000Y-127912440D01*
X189730317Y-127868162D01*
X189946441Y-127729090D01*
X190091431Y-127516890D01*
X190142440Y-127265000D01*
X190142440Y-125465000D01*
X190098162Y-125229683D01*
X189959090Y-125013559D01*
X189746890Y-124868569D01*
X189495000Y-124817560D01*
X187695000Y-124817560D01*
X187459683Y-124861838D01*
X187243559Y-125000910D01*
X187098569Y-125213110D01*
X187074898Y-125330000D01*
X185144432Y-125330000D01*
X184963923Y-125149176D01*
X184436691Y-124930250D01*
X183865813Y-124929752D01*
X183338200Y-125147757D01*
X183155639Y-125330000D01*
X180473222Y-125330000D01*
X180473162Y-125329683D01*
X180334090Y-125113559D01*
X180121890Y-124968569D01*
X179870000Y-124917560D01*
X178270000Y-124917560D01*
X178034683Y-124961838D01*
X177818559Y-125100910D01*
X177673569Y-125313110D01*
X177670149Y-125330000D01*
X175861553Y-125330000D01*
X175787590Y-125215059D01*
X175575390Y-125070069D01*
X175323500Y-125019060D01*
X173926500Y-125019060D01*
X173691183Y-125063338D01*
X173475059Y-125202410D01*
X173330069Y-125414610D01*
X173279060Y-125666500D01*
X173279060Y-127063500D01*
X173323338Y-127298817D01*
X173462410Y-127514941D01*
X173674610Y-127659931D01*
X173926500Y-127710940D01*
X174022884Y-127710940D01*
X173870620Y-127773854D01*
X173774306Y-127870000D01*
X172485000Y-127870000D01*
X172485000Y-127827630D01*
X172535317Y-127818162D01*
X172751441Y-127679090D01*
X172896431Y-127466890D01*
X172947440Y-127215000D01*
X172947440Y-125515000D01*
X172903162Y-125279683D01*
X172764090Y-125063559D01*
X172551890Y-124918569D01*
X172300000Y-124867560D01*
X170865000Y-124867560D01*
X170865000Y-122605000D01*
X213945000Y-122605000D01*
X213945000Y-125540196D01*
M02*
