M48
;DRILL file {KiCad 4.0.2-stable} date 2017/02/25 18:12:05
;FORMAT={-:-/ absolute / metric / decimal}
FMAT,2
METRIC,TZ
T1C0.800
T2C0.813
T3C1.000
%
G90
G05
M71
T1
X179.07Y-124.365
X179.07Y-126.365
X184.15Y-123.865
X184.15Y-126.365
X198.12Y-123.865
X198.12Y-126.365
X203.2Y-124.365
X203.2Y-126.365
T2
X174.625Y-126.365
X174.625Y-128.905
X174.625Y-131.445
T3
X171.45Y-123.825
X171.45Y-126.365
X188.595Y-126.365
X191.135Y-126.365
X193.675Y-126.365
X207.645Y-123.825
X207.645Y-126.365
X210.185Y-123.825
X210.185Y-126.365
X212.725Y-123.825
X212.725Y-126.365
T0
M30
